<?xml version="1.0" standalone="no"?>
<!DOCTYPE svg PUBLIC "-//W3C//DTD SVG 1.1//EN" "http://www.w3.org/Graphics/SVG/1.1/DTD/svg11.dtd" >
<svg xmlns="http://www.w3.org/2000/svg" xmlns:xlink="http://www.w3.org/1999/xlink" version="1.1">
<metadata>
Created by FontForge 20190801 at Tue May 10 00:34:25 2016
 By Jimmy Wärting
\(c\) 2016 Connary Fagen
</metadata>
<defs>
<font id="GreycliffCF-Regular" horiz-adv-x="573" >
  <font-face 
    font-family="Greycliff CF"
    font-weight="400"
    font-stretch="normal"
    units-per-em="1000"
    panose-1="0 0 5 0 0 0 0 0 0 0"
    ascent="800"
    descent="-200"
    x-height="490"
    cap-height="700"
    bbox="-175 -217 1054 938"
    underline-thickness="50"
    underline-position="-100"
    stemh="64"
    stemv="75"
    unicode-range="U+0020-FB02"
  />
<missing-glyph horiz-adv-x="495" 
d="M406 800v-990h-314v990h314zM330 734h-164v-33h65v-37h-66v-32h165v32h-66v37h66v33zM264 606h-99v-103h165v34h-66v69zM231 572v-35h-33v35h33zM330 476h-165v-32h66v-37h-66v-33h99v70h66v32zM330 417h-33v-65h-132v-34h165v99zM330 296h-99v-55h33v22h33v-46h-99v79
h-33v-112h165v112zM330 125h-165v-112h165v112zM297 92v-46h-99v46h99zM330 -10h-165v-32h70l-70 -47v-33h165v33h-101l69 47h32v32z" />
    <glyph glyph-name="fi" unicode="fi" horiz-adv-x="506" 
d="M307 720c7 -4 10 -10 10 -18v-38c0 -12 -7 -16 -18 -10c-17 9 -33 16 -55 16c-53 0 -66 -26 -66 -71v-109h104c9 0 15 -6 15 -15v-34c0 -9 -6 -15 -15 -15h-104v-411c0 -9 -6 -15 -15 -15h-45c-9 0 -15 6 -15 15v411h-58c-9 0 -15 6 -15 15v34c0 9 6 15 15 15h58v113
c0 86 42 133 138 133c26 0 50 -7 66 -16zM419 607c-27 0 -48 21 -48 48s21 48 48 48s48 -21 48 -48s-21 -48 -48 -48zM442 490c9 0 15 -6 15 -15v-460c0 -9 -6 -15 -15 -15h-45c-9 0 -15 6 -15 15v460c0 9 6 15 15 15h45z" />
    <glyph glyph-name="fl" unicode="fl" horiz-adv-x="517" 
d="M307 720c7 -4 10 -10 10 -18v-38c0 -12 -7 -16 -18 -10c-17 9 -33 16 -55 16c-53 0 -66 -26 -66 -71v-109h104c9 0 15 -6 15 -15v-34c0 -9 -6 -15 -15 -15h-104v-411c0 -9 -6 -15 -15 -15h-45c-9 0 -15 6 -15 15v411h-58c-9 0 -15 6 -15 15v34c0 9 6 15 15 15h58v113
c0 86 42 133 138 133c26 0 50 -7 66 -16zM452 730c9 0 15 -6 15 -15v-700c0 -9 -6 -15 -15 -15h-45c-9 0 -15 6 -15 15v700c0 9 6 15 15 15h45z" />
    <glyph glyph-name=".notdef" horiz-adv-x="495" 
d="M406 800v-990h-314v990h314zM330 734h-164v-33h65v-37h-66v-32h165v32h-66v37h66v33zM264 606h-99v-103h165v34h-66v69zM231 572v-35h-33v35h33zM330 476h-165v-32h66v-37h-66v-33h99v70h66v32zM330 417h-33v-65h-132v-34h165v99zM330 296h-99v-55h33v22h33v-46h-99v79
h-33v-112h165v112zM330 125h-165v-112h165v112zM297 92v-46h-99v46h99zM330 -10h-165v-32h70l-70 -47v-33h165v33h-101l69 47h32v32z" />
    <glyph glyph-name="A" unicode="A" horiz-adv-x="632" 
d="M605 17c4 -10 -1 -17 -12 -17h-48c-8 0 -14 3 -17 12l-55 153h-314l-55 -153c-3 -9 -9 -12 -17 -12h-48c-11 0 -16 7 -12 17l246 671c3 8 10 12 18 12h50c8 0 15 -4 18 -12zM183 234h266l-133 371z" />
    <glyph glyph-name="Aacute" unicode="&#xc1;" horiz-adv-x="632" 
d="M307 753c-11 0 -17 6 -12 17l60 126c4 9 9 12 17 12h33c11 0 17 -6 12 -17l-60 -126c-4 -9 -9 -12 -17 -12h-33zM605 17c4 -10 -1 -17 -12 -17h-48c-8 0 -14 3 -17 12l-55 153h-314l-55 -153c-3 -9 -9 -12 -17 -12h-48c-11 0 -16 7 -12 17l246 671c3 8 10 12 18 12h50
c8 0 15 -4 18 -12zM183 234h266l-133 371z" />
    <glyph glyph-name="Abreve" unicode="&#x102;" horiz-adv-x="632" 
d="M321 776c-79 0 -130 52 -137 118c-1 10 4 15 14 15h22c9 0 14 -5 16 -14c8 -38 38 -67 85 -67s77 29 85 67c2 9 7 14 16 14h22c10 0 15 -5 14 -15c-7 -66 -58 -118 -137 -118zM605 17c4 -10 -1 -17 -12 -17h-48c-8 0 -14 3 -17 12l-55 153h-314l-55 -153
c-3 -9 -9 -12 -17 -12h-48c-11 0 -16 7 -12 17l246 671c3 8 10 12 18 12h50c8 0 15 -4 18 -12zM183 234h266l-133 371z" />
    <glyph glyph-name="uni01CD" unicode="&#x1cd;" horiz-adv-x="632" 
d="M280 790l-87 100c-8 10 -5 18 8 18h30c7 0 13 -2 18 -8l72 -83l72 83c5 6 11 8 18 8h30c13 0 16 -8 8 -18l-87 -100c-5 -6 -11 -8 -18 -8h-46c-7 0 -13 2 -18 8zM605 17c4 -10 -1 -17 -12 -17h-48c-8 0 -14 3 -17 12l-55 153h-314l-55 -153c-3 -9 -9 -12 -17 -12h-48
c-11 0 -16 7 -12 17l246 671c3 8 10 12 18 12h50c8 0 15 -4 18 -12zM183 234h266l-133 371z" />
    <glyph glyph-name="Acircumflex" unicode="&#xc2;" horiz-adv-x="632" 
d="M201 782c-13 0 -16 8 -8 18l87 100c5 6 11 8 18 8h46c7 0 13 -2 18 -8l87 -100c8 -10 5 -18 -8 -18h-30c-7 0 -13 2 -18 8l-72 83l-72 -83c-5 -6 -11 -8 -18 -8h-30zM605 17c4 -10 -1 -17 -12 -17h-48c-8 0 -14 3 -17 12l-55 153h-314l-55 -153c-3 -9 -9 -12 -17 -12h-48
c-11 0 -16 7 -12 17l246 671c3 8 10 12 18 12h50c8 0 15 -4 18 -12zM183 234h266l-133 371z" />
    <glyph glyph-name="Adieresis" unicode="&#xc4;" horiz-adv-x="632" 
d="M230 828c-24 0 -44 20 -44 44c0 23 20 43 44 43s44 -20 44 -43c0 -24 -20 -44 -44 -44zM413 828c-24 0 -44 20 -44 44c0 23 20 43 44 43s44 -20 44 -43c0 -24 -20 -44 -44 -44zM605 17c4 -10 -1 -17 -12 -17h-48c-8 0 -14 3 -17 12l-55 153h-314l-55 -153
c-3 -9 -9 -12 -17 -12h-48c-11 0 -16 7 -12 17l246 671c3 8 10 12 18 12h50c8 0 15 -4 18 -12zM183 234h266l-133 371z" />
    <glyph glyph-name="Agrave" unicode="&#xc0;" horiz-adv-x="632" 
d="M278 765l-60 126c-5 11 1 17 12 17h33c8 0 13 -3 17 -12l60 -126c5 -11 -1 -17 -12 -17h-33c-8 0 -13 3 -17 12zM605 17c4 -10 -1 -17 -12 -17h-48c-8 0 -14 3 -17 12l-55 153h-314l-55 -153c-3 -9 -9 -12 -17 -12h-48c-11 0 -16 7 -12 17l246 671c3 8 10 12 18 12h50
c8 0 15 -4 18 -12zM183 234h266l-133 371z" />
    <glyph glyph-name="Amacron" unicode="&#x100;" horiz-adv-x="632" 
d="M185 846c-9 0 -15 6 -15 15v32c0 9 6 15 15 15h272c9 0 15 -6 15 -15v-32c0 -9 -6 -15 -15 -15h-272zM605 17c4 -10 -1 -17 -12 -17h-48c-8 0 -14 3 -17 12l-55 153h-314l-55 -153c-3 -9 -9 -12 -17 -12h-48c-11 0 -16 7 -12 17l246 671c3 8 10 12 18 12h50
c8 0 15 -4 18 -12zM183 234h266l-133 371z" />
    <glyph glyph-name="Aogonek" unicode="&#x104;" horiz-adv-x="632" 
d="M605 17c4 -10 -1 -17 -12 -17c-70 0 -114 -50 -114 -91c0 -45 32 -65 86 -53v-54c-46 -21 -153 -10 -153 91c0 69 55 114 110 135l-49 137h-314l-55 -153c-3 -9 -9 -12 -17 -12h-48c-11 0 -16 7 -12 17l246 671c3 8 10 12 18 12h50c8 0 15 -4 18 -12zM183 234h266
l-133 371z" />
    <glyph glyph-name="Aring" unicode="&#xc5;" horiz-adv-x="632" 
d="M322 771c-46 0 -81 36 -81 79s35 79 81 79c43 0 79 -36 79 -79s-36 -79 -79 -79zM322 877c-16 0 -28 -12 -28 -27s12 -27 28 -27c15 0 27 12 27 27s-12 27 -27 27zM605 17c4 -10 -1 -17 -12 -17h-48c-8 0 -14 3 -17 12l-55 153h-314l-55 -153c-3 -9 -9 -12 -17 -12h-48
c-11 0 -16 7 -12 17l246 671c3 8 10 12 18 12h50c8 0 15 -4 18 -12zM183 234h266l-133 371z" />
    <glyph glyph-name="Atilde" unicode="&#xc3;" horiz-adv-x="632" 
d="M180 840c-6 0 -10 4 -9 12c5 49 40 74 84 74c69 0 88 -66 140 -66c25 0 37 17 42 31c2 6 5 9 11 9h16c6 0 10 -4 10 -10c-5 -51 -42 -76 -81 -76c-72 0 -91 66 -143 66c-26 0 -38 -17 -43 -31c-2 -6 -5 -9 -11 -9h-16zM605 17c4 -10 -1 -17 -12 -17h-48
c-8 0 -14 3 -17 12l-55 153h-314l-55 -153c-3 -9 -9 -12 -17 -12h-48c-11 0 -16 7 -12 17l246 671c3 8 10 12 18 12h50c8 0 15 -4 18 -12zM183 234h266l-133 371z" />
    <glyph glyph-name="AE" unicode="&#xc6;" horiz-adv-x="833" 
d="M768 72c9 0 15 -6 15 -15v-42c0 -9 -6 -15 -15 -15h-345c-9 0 -15 6 -15 15v157h-223l-79 -160c-4 -9 -9 -12 -17 -12h-50c-11 0 -17 7 -12 17l336 671c4 8 10 12 18 12h386c9 0 15 -6 15 -15v-42c0 -9 -6 -15 -15 -15h-281v-221h264c9 0 15 -6 15 -15v-42
c0 -9 -6 -15 -15 -15h-264v-263h282zM219 241h189v386z" />
    <glyph glyph-name="B" unicode="B" horiz-adv-x="565" 
d="M389 379c92 -21 146 -90 146 -175c0 -131 -82 -204 -249 -204h-211c-9 0 -15 6 -15 15v670c0 9 6 15 15 15h213c149 0 203 -86 203 -167c0 -71 -33 -130 -102 -154zM415 528c0 69 -52 100 -134 100h-143v-220h143c83 0 134 43 134 120zM283 72c112 0 172 39 172 135
c0 79 -49 133 -172 133h-145v-268h145z" />
    <glyph glyph-name="C" unicode="C" horiz-adv-x="669" 
d="M598 134l31 -31c7 -7 6 -15 -1 -21c-64 -55 -143 -95 -236 -95c-198 0 -352 160 -352 360c0 201 154 361 352 361c93 0 172 -40 236 -95c7 -6 8 -14 1 -21l-31 -31c-7 -7 -14 -6 -21 0c-51 43 -111 71 -185 71c-150 0 -273 -122 -273 -285c0 -162 123 -284 273 -284
c74 0 134 28 185 71c7 6 14 7 21 0z" />
    <glyph glyph-name="Cacute" unicode="&#x106;" horiz-adv-x="669" 
d="M469 908c11 0 17 -6 12 -17l-60 -126c-4 -9 -9 -12 -17 -12h-33c-11 0 -17 6 -12 17l60 126c4 9 9 12 17 12h33zM598 134l31 -31c7 -7 6 -15 -1 -21c-64 -55 -143 -95 -236 -95c-198 0 -352 160 -352 360c0 201 154 361 352 361c93 0 172 -40 236 -95c7 -6 8 -14 1 -21
l-31 -31c-7 -7 -14 -6 -21 0c-51 43 -111 71 -185 71c-150 0 -273 -122 -273 -285c0 -162 123 -284 273 -284c74 0 134 28 185 71c7 6 14 7 21 0z" />
    <glyph glyph-name="Ccaron" unicode="&#x10c;" horiz-adv-x="669" 
d="M408 782h-46c-7 0 -13 2 -18 8l-87 100c-8 10 -5 18 8 18h30c7 0 13 -2 18 -8l72 -83l72 83c5 6 11 8 18 8h30c13 0 16 -8 8 -18l-87 -100c-5 -6 -11 -8 -18 -8zM598 134l31 -31c7 -7 6 -15 -1 -21c-64 -55 -143 -95 -236 -95c-198 0 -352 160 -352 360
c0 201 154 361 352 361c93 0 172 -40 236 -95c7 -6 8 -14 1 -21l-31 -31c-7 -7 -14 -6 -21 0c-51 43 -111 71 -185 71c-150 0 -273 -122 -273 -285c0 -162 123 -284 273 -284c74 0 134 28 185 71c7 6 14 7 21 0z" />
    <glyph glyph-name="Ccedilla" unicode="&#xc7;" horiz-adv-x="669" 
d="M598 134l31 -31c7 -7 6 -15 -1 -21c-59 -51 -132 -89 -216 -94l-26 -27c43 -3 81 -31 81 -77c0 -82 -80 -105 -151 -95c-6 1 -9 5 -9 11v28c0 6 4 10 11 10c55 -6 89 9 89 41c0 29 -40 46 -88 29c-7 -3 -12 0 -12 7v26c0 5 2 8 5 12l35 37c-176 22 -307 173 -307 357
c0 201 154 361 352 361c93 0 172 -40 236 -95c7 -6 8 -14 1 -21l-31 -31c-7 -7 -14 -6 -21 0c-51 43 -111 71 -185 71c-150 0 -273 -122 -273 -285c0 -162 123 -284 273 -284c74 0 134 28 185 71c7 6 14 7 21 0z" />
    <glyph glyph-name="Cdotaccent" unicode="&#x10a;" horiz-adv-x="669" 
d="M385 828c-24 0 -44 20 -44 44c0 23 20 43 44 43s44 -20 44 -43c0 -24 -20 -44 -44 -44zM598 134l31 -31c7 -7 6 -15 -1 -21c-64 -55 -143 -95 -236 -95c-198 0 -352 160 -352 360c0 201 154 361 352 361c93 0 172 -40 236 -95c7 -6 8 -14 1 -21l-31 -31
c-7 -7 -14 -6 -21 0c-51 43 -111 71 -185 71c-150 0 -273 -122 -273 -285c0 -162 123 -284 273 -284c74 0 134 28 185 71c7 6 14 7 21 0z" />
    <glyph glyph-name="D" unicode="D" horiz-adv-x="633" 
d="M232 700c243 0 366 -152 366 -350s-123 -350 -366 -350h-157c-9 0 -15 6 -15 15v670c0 9 6 15 15 15h157zM232 72c192 0 287 106 287 278s-95 278 -287 278h-94v-556h94z" />
    <glyph glyph-name="Eth" unicode="&#xd0;" horiz-adv-x="641" 
d="M240 700c243 0 366 -152 366 -350s-123 -350 -366 -350h-157c-9 0 -15 6 -15 15v304h-38c-9 0 -15 6 -15 15v32c0 9 6 15 15 15h38v304c0 9 6 15 15 15h157zM240 72c192 0 287 106 287 278s-95 278 -287 278h-94v-247h156c9 0 15 -6 15 -15v-32c0 -9 -6 -15 -15 -15h-156
v-247h94z" />
    <glyph glyph-name="Dcaron" unicode="&#x10e;" horiz-adv-x="633" 
d="M266 790l-87 100c-8 10 -5 18 8 18h30c7 0 13 -2 18 -8l72 -83l72 83c5 6 11 8 18 8h30c13 0 16 -8 8 -18l-87 -100c-5 -6 -11 -8 -18 -8h-46c-7 0 -13 2 -18 8zM232 700c243 0 366 -152 366 -350s-123 -350 -366 -350h-157c-9 0 -15 6 -15 15v670c0 9 6 15 15 15h157z
M232 72c192 0 287 106 287 278s-95 278 -287 278h-94v-556h94z" />
    <glyph glyph-name="Dcroat" unicode="&#x110;" horiz-adv-x="641" 
d="M240 700c243 0 366 -152 366 -350s-123 -350 -366 -350h-157c-9 0 -15 6 -15 15v304h-38c-9 0 -15 6 -15 15v32c0 9 6 15 15 15h38v304c0 9 6 15 15 15h157zM240 72c192 0 287 106 287 278s-95 278 -287 278h-94v-247h156c9 0 15 -6 15 -15v-32c0 -9 -6 -15 -15 -15h-156
v-247h94z" />
    <glyph glyph-name="E" unicode="E" horiz-adv-x="485" 
d="M420 72c9 0 15 -6 15 -15v-42c0 -9 -6 -15 -15 -15h-345c-9 0 -15 6 -15 15v670c0 9 6 15 15 15h344c9 0 15 -6 15 -15v-42c0 -9 -6 -15 -15 -15h-281v-221h264c9 0 15 -6 15 -15v-42c0 -9 -6 -15 -15 -15h-264v-263h282z" />
    <glyph glyph-name="Eacute" unicode="&#xc9;" horiz-adv-x="485" 
d="M332 908c11 0 17 -6 12 -17l-60 -126c-4 -9 -9 -12 -17 -12h-33c-11 0 -17 6 -12 17l60 126c4 9 9 12 17 12h33zM420 72c9 0 15 -6 15 -15v-42c0 -9 -6 -15 -15 -15h-345c-9 0 -15 6 -15 15v670c0 9 6 15 15 15h344c9 0 15 -6 15 -15v-42c0 -9 -6 -15 -15 -15h-281v-221
h264c9 0 15 -6 15 -15v-42c0 -9 -6 -15 -15 -15h-264v-263h282z" />
    <glyph glyph-name="Ecaron" unicode="&#x11a;" horiz-adv-x="485" 
d="M271 782h-46c-7 0 -13 2 -18 8l-87 100c-8 10 -5 18 8 18h30c7 0 13 -2 18 -8l72 -83l72 83c5 6 11 8 18 8h30c13 0 16 -8 8 -18l-87 -100c-5 -6 -11 -8 -18 -8zM420 72c9 0 15 -6 15 -15v-42c0 -9 -6 -15 -15 -15h-345c-9 0 -15 6 -15 15v670c0 9 6 15 15 15h344
c9 0 15 -6 15 -15v-42c0 -9 -6 -15 -15 -15h-281v-221h264c9 0 15 -6 15 -15v-42c0 -9 -6 -15 -15 -15h-264v-263h282z" />
    <glyph glyph-name="Ecircumflex" unicode="&#xca;" horiz-adv-x="485" 
d="M271 908c7 0 13 -2 18 -8l87 -100c8 -10 5 -18 -8 -18h-30c-7 0 -13 2 -18 8l-72 83l-72 -83c-5 -6 -11 -8 -18 -8h-30c-13 0 -16 8 -8 18l87 100c5 6 11 8 18 8h46zM420 72c9 0 15 -6 15 -15v-42c0 -9 -6 -15 -15 -15h-345c-9 0 -15 6 -15 15v670c0 9 6 15 15 15h344
c9 0 15 -6 15 -15v-42c0 -9 -6 -15 -15 -15h-281v-221h264c9 0 15 -6 15 -15v-42c0 -9 -6 -15 -15 -15h-264v-263h282z" />
    <glyph glyph-name="Edieresis" unicode="&#xcb;" horiz-adv-x="485" 
d="M157 828c-24 0 -44 20 -44 44c0 23 20 43 44 43s44 -20 44 -43c0 -24 -20 -44 -44 -44zM340 828c-24 0 -44 20 -44 44c0 23 20 43 44 43s44 -20 44 -43c0 -24 -20 -44 -44 -44zM420 72c9 0 15 -6 15 -15v-42c0 -9 -6 -15 -15 -15h-345c-9 0 -15 6 -15 15v670
c0 9 6 15 15 15h344c9 0 15 -6 15 -15v-42c0 -9 -6 -15 -15 -15h-281v-221h264c9 0 15 -6 15 -15v-42c0 -9 -6 -15 -15 -15h-264v-263h282z" />
    <glyph glyph-name="Edotaccent" unicode="&#x116;" horiz-adv-x="485" 
d="M248 828c-24 0 -44 20 -44 44c0 23 20 43 44 43s44 -20 44 -43c0 -24 -20 -44 -44 -44zM420 72c9 0 15 -6 15 -15v-42c0 -9 -6 -15 -15 -15h-345c-9 0 -15 6 -15 15v670c0 9 6 15 15 15h344c9 0 15 -6 15 -15v-42c0 -9 -6 -15 -15 -15h-281v-221h264c9 0 15 -6 15 -15
v-42c0 -9 -6 -15 -15 -15h-264v-263h282z" />
    <glyph glyph-name="Egrave" unicode="&#xc8;" horiz-adv-x="485" 
d="M157 908h33c8 0 13 -3 17 -12l60 -126c5 -11 -1 -17 -12 -17h-33c-8 0 -13 3 -17 12l-60 126c-5 11 1 17 12 17zM420 72c9 0 15 -6 15 -15v-42c0 -9 -6 -15 -15 -15h-345c-9 0 -15 6 -15 15v670c0 9 6 15 15 15h344c9 0 15 -6 15 -15v-42c0 -9 -6 -15 -15 -15h-281v-221
h264c9 0 15 -6 15 -15v-42c0 -9 -6 -15 -15 -15h-264v-263h282z" />
    <glyph glyph-name="Emacron" unicode="&#x112;" horiz-adv-x="485" 
d="M384 908c9 0 15 -6 15 -15v-32c0 -9 -6 -15 -15 -15h-272c-9 0 -15 6 -15 15v32c0 9 6 15 15 15h272zM420 72c9 0 15 -6 15 -15v-42c0 -9 -6 -15 -15 -15h-345c-9 0 -15 6 -15 15v670c0 9 6 15 15 15h344c9 0 15 -6 15 -15v-42c0 -9 -6 -15 -15 -15h-281v-221h264
c9 0 15 -6 15 -15v-42c0 -9 -6 -15 -15 -15h-264v-263h282z" />
    <glyph glyph-name="Eogonek" unicode="&#x118;" horiz-adv-x="485" 
d="M420 72c9 0 15 -6 15 -15v-42c0 -9 -6 -15 -15 -15h-40c-40 -17 -63 -51 -63 -81c0 -45 32 -65 86 -53v-54c-46 -21 -153 -10 -153 91c0 41 19 73 46 97h-221c-9 0 -15 6 -15 15v670c0 9 6 15 15 15h344c9 0 15 -6 15 -15v-42c0 -9 -6 -15 -15 -15h-281v-221h264
c9 0 15 -6 15 -15v-42c0 -9 -6 -15 -15 -15h-264v-263h282z" />
    <glyph glyph-name="F" unicode="F" horiz-adv-x="475" 
d="M410 700c9 0 15 -6 15 -15v-42c0 -9 -6 -15 -15 -15h-272v-221h259c9 0 15 -6 15 -15v-42c0 -9 -6 -15 -15 -15h-259v-320c0 -9 -6 -15 -15 -15h-48c-9 0 -15 6 -15 15v670c0 9 6 15 15 15h335z" />
    <glyph glyph-name="G" unicode="G" horiz-adv-x="749" 
d="M699 361c9 0 15 -6 15 -15v-32c0 -186 -122 -327 -321 -327c-202 0 -353 161 -353 363c0 198 154 358 352 358c93 0 172 -40 236 -95c7 -6 8 -14 1 -21l-31 -31c-7 -7 -14 -6 -21 0c-51 43 -111 71 -185 71c-150 0 -273 -122 -273 -282c0 -164 120 -287 274 -287
c141 0 243 92 247 226h-236c-9 0 -15 6 -15 15v42c0 9 6 15 15 15h295z" />
    <glyph glyph-name="Gbreve" unicode="&#x11e;" horiz-adv-x="749" 
d="M389 776c-79 0 -130 52 -137 118c-1 10 4 15 14 15h22c9 0 14 -5 16 -14c8 -38 38 -67 85 -67s77 29 85 67c2 9 7 14 16 14h22c10 0 15 -5 14 -15c-7 -66 -58 -118 -137 -118zM699 361c9 0 15 -6 15 -15v-32c0 -186 -122 -327 -321 -327c-202 0 -353 161 -353 363
c0 198 154 358 352 358c93 0 172 -40 236 -95c7 -6 8 -14 1 -21l-31 -31c-7 -7 -14 -6 -21 0c-51 43 -111 71 -185 71c-150 0 -273 -122 -273 -282c0 -164 120 -287 274 -287c141 0 243 92 247 226h-236c-9 0 -15 6 -15 15v42c0 9 6 15 15 15h295z" />
    <glyph glyph-name="Gcommaaccent" unicode="&#x122;" horiz-adv-x="749" 
d="M699 361c9 0 15 -6 15 -15v-32c0 -186 -122 -327 -321 -327c-202 0 -353 161 -353 363c0 198 154 358 352 358c93 0 172 -40 236 -95c7 -6 8 -14 1 -21l-31 -31c-7 -7 -14 -6 -21 0c-51 43 -111 71 -185 71c-150 0 -273 -122 -273 -282c0 -164 120 -287 274 -287
c141 0 243 92 247 226h-236c-9 0 -15 6 -15 15v42c0 9 6 15 15 15h295zM378 -38c27 0 49 -21 49 -58c0 -53 -26 -93 -46 -118c-2 -2 -4 -3 -7 -3h-11c-4 0 -6 3 -4 7c11 23 19 46 19 76c-27 0 -48 21 -48 48s21 48 48 48z" />
    <glyph glyph-name="Gdotaccent" unicode="&#x120;" horiz-adv-x="749" 
d="M389 828c-24 0 -44 20 -44 44c0 23 20 43 44 43s44 -20 44 -43c0 -24 -20 -44 -44 -44zM699 361c9 0 15 -6 15 -15v-32c0 -186 -122 -327 -321 -327c-202 0 -353 161 -353 363c0 198 154 358 352 358c93 0 172 -40 236 -95c7 -6 8 -14 1 -21l-31 -31c-7 -7 -14 -6 -21 0
c-51 43 -111 71 -185 71c-150 0 -273 -122 -273 -282c0 -164 120 -287 274 -287c141 0 243 92 247 226h-236c-9 0 -15 6 -15 15v42c0 9 6 15 15 15h295z" />
    <glyph glyph-name="H" unicode="H" horiz-adv-x="603" 
d="M528 700c9 0 15 -6 15 -15v-670c0 -9 -6 -15 -15 -15h-48c-9 0 -15 6 -15 15v297h-327v-297c0 -9 -6 -15 -15 -15h-48c-9 0 -15 6 -15 15v670c0 9 6 15 15 15h48c9 0 15 -6 15 -15v-301h327v301c0 9 6 15 15 15h48z" />
    <glyph glyph-name="Hbar" unicode="&#x126;" horiz-adv-x="603" 
d="M528 700c9 0 15 -6 15 -15v-670c0 -9 -6 -15 -15 -15h-48c-9 0 -15 6 -15 15v297h-327v-297c0 -9 -6 -15 -15 -15h-48c-9 0 -15 6 -15 15v670c0 9 6 15 15 15h48c9 0 15 -6 15 -15v-137h327v137c0 9 6 15 15 15h48zM138 384h327v96h-327v-96z" />
    <glyph glyph-name="I" unicode="I" horiz-adv-x="198" 
d="M60 685c0 9 6 15 15 15h48c9 0 15 -6 15 -15v-670c0 -9 -6 -15 -15 -15h-48c-9 0 -15 6 -15 15v670z" />
    <glyph glyph-name="IJ" unicode="&#x132;" horiz-adv-x="671" 
d="M60 685c0 9 6 15 15 15h48c9 0 15 -6 15 -15v-670c0 -9 -6 -15 -15 -15h-48c-9 0 -15 6 -15 15v670zM258 107c6 7 14 7 22 0c27 -23 61 -43 115 -43c85 0 138 60 138 191v430c0 9 6 15 15 15h48c9 0 15 -6 15 -15v-433c0 -183 -84 -261 -215 -261c-74 0 -130 26 -163 64
c-6 7 -7 14 -1 21z" />
    <glyph glyph-name="Iacute" unicode="&#xcd;" horiz-adv-x="198" 
d="M183 908c11 0 17 -6 12 -17l-60 -126c-4 -9 -9 -12 -17 -12h-33c-11 0 -17 6 -12 17l60 126c4 9 9 12 17 12h33zM60 685c0 9 6 15 15 15h48c9 0 15 -6 15 -15v-670c0 -9 -6 -15 -15 -15h-48c-9 0 -15 6 -15 15v670z" />
    <glyph glyph-name="uni01CF" unicode="&#x1cf;" horiz-adv-x="198" 
d="M122 782h-46c-7 0 -13 2 -18 8l-87 100c-8 10 -5 18 8 18h30c7 0 13 -2 18 -8l72 -83l72 83c5 6 11 8 18 8h30c13 0 16 -8 8 -18l-87 -100c-5 -6 -11 -8 -18 -8zM60 685c0 9 6 15 15 15h48c9 0 15 -6 15 -15v-670c0 -9 -6 -15 -15 -15h-48c-9 0 -15 6 -15 15v670z" />
    <glyph glyph-name="Icircumflex" unicode="&#xce;" horiz-adv-x="198" 
d="M122 908c7 0 13 -2 18 -8l87 -100c8 -10 5 -18 -8 -18h-30c-7 0 -13 2 -18 8l-72 83l-72 -83c-5 -6 -11 -8 -18 -8h-30c-13 0 -16 8 -8 18l87 100c5 6 11 8 18 8h46zM60 685c0 9 6 15 15 15h48c9 0 15 -6 15 -15v-670c0 -9 -6 -15 -15 -15h-48c-9 0 -15 6 -15 15v670z
" />
    <glyph glyph-name="Idieresis" unicode="&#xcf;" horiz-adv-x="198" 
d="M8 828c-24 0 -44 20 -44 44c0 23 20 43 44 43s44 -20 44 -43c0 -24 -20 -44 -44 -44zM191 828c-24 0 -44 20 -44 44c0 23 20 43 44 43s44 -20 44 -43c0 -24 -20 -44 -44 -44zM60 685c0 9 6 15 15 15h48c9 0 15 -6 15 -15v-670c0 -9 -6 -15 -15 -15h-48c-9 0 -15 6 -15 15
v670z" />
    <glyph glyph-name="Idotaccent" unicode="&#x130;" horiz-adv-x="198" 
d="M99 828c-24 0 -44 20 -44 44c0 23 20 43 44 43s44 -20 44 -43c0 -24 -20 -44 -44 -44zM60 685c0 9 6 15 15 15h48c9 0 15 -6 15 -15v-670c0 -9 -6 -15 -15 -15h-48c-9 0 -15 6 -15 15v670z" />
    <glyph glyph-name="Igrave" unicode="&#xcc;" horiz-adv-x="198" 
d="M8 908h33c8 0 13 -3 17 -12l60 -126c5 -11 -1 -17 -12 -17h-33c-8 0 -13 3 -17 12l-60 126c-5 11 1 17 12 17zM60 685c0 9 6 15 15 15h48c9 0 15 -6 15 -15v-670c0 -9 -6 -15 -15 -15h-48c-9 0 -15 6 -15 15v670z" />
    <glyph glyph-name="Imacron" unicode="&#x12a;" horiz-adv-x="198" 
d="M235 908c9 0 15 -6 15 -15v-32c0 -9 -6 -15 -15 -15h-272c-9 0 -15 6 -15 15v32c0 9 6 15 15 15h272zM60 685c0 9 6 15 15 15h48c9 0 15 -6 15 -15v-670c0 -9 -6 -15 -15 -15h-48c-9 0 -15 6 -15 15v670z" />
    <glyph glyph-name="J" unicode="J" horiz-adv-x="473" 
d="M60 107c6 7 14 7 22 0c27 -23 61 -43 115 -43c85 0 138 60 138 191v430c0 9 6 15 15 15h48c9 0 15 -6 15 -15v-433c0 -183 -84 -261 -215 -261c-74 0 -130 26 -163 64c-6 7 -7 14 -1 21z" />
    <glyph glyph-name="K" unicode="K" horiz-adv-x="576" 
d="M547 18c7 -10 3 -18 -9 -18h-59c-8 0 -13 2 -18 9l-255 341l-68 -75v-260c0 -9 -6 -15 -15 -15h-48c-9 0 -15 6 -15 15v670c0 9 6 15 15 15h48c9 0 15 -6 15 -15v-305l280 312c5 6 11 8 18 8h63c13 0 17 -9 8 -18l-251 -277z" />
    <glyph glyph-name="Kcommaaccent" unicode="&#x136;" horiz-adv-x="523" 
d="M547 18c7 -10 3 -18 -9 -18h-59c-8 0 -13 2 -18 9l-255 341l-68 -75v-260c0 -9 -6 -15 -15 -15h-48c-9 0 -15 6 -15 15v670c0 9 6 15 15 15h48c9 0 15 -6 15 -15v-305l280 312c5 6 11 8 18 8h63c13 0 17 -9 8 -18l-251 -277zM264 -38c27 0 49 -21 49 -58
c0 -53 -26 -93 -46 -118c-2 -2 -4 -3 -7 -3h-11c-4 0 -6 3 -4 7c11 23 19 46 19 76c-27 0 -48 21 -48 48s21 48 48 48z" />
    <glyph glyph-name="L" unicode="L" horiz-adv-x="455" 
d="M400 72c9 0 15 -6 15 -15v-42c0 -9 -6 -15 -15 -15h-325c-9 0 -15 6 -15 15v670c0 9 6 15 15 15h48c9 0 15 -6 15 -15v-613h262z" />
    <glyph glyph-name="Lacute" unicode="&#x139;" horiz-adv-x="455" 
d="M102 751c-11 0 -17 6 -12 17l60 126c4 9 9 12 17 12h33c11 0 17 -6 12 -17l-60 -126c-4 -9 -9 -12 -17 -12h-33zM400 72c9 0 15 -6 15 -15v-42c0 -9 -6 -15 -15 -15h-325c-9 0 -15 6 -15 15v670c0 9 6 15 15 15h48c9 0 15 -6 15 -15v-613h262z" />
    <glyph glyph-name="Lcaron" unicode="&#x13d;" horiz-adv-x="455" 
d="M283 623c-27 0 -48 21 -48 48s21 48 48 48s49 -21 49 -58c0 -53 -26 -93 -46 -118c-2 -2 -4 -3 -7 -3h-11c-4 0 -6 3 -4 7c11 23 19 46 19 76zM400 72c9 0 15 -6 15 -15v-42c0 -9 -6 -15 -15 -15h-325c-9 0 -15 6 -15 15v670c0 9 6 15 15 15h48c9 0 15 -6 15 -15v-613
h262z" />
    <glyph glyph-name="Lcommaaccent" unicode="&#x13b;" horiz-adv-x="455" 
d="M400 72c9 0 15 -6 15 -15v-42c0 -9 -6 -15 -15 -15h-325c-9 0 -15 6 -15 15v670c0 9 6 15 15 15h48c9 0 15 -6 15 -15v-613h262zM226 -38c27 0 49 -21 49 -58c0 -53 -26 -93 -46 -118c-2 -2 -4 -3 -7 -3h-11c-4 0 -6 3 -4 7c11 23 19 46 19 76c-27 0 -48 21 -48 48
s21 48 48 48z" />
    <glyph glyph-name="Ldot" unicode="&#x13f;" horiz-adv-x="455" 
d="M400 72c9 0 15 -6 15 -15v-42c0 -9 -6 -15 -15 -15h-325c-9 0 -15 6 -15 15v670c0 9 6 15 15 15h48c9 0 15 -6 15 -15v-613h262zM309 323c-27 0 -48 21 -48 48s21 48 48 48s48 -21 48 -48s-21 -48 -48 -48z" />
    <glyph glyph-name="Lslash" unicode="&#x141;" horiz-adv-x="471" 
d="M416 72c9 0 15 -6 15 -15v-42c0 -9 -6 -15 -15 -15h-325c-9 0 -15 6 -15 15v220l-38 -37c-10 -10 -18 -5 -18 8v49c0 7 2 13 8 19l48 47v364c0 9 6 15 15 15h48c9 0 15 -6 15 -15v-289l109 106c10 10 18 5 18 -8v-48c0 -7 -2 -13 -8 -19l-119 -116v-239h262z" />
    <glyph glyph-name="M" unicode="M" horiz-adv-x="823" 
d="M748 700c9 0 15 -6 15 -15v-670c0 -9 -6 -15 -15 -15h-48c-9 0 -15 6 -15 15v544l-233 -548c-3 -8 -9 -11 -17 -11h-49c-8 0 -14 3 -17 11l-231 543v-539c0 -9 -6 -15 -15 -15h-48c-9 0 -15 6 -15 15v670c0 9 6 15 15 15h64c8 0 15 -3 18 -10l254 -603l253 603
c3 7 10 10 18 10h66z" />
    <glyph glyph-name="N" unicode="N" horiz-adv-x="636" 
d="M561 700c9 0 15 -6 15 -15v-670c0 -8 -5 -14 -12 -15h-67c-8 0 -14 3 -18 10l-341 578v-573c0 -9 -6 -15 -15 -15h-48c-9 0 -15 6 -15 15v670c0 8 5 14 12 15h67c8 0 14 -3 18 -10l341 -578v573c0 9 6 15 15 15h48z" />
    <glyph glyph-name="Nacute" unicode="&#x143;" horiz-adv-x="636" 
d="M304 753c-11 0 -17 6 -12 17l60 126c4 9 9 12 17 12h33c11 0 17 -6 12 -17l-60 -126c-4 -9 -9 -12 -17 -12h-33zM561 700c9 0 15 -6 15 -15v-670c0 -8 -5 -14 -12 -15h-67c-8 0 -14 3 -18 10l-341 578v-573c0 -9 -6 -15 -15 -15h-48c-9 0 -15 6 -15 15v670
c0 8 5 14 12 15h67c8 0 14 -3 18 -10l341 -578v573c0 9 6 15 15 15h48z" />
    <glyph glyph-name="Ncaron" unicode="&#x147;" horiz-adv-x="636" 
d="M277 790l-87 100c-8 10 -5 18 8 18h30c7 0 13 -2 18 -8l72 -83l72 83c5 6 11 8 18 8h30c13 0 16 -8 8 -18l-87 -100c-5 -6 -11 -8 -18 -8h-46c-7 0 -13 2 -18 8zM561 700c9 0 15 -6 15 -15v-670c0 -8 -5 -14 -12 -15h-67c-8 0 -14 3 -18 10l-341 578v-573
c0 -9 -6 -15 -15 -15h-48c-9 0 -15 6 -15 15v670c0 8 5 14 12 15h67c8 0 14 -3 18 -10l341 -578v573c0 9 6 15 15 15h48z" />
    <glyph glyph-name="Ncommaaccent" unicode="&#x145;" horiz-adv-x="636" 
d="M561 700c9 0 15 -6 15 -15v-670c0 -8 -5 -14 -12 -15h-67c-8 0 -14 3 -18 10l-341 578v-573c0 -9 -6 -15 -15 -15h-48c-9 0 -15 6 -15 15v670c0 8 5 14 12 15h67c8 0 14 -3 18 -10l341 -578v573c0 9 6 15 15 15h48zM319 -38c27 0 49 -21 49 -58c0 -53 -26 -93 -46 -118
c-2 -2 -4 -3 -7 -3h-11c-4 0 -6 3 -4 7c11 23 19 46 19 76c-27 0 -48 21 -48 48s21 48 48 48z" />
    <glyph glyph-name="Eng" unicode="&#x14a;" horiz-adv-x="636" 
d="M561 700c9 0 15 -6 15 -15v-670c0 -3 -1 -6 -2 -8c-14 -149 -94 -214 -213 -214c-74 0 -130 26 -163 64c-6 7 -7 14 -1 21l26 31c6 7 14 7 22 0c27 -23 61 -43 115 -43c72 0 120 43 134 134c-6 1 -11 4 -15 10l-341 578v-573c0 -9 -6 -15 -15 -15h-48c-9 0 -15 6 -15 15
v670c0 8 5 14 12 15h67c8 0 14 -3 18 -10l341 -578v573c0 9 6 15 15 15h48z" />
    <glyph glyph-name="Ntilde" unicode="&#xd1;" horiz-adv-x="636" 
d="M177 840c-6 0 -10 4 -9 12c5 49 40 74 84 74c69 0 88 -66 140 -66c25 0 37 17 42 31c2 6 5 9 11 9h16c6 0 10 -4 10 -10c-5 -51 -42 -76 -81 -76c-72 0 -91 66 -143 66c-26 0 -38 -17 -43 -31c-2 -6 -5 -9 -11 -9h-16zM561 700c9 0 15 -6 15 -15v-670
c0 -8 -5 -14 -12 -15h-67c-8 0 -14 3 -18 10l-341 578v-573c0 -9 -6 -15 -15 -15h-48c-9 0 -15 6 -15 15v670c0 8 5 14 12 15h67c8 0 14 -3 18 -10l341 -578v573c0 9 6 15 15 15h48z" />
    <glyph glyph-name="O" unicode="O" horiz-adv-x="795" 
d="M398 -13c-198 0 -358 160 -358 360c0 201 160 361 358 361c197 0 357 -160 357 -361c0 -200 -160 -360 -357 -360zM398 60c157 0 281 127 281 287c0 161 -124 288 -281 288c-158 0 -282 -127 -282 -288c0 -160 124 -287 282 -287z" />
    <glyph glyph-name="Oacute" unicode="&#xd3;" horiz-adv-x="795" 
d="M482 908c11 0 17 -6 12 -17l-60 -126c-4 -9 -9 -12 -17 -12h-33c-11 0 -17 6 -12 17l60 126c4 9 9 12 17 12h33zM398 -13c-198 0 -358 160 -358 360c0 201 160 361 358 361c197 0 357 -160 357 -361c0 -200 -160 -360 -357 -360zM398 60c157 0 281 127 281 287
c0 161 -124 288 -281 288c-158 0 -282 -127 -282 -288c0 -160 124 -287 282 -287z" />
    <glyph glyph-name="uni01D1" unicode="&#x1d1;" horiz-adv-x="795" 
d="M421 782h-46c-7 0 -13 2 -18 8l-87 100c-8 10 -5 18 8 18h30c7 0 13 -2 18 -8l72 -83l72 83c5 6 11 8 18 8h30c13 0 16 -8 8 -18l-87 -100c-5 -6 -11 -8 -18 -8zM398 -13c-198 0 -358 160 -358 360c0 201 160 361 358 361c197 0 357 -160 357 -361
c0 -200 -160 -360 -357 -360zM398 60c157 0 281 127 281 287c0 161 -124 288 -281 288c-158 0 -282 -127 -282 -288c0 -160 124 -287 282 -287z" />
    <glyph glyph-name="Ocircumflex" unicode="&#xd4;" horiz-adv-x="795" 
d="M421 908c7 0 13 -2 18 -8l87 -100c8 -10 5 -18 -8 -18h-30c-7 0 -13 2 -18 8l-72 83l-72 -83c-5 -6 -11 -8 -18 -8h-30c-13 0 -16 8 -8 18l87 100c5 6 11 8 18 8h46zM398 -13c-198 0 -358 160 -358 360c0 201 160 361 358 361c197 0 357 -160 357 -361
c0 -200 -160 -360 -357 -360zM398 60c157 0 281 127 281 287c0 161 -124 288 -281 288c-158 0 -282 -127 -282 -288c0 -160 124 -287 282 -287z" />
    <glyph glyph-name="Odieresis" unicode="&#xd6;" horiz-adv-x="795" 
d="M307 828c-24 0 -44 20 -44 44c0 23 20 43 44 43s44 -20 44 -43c0 -24 -20 -44 -44 -44zM490 828c-24 0 -44 20 -44 44c0 23 20 43 44 43s44 -20 44 -43c0 -24 -20 -44 -44 -44zM398 -13c-198 0 -358 160 -358 360c0 201 160 361 358 361c197 0 357 -160 357 -361
c0 -200 -160 -360 -357 -360zM398 60c157 0 281 127 281 287c0 161 -124 288 -281 288c-158 0 -282 -127 -282 -288c0 -160 124 -287 282 -287z" />
    <glyph glyph-name="Ograve" unicode="&#xd2;" horiz-adv-x="795" 
d="M307 908h33c8 0 13 -3 17 -12l60 -126c5 -11 -1 -17 -12 -17h-33c-8 0 -13 3 -17 12l-60 126c-5 11 1 17 12 17zM398 -13c-198 0 -358 160 -358 360c0 201 160 361 358 361c197 0 357 -160 357 -361c0 -200 -160 -360 -357 -360zM398 60c157 0 281 127 281 287
c0 161 -124 288 -281 288c-158 0 -282 -127 -282 -288c0 -160 124 -287 282 -287z" />
    <glyph glyph-name="Ohungarumlaut" unicode="&#x150;" horiz-adv-x="795" 
d="M383 908c11 0 17 -6 12 -17l-60 -126c-4 -9 -9 -12 -17 -12h-33c-11 0 -17 6 -12 17l60 126c4 9 9 12 17 12h33zM528 908c11 0 17 -6 12 -17l-60 -126c-4 -9 -9 -12 -17 -12h-33c-11 0 -17 6 -12 17l60 126c4 9 9 12 17 12h33zM398 -13c-198 0 -358 160 -358 360
c0 201 160 361 358 361c197 0 357 -160 357 -361c0 -200 -160 -360 -357 -360zM398 60c157 0 281 127 281 287c0 161 -124 288 -281 288c-158 0 -282 -127 -282 -288c0 -160 124 -287 282 -287z" />
    <glyph glyph-name="Omacron" unicode="&#x14c;" horiz-adv-x="795" 
d="M534 908c9 0 15 -6 15 -15v-32c0 -9 -6 -15 -15 -15h-272c-9 0 -15 6 -15 15v32c0 9 6 15 15 15h272zM398 -13c-198 0 -358 160 -358 360c0 201 160 361 358 361c197 0 357 -160 357 -361c0 -200 -160 -360 -357 -360zM398 60c157 0 281 127 281 287
c0 161 -124 288 -281 288c-158 0 -282 -127 -282 -288c0 -160 124 -287 282 -287z" />
    <glyph glyph-name="uni01EA" unicode="&#x1ea;" horiz-adv-x="795" 
d="M424 -12c-37 -17 -58 -50 -58 -79c0 -45 32 -65 86 -53v-54c-46 -21 -153 -10 -153 91c0 41 19 74 47 98c-173 25 -306 174 -306 356c0 201 160 361 358 361c197 0 357 -160 357 -361c0 -191 -146 -346 -331 -359zM116 347c0 -160 124 -287 282 -287
c157 0 281 127 281 287c0 161 -124 288 -281 288c-158 0 -282 -127 -282 -288z" />
    <glyph glyph-name="Oslash" unicode="&#xd8;" horiz-adv-x="795" 
d="M576 660c107 -62 179 -178 179 -313c0 -200 -160 -360 -357 -360c-41 0 -80 7 -117 19l-20 -45c-3 -8 -9 -11 -17 -11h-43c-11 0 -16 7 -11 18l30 66c-108 62 -180 179 -180 313c0 201 160 361 358 361c41 0 80 -7 117 -20l20 46c3 8 9 11 17 11h43c11 0 16 -7 11 -18z
M116 347c0 -105 53 -195 134 -245l234 520c-27 8 -56 13 -86 13c-158 0 -282 -127 -282 -288zM398 60c157 0 281 127 281 287c0 105 -53 196 -133 246l-234 -520c27 -8 56 -13 86 -13z" />
    <glyph glyph-name="Otilde" unicode="&#xd5;" horiz-adv-x="795" 
d="M332 926c69 0 88 -66 140 -66c25 0 37 17 42 31c2 6 5 9 11 9h16c6 0 10 -4 10 -10c-5 -51 -42 -76 -81 -76c-72 0 -91 66 -143 66c-26 0 -38 -17 -43 -31c-2 -6 -5 -9 -11 -9h-16c-6 0 -10 4 -9 12c5 49 40 74 84 74zM398 -13c-198 0 -358 160 -358 360
c0 201 160 361 358 361c197 0 357 -160 357 -361c0 -200 -160 -360 -357 -360zM398 60c157 0 281 127 281 287c0 161 -124 288 -281 288c-158 0 -282 -127 -282 -288c0 -160 124 -287 282 -287z" />
    <glyph glyph-name="OE" unicode="&#x152;" horiz-adv-x="1104" 
d="M1039 72c9 0 15 -6 15 -15v-42c0 -9 -6 -15 -15 -15h-345c-9 0 -15 6 -15 15v109c-65 -83 -167 -137 -281 -137c-198 0 -358 160 -358 360c0 201 160 361 358 361c114 0 216 -54 281 -138v115c0 9 6 15 15 15h344c9 0 15 -6 15 -15v-42c0 -9 -6 -15 -15 -15h-281v-221
h264c9 0 15 -6 15 -15v-42c0 -9 -6 -15 -15 -15h-264v-263h282zM398 60c157 0 281 127 281 287c0 161 -124 288 -281 288c-158 0 -282 -127 -282 -288c0 -160 124 -287 282 -287z" />
    <glyph glyph-name="P" unicode="P" horiz-adv-x="527" 
d="M263 700c152 0 234 -93 234 -217s-82 -217 -234 -217h-125v-251c0 -9 -6 -15 -15 -15h-48c-9 0 -15 6 -15 15v670c0 9 6 15 15 15h188zM259 338c90 0 162 40 162 145s-72 145 -162 145h-121v-290h121z" />
    <glyph glyph-name="Thorn" unicode="&#xde;" horiz-adv-x="537" 
d="M276 567c153 0 231 -92 231 -217s-78 -217 -231 -217h-138v-118c0 -9 -6 -15 -15 -15h-48c-9 0 -15 6 -15 15v670c0 9 6 15 15 15h48c9 0 15 -6 15 -15v-118h138zM269 205c93 0 162 39 162 145s-69 145 -162 145h-131v-290h131z" />
    <glyph glyph-name="Q" unicode="Q" horiz-adv-x="795" 
d="M674 118l76 -76c7 -7 6 -15 0 -21l-31 -31c-7 -7 -14 -8 -22 0l-76 76c-61 -50 -139 -79 -223 -79c-198 0 -358 160 -358 360c0 201 160 361 358 361c197 0 357 -160 357 -361c0 -87 -30 -167 -81 -229zM398 60c65 0 124 22 171 58l-94 94c-7 7 -5 16 0 21l31 31
c7 7 14 7 21 0l94 -93c36 48 58 109 58 176c0 161 -124 288 -281 288c-158 0 -282 -127 -282 -288c0 -160 124 -287 282 -287z" />
    <glyph glyph-name="R" unicode="R" horiz-adv-x="543" 
d="M500 18c7 -11 2 -18 -10 -18h-53c-8 0 -14 3 -18 10l-170 256h-111v-251c0 -9 -6 -15 -15 -15h-48c-9 0 -15 6 -15 15v670c0 9 6 15 15 15h188c152 0 234 -93 234 -217c0 -105 -59 -188 -169 -211zM138 628v-290h121c90 0 162 40 162 145s-72 145 -162 145h-121z" />
    <glyph glyph-name="Racute" unicode="&#x154;" horiz-adv-x="543" 
d="M245 753c-11 0 -17 6 -12 17l60 126c4 9 9 12 17 12h33c11 0 17 -6 12 -17l-60 -126c-4 -9 -9 -12 -17 -12h-33zM500 18c7 -11 2 -18 -10 -18h-53c-8 0 -14 3 -18 10l-170 256h-111v-251c0 -9 -6 -15 -15 -15h-48c-9 0 -15 6 -15 15v670c0 9 6 15 15 15h188
c152 0 234 -93 234 -217c0 -105 -59 -188 -169 -211zM138 628v-290h121c90 0 162 40 162 145s-72 145 -162 145h-121z" />
    <glyph glyph-name="Rcaron" unicode="&#x158;" horiz-adv-x="543" 
d="M218 790l-87 100c-8 10 -5 18 8 18h30c7 0 13 -2 18 -8l72 -83l72 83c5 6 11 8 18 8h30c13 0 16 -8 8 -18l-87 -100c-5 -6 -11 -8 -18 -8h-46c-7 0 -13 2 -18 8zM500 18c7 -11 2 -18 -10 -18h-53c-8 0 -14 3 -18 10l-170 256h-111v-251c0 -9 -6 -15 -15 -15h-48
c-9 0 -15 6 -15 15v670c0 9 6 15 15 15h188c152 0 234 -93 234 -217c0 -105 -59 -188 -169 -211zM138 628v-290h121c90 0 162 40 162 145s-72 145 -162 145h-121z" />
    <glyph glyph-name="Rcommaaccent" unicode="&#x156;" horiz-adv-x="543" 
d="M500 18c7 -11 2 -18 -10 -18h-53c-8 0 -14 3 -18 10l-170 256h-111v-251c0 -9 -6 -15 -15 -15h-48c-9 0 -15 6 -15 15v670c0 9 6 15 15 15h188c152 0 234 -93 234 -217c0 -105 -59 -188 -169 -211zM138 628v-290h121c90 0 162 40 162 145s-72 145 -162 145h-121zM260 -38
c27 0 49 -21 49 -58c0 -53 -26 -93 -46 -118c-2 -2 -4 -3 -7 -3h-11c-4 0 -6 3 -4 7c11 23 19 46 19 76c-27 0 -48 21 -48 48s21 48 48 48z" />
    <glyph glyph-name="S" unicode="S" horiz-adv-x="521" 
d="M125 529c0 -165 361 -112 361 -349c0 -108 -102 -193 -228 -193c-97 0 -174 47 -219 106c-5 8 -4 14 3 20l29 28c7 6 14 5 21 -2c40 -43 92 -80 165 -80c92 0 152 56 152 125c0 169 -358 120 -358 346c0 103 87 178 202 178c75 0 149 -36 198 -94c6 -7 6 -13 -1 -21
l-25 -26c-7 -7 -14 -8 -21 -1c-45 45 -90 71 -151 71c-72 0 -128 -39 -128 -108z" />
    <glyph glyph-name="Sacute" unicode="&#x15a;" horiz-adv-x="521" 
d="M335 908c11 0 17 -6 12 -17l-60 -126c-4 -9 -9 -12 -17 -12h-33c-11 0 -17 6 -12 17l60 126c4 9 9 12 17 12h33zM125 529c0 -165 361 -112 361 -349c0 -108 -102 -193 -228 -193c-97 0 -174 47 -219 106c-5 8 -4 14 3 20l29 28c7 6 14 5 21 -2c40 -43 92 -80 165 -80
c92 0 152 56 152 125c0 169 -358 120 -358 346c0 103 87 178 202 178c75 0 149 -36 198 -94c6 -7 6 -13 -1 -21l-25 -26c-7 -7 -14 -8 -21 -1c-45 45 -90 71 -151 71c-72 0 -128 -39 -128 -108z" />
    <glyph glyph-name="Scaron" unicode="&#x160;" horiz-adv-x="521" 
d="M274 782h-46c-7 0 -13 2 -18 8l-87 100c-8 10 -5 18 8 18h30c7 0 13 -2 18 -8l72 -83l72 83c5 6 11 8 18 8h30c13 0 16 -8 8 -18l-87 -100c-5 -6 -11 -8 -18 -8zM125 529c0 -165 361 -112 361 -349c0 -108 -102 -193 -228 -193c-97 0 -174 47 -219 106c-5 8 -4 14 3 20
l29 28c7 6 14 5 21 -2c40 -43 92 -80 165 -80c92 0 152 56 152 125c0 169 -358 120 -358 346c0 103 87 178 202 178c75 0 149 -36 198 -94c6 -7 6 -13 -1 -21l-25 -26c-7 -7 -14 -8 -21 -1c-45 45 -90 71 -151 71c-72 0 -128 -39 -128 -108z" />
    <glyph glyph-name="Scedilla" unicode="&#x15e;" horiz-adv-x="521" 
d="M486 180c0 -102 -91 -184 -208 -192l-26 -27c43 -3 81 -31 81 -77c0 -82 -80 -105 -151 -95c-6 1 -9 5 -9 11v28c0 6 4 10 11 10c55 -6 89 9 89 41c0 29 -40 46 -88 29c-7 -3 -12 0 -12 7v26c0 5 2 8 5 12l35 37c-76 12 -136 53 -174 103c-5 8 -4 14 3 20l29 28
c7 6 14 5 21 -2c40 -43 92 -80 165 -80c92 0 152 56 152 125c0 169 -358 120 -358 346c0 103 87 178 202 178c75 0 149 -36 198 -94c6 -7 6 -13 -1 -21l-25 -26c-7 -7 -14 -8 -21 -1c-45 45 -90 71 -151 71c-72 0 -128 -39 -128 -108c0 -165 361 -112 361 -349z" />
    <glyph glyph-name="Scommaaccent" unicode="&#x218;" horiz-adv-x="521" 
d="M125 529c0 -165 361 -112 361 -349c0 -108 -102 -193 -228 -193c-97 0 -174 47 -219 106c-5 8 -4 14 3 20l29 28c7 6 14 5 21 -2c40 -43 92 -80 165 -80c92 0 152 56 152 125c0 169 -358 120 -358 346c0 103 87 178 202 178c75 0 149 -36 198 -94c6 -7 6 -13 -1 -21
l-25 -26c-7 -7 -14 -8 -21 -1c-45 45 -90 71 -151 71c-72 0 -128 -39 -128 -108zM252 -38c27 0 49 -21 49 -58c0 -53 -26 -93 -46 -118c-2 -2 -4 -3 -7 -3h-11c-4 0 -6 3 -4 7c11 23 19 46 19 76c-27 0 -48 21 -48 48s21 48 48 48z" />
    <glyph glyph-name="T" unicode="T" horiz-adv-x="506" 
d="M451 700c9 0 15 -6 15 -15v-42c0 -9 -6 -15 -15 -15h-159v-613c0 -9 -6 -15 -15 -15h-48c-9 0 -15 6 -15 15v613h-159c-9 0 -15 6 -15 15v42c0 9 6 15 15 15h396z" />
    <glyph glyph-name="Tbar" unicode="&#x166;" horiz-adv-x="506" 
d="M451 700c9 0 15 -6 15 -15v-42c0 -9 -6 -15 -15 -15h-159v-138h97c9 0 15 -6 15 -15v-32c0 -9 -6 -15 -15 -15h-97v-413c0 -9 -6 -15 -15 -15h-48c-9 0 -15 6 -15 15v413h-97c-9 0 -15 6 -15 15v32c0 9 6 15 15 15h97v138h-159c-9 0 -15 6 -15 15v42c0 9 6 15 15 15h396z
" />
    <glyph glyph-name="Tcaron" unicode="&#x164;" horiz-adv-x="506" 
d="M276 782h-46c-7 0 -13 2 -18 8l-87 100c-8 10 -5 18 8 18h30c7 0 13 -2 18 -8l72 -83l72 83c5 6 11 8 18 8h30c13 0 16 -8 8 -18l-87 -100c-5 -6 -11 -8 -18 -8zM451 700c9 0 15 -6 15 -15v-42c0 -9 -6 -15 -15 -15h-159v-613c0 -9 -6 -15 -15 -15h-48c-9 0 -15 6 -15 15
v613h-159c-9 0 -15 6 -15 15v42c0 9 6 15 15 15h396z" />
    <glyph glyph-name="uni0162" unicode="&#x162;" horiz-adv-x="506" 
d="M451 700c9 0 15 -6 15 -15v-42c0 -9 -6 -15 -15 -15h-159v-613c0 -9 -6 -15 -15 -15h15l-38 -39c43 -3 81 -31 81 -77c0 -82 -80 -105 -151 -95c-6 1 -9 5 -9 11v28c0 6 4 10 11 10c55 -6 89 9 89 41c0 29 -40 46 -88 29c-7 -3 -12 0 -12 7v26c0 5 2 8 5 12l44 47h5
c-9 0 -15 6 -15 15v613h-159c-9 0 -15 6 -15 15v42c0 9 6 15 15 15h396z" />
    <glyph glyph-name="uni021A" unicode="&#x21a;" horiz-adv-x="506" 
d="M451 700c9 0 15 -6 15 -15v-42c0 -9 -6 -15 -15 -15h-159v-613c0 -9 -6 -15 -15 -15h-48c-9 0 -15 6 -15 15v613h-159c-9 0 -15 6 -15 15v42c0 9 6 15 15 15h396zM254 -38c27 0 49 -21 49 -58c0 -53 -26 -93 -46 -118c-2 -2 -4 -3 -7 -3h-11c-4 0 -6 3 -4 7
c11 23 19 46 19 76c-27 0 -48 21 -48 48s21 48 48 48z" />
    <glyph glyph-name="U" unicode="U" horiz-adv-x="612" 
d="M542 700c9 0 15 -6 15 -15v-414c0 -187 -106 -284 -251 -284s-251 97 -251 284v414c0 9 6 15 15 15h48c9 0 15 -6 15 -15v-414c0 -144 74 -211 173 -211s173 67 173 211v414c0 9 6 15 15 15h48z" />
    <glyph glyph-name="Uacute" unicode="&#xda;" horiz-adv-x="612" 
d="M390 908c11 0 17 -6 12 -17l-60 -126c-4 -9 -9 -12 -17 -12h-33c-11 0 -17 6 -12 17l60 126c4 9 9 12 17 12h33zM542 700c9 0 15 -6 15 -15v-414c0 -187 -106 -284 -251 -284s-251 97 -251 284v414c0 9 6 15 15 15h48c9 0 15 -6 15 -15v-414c0 -144 74 -211 173 -211
s173 67 173 211v414c0 9 6 15 15 15h48z" />
    <glyph glyph-name="Ubreve" unicode="&#x16c;" horiz-adv-x="612" 
d="M391 895c2 9 7 14 16 14h22c10 0 15 -5 14 -15c-7 -66 -58 -118 -137 -118s-130 52 -137 118c-1 10 4 15 14 15h22c9 0 14 -5 16 -14c8 -38 38 -67 85 -67s77 29 85 67zM542 700c9 0 15 -6 15 -15v-414c0 -187 -106 -284 -251 -284s-251 97 -251 284v414c0 9 6 15 15 15
h48c9 0 15 -6 15 -15v-414c0 -144 74 -211 173 -211s173 67 173 211v414c0 9 6 15 15 15h48z" />
    <glyph glyph-name="uni01D3" unicode="&#x1d3;" horiz-adv-x="612" 
d="M329 782h-46c-7 0 -13 2 -18 8l-87 100c-8 10 -5 18 8 18h30c7 0 13 -2 18 -8l72 -83l72 83c5 6 11 8 18 8h30c13 0 16 -8 8 -18l-87 -100c-5 -6 -11 -8 -18 -8zM542 700c9 0 15 -6 15 -15v-414c0 -187 -106 -284 -251 -284s-251 97 -251 284v414c0 9 6 15 15 15h48
c9 0 15 -6 15 -15v-414c0 -144 74 -211 173 -211s173 67 173 211v414c0 9 6 15 15 15h48z" />
    <glyph glyph-name="Ucircumflex" unicode="&#xdb;" horiz-adv-x="612" 
d="M329 908c7 0 13 -2 18 -8l87 -100c8 -10 5 -18 -8 -18h-30c-7 0 -13 2 -18 8l-72 83l-72 -83c-5 -6 -11 -8 -18 -8h-30c-13 0 -16 8 -8 18l87 100c5 6 11 8 18 8h46zM542 700c9 0 15 -6 15 -15v-414c0 -187 -106 -284 -251 -284s-251 97 -251 284v414c0 9 6 15 15 15h48
c9 0 15 -6 15 -15v-414c0 -144 74 -211 173 -211s173 67 173 211v414c0 9 6 15 15 15h48z" />
    <glyph glyph-name="Udieresis" unicode="&#xdc;" horiz-adv-x="612" 
d="M215 828c-24 0 -44 20 -44 44c0 23 20 43 44 43s44 -20 44 -43c0 -24 -20 -44 -44 -44zM398 828c-24 0 -44 20 -44 44c0 23 20 43 44 43s44 -20 44 -43c0 -24 -20 -44 -44 -44zM542 700c9 0 15 -6 15 -15v-414c0 -187 -106 -284 -251 -284s-251 97 -251 284v414
c0 9 6 15 15 15h48c9 0 15 -6 15 -15v-414c0 -144 74 -211 173 -211s173 67 173 211v414c0 9 6 15 15 15h48z" />
    <glyph glyph-name="Ugrave" unicode="&#xd9;" horiz-adv-x="612" 
d="M215 908h33c8 0 13 -3 17 -12l60 -126c5 -11 -1 -17 -12 -17h-33c-8 0 -13 3 -17 12l-60 126c-5 11 1 17 12 17zM542 700c9 0 15 -6 15 -15v-414c0 -187 -106 -284 -251 -284s-251 97 -251 284v414c0 9 6 15 15 15h48c9 0 15 -6 15 -15v-414c0 -144 74 -211 173 -211
s173 67 173 211v414c0 9 6 15 15 15h48z" />
    <glyph glyph-name="Uhungarumlaut" unicode="&#x170;" horiz-adv-x="612" 
d="M291 908c11 0 17 -6 12 -17l-60 -126c-4 -9 -9 -12 -17 -12h-33c-11 0 -17 6 -12 17l60 126c4 9 9 12 17 12h33zM436 908c11 0 17 -6 12 -17l-60 -126c-4 -9 -9 -12 -17 -12h-33c-11 0 -17 6 -12 17l60 126c4 9 9 12 17 12h33zM542 700c9 0 15 -6 15 -15v-414
c0 -187 -106 -284 -251 -284s-251 97 -251 284v414c0 9 6 15 15 15h48c9 0 15 -6 15 -15v-414c0 -144 74 -211 173 -211s173 67 173 211v414c0 9 6 15 15 15h48z" />
    <glyph glyph-name="Umacron" unicode="&#x16a;" horiz-adv-x="612" 
d="M442 908c9 0 15 -6 15 -15v-32c0 -9 -6 -15 -15 -15h-272c-9 0 -15 6 -15 15v32c0 9 6 15 15 15h272zM542 700c9 0 15 -6 15 -15v-414c0 -187 -106 -284 -251 -284s-251 97 -251 284v414c0 9 6 15 15 15h48c9 0 15 -6 15 -15v-414c0 -144 74 -211 173 -211
s173 67 173 211v414c0 9 6 15 15 15h48z" />
    <glyph glyph-name="Uogonek" unicode="&#x172;" horiz-adv-x="612" 
d="M542 700c9 0 15 -6 15 -15v-414c0 -147 -65 -238 -163 -271c-54 -21 -92 -52 -92 -94s32 -62 86 -50v-54c-46 -21 -153 -10 -153 91c0 41 20 72 47 95c-133 10 -227 106 -227 283v414c0 9 6 15 15 15h48c9 0 15 -6 15 -15v-414c0 -144 74 -211 173 -211s173 67 173 211
v414c0 9 6 15 15 15h48z" />
    <glyph glyph-name="Uring" unicode="&#x16e;" horiz-adv-x="612" 
d="M307 929c43 0 79 -36 79 -79s-36 -79 -79 -79c-46 0 -81 36 -81 79s35 79 81 79zM307 823c15 0 27 12 27 27s-12 27 -27 27c-16 0 -28 -12 -28 -27s12 -27 28 -27zM542 700c9 0 15 -6 15 -15v-414c0 -187 -106 -284 -251 -284s-251 97 -251 284v414c0 9 6 15 15 15h48
c9 0 15 -6 15 -15v-414c0 -144 74 -211 173 -211s173 67 173 211v414c0 9 6 15 15 15h48z" />
    <glyph glyph-name="V" unicode="V" horiz-adv-x="650" 
d="M537 688c3 9 9 12 17 12h48c11 0 16 -7 12 -17l-246 -671c-3 -8 -10 -12 -18 -12h-50c-8 0 -15 4 -18 12l-246 671c-4 10 1 17 12 17h48c8 0 14 -3 17 -12l212 -593z" />
    <glyph glyph-name="W" unicode="W" horiz-adv-x="1077" 
d="M1029 700c11 0 15 -7 12 -17l-218 -671c-3 -8 -10 -12 -18 -12h-53c-8 0 -16 4 -18 12l-196 571l-197 -571c-3 -8 -10 -12 -18 -12h-53c-8 0 -16 4 -18 12l-216 671c-4 10 1 17 12 17h48c8 0 14 -3 17 -12l184 -593l202 593c1 4 3 7 6 9c2 2 5 3 10 3h45c4 0 7 -1 9 -2
c3 -2 5 -5 7 -10l202 -593l186 593c2 9 9 12 17 12h48z" />
    <glyph glyph-name="Wacute" unicode="&#x1e82;" horiz-adv-x="1077" 
d="M525 753c-11 0 -17 6 -12 17l60 126c4 9 9 12 17 12h33c11 0 17 -6 12 -17l-60 -126c-4 -9 -9 -12 -17 -12h-33zM1029 700c11 0 15 -7 12 -17l-218 -671c-3 -8 -10 -12 -18 -12h-53c-8 0 -16 4 -18 12l-196 571l-197 -571c-3 -8 -10 -12 -18 -12h-53c-8 0 -16 4 -18 12
l-216 671c-4 10 1 17 12 17h48c8 0 14 -3 17 -12l184 -593l202 593c1 4 3 7 6 9c2 2 5 3 10 3h45c4 0 7 -1 9 -2c3 -2 5 -5 7 -10l202 -593l186 593c2 9 9 12 17 12h48z" />
    <glyph glyph-name="Wcircumflex" unicode="&#x174;" horiz-adv-x="1077" 
d="M419 782c-13 0 -16 8 -8 18l87 100c5 6 11 8 18 8h46c7 0 13 -2 18 -8l87 -100c8 -10 5 -18 -8 -18h-30c-7 0 -13 2 -18 8l-72 83l-72 -83c-5 -6 -11 -8 -18 -8h-30zM1029 700c11 0 15 -7 12 -17l-218 -671c-3 -8 -10 -12 -18 -12h-53c-8 0 -16 4 -18 12l-196 571
l-197 -571c-3 -8 -10 -12 -18 -12h-53c-8 0 -16 4 -18 12l-216 671c-4 10 1 17 12 17h48c8 0 14 -3 17 -12l184 -593l202 593c1 4 3 7 6 9c2 2 5 3 10 3h45c4 0 7 -1 9 -2c3 -2 5 -5 7 -10l202 -593l186 593c2 9 9 12 17 12h48z" />
    <glyph glyph-name="Wdieresis" unicode="&#x1e84;" horiz-adv-x="1077" 
d="M448 828c-24 0 -44 20 -44 44c0 23 20 43 44 43s44 -20 44 -43c0 -24 -20 -44 -44 -44zM631 828c-24 0 -44 20 -44 44c0 23 20 43 44 43s44 -20 44 -43c0 -24 -20 -44 -44 -44zM1029 700c11 0 15 -7 12 -17l-218 -671c-3 -8 -10 -12 -18 -12h-53c-8 0 -16 4 -18 12
l-196 571l-197 -571c-3 -8 -10 -12 -18 -12h-53c-8 0 -16 4 -18 12l-216 671c-4 10 1 17 12 17h48c8 0 14 -3 17 -12l184 -593l202 593c1 4 3 7 6 9c2 2 5 3 10 3h45c4 0 7 -1 9 -2c3 -2 5 -5 7 -10l202 -593l186 593c2 9 9 12 17 12h48z" />
    <glyph glyph-name="Wgrave" unicode="&#x1e80;" horiz-adv-x="1077" 
d="M496 765l-60 126c-5 11 1 17 12 17h33c8 0 13 -3 17 -12l60 -126c5 -11 -1 -17 -12 -17h-33c-8 0 -13 3 -17 12zM1029 700c11 0 15 -7 12 -17l-218 -671c-3 -8 -10 -12 -18 -12h-53c-8 0 -16 4 -18 12l-196 571l-197 -571c-3 -8 -10 -12 -18 -12h-53c-8 0 -16 4 -18 12
l-216 671c-4 10 1 17 12 17h48c8 0 14 -3 17 -12l184 -593l202 593c1 4 3 7 6 9c2 2 5 3 10 3h45c4 0 7 -1 9 -2c3 -2 5 -5 7 -10l202 -593l186 593c2 9 9 12 17 12h48z" />
    <glyph glyph-name="X" unicode="X" horiz-adv-x="588" 
d="M550 18c6 -10 2 -18 -10 -18h-51c-8 0 -14 3 -18 10l-177 281l-177 -281c-4 -7 -10 -10 -18 -10h-51c-12 0 -16 8 -10 18l214 340l-204 324c-6 10 -2 18 10 18h51c8 0 14 -3 18 -10l167 -265l167 265c4 7 10 10 18 10h51c12 0 16 -8 10 -18l-204 -324z" />
    <glyph glyph-name="Y" unicode="Y" horiz-adv-x="568" 
d="M520 700c12 0 16 -8 10 -18l-207 -343v-324c0 -9 -6 -15 -15 -15h-48c-9 0 -15 6 -15 15v324l-207 343c-6 10 -2 18 10 18h51c8 0 14 -3 18 -10l167 -278l167 278c4 7 10 10 18 10h51z" />
    <glyph glyph-name="Yacute" unicode="&#xdd;" horiz-adv-x="568" 
d="M270 753c-11 0 -17 6 -12 17l60 126c4 9 9 12 17 12h33c11 0 17 -6 12 -17l-60 -126c-4 -9 -9 -12 -17 -12h-33zM520 700c12 0 16 -8 10 -18l-207 -343v-324c0 -9 -6 -15 -15 -15h-48c-9 0 -15 6 -15 15v324l-207 343c-6 10 -2 18 10 18h51c8 0 14 -3 18 -10l167 -278
l167 278c4 7 10 10 18 10h51z" />
    <glyph glyph-name="Ycircumflex" unicode="&#x176;" horiz-adv-x="568" 
d="M164 782c-13 0 -16 8 -8 18l87 100c5 6 11 8 18 8h46c7 0 13 -2 18 -8l87 -100c8 -10 5 -18 -8 -18h-30c-7 0 -13 2 -18 8l-72 83l-72 -83c-5 -6 -11 -8 -18 -8h-30zM520 700c12 0 16 -8 10 -18l-207 -343v-324c0 -9 -6 -15 -15 -15h-48c-9 0 -15 6 -15 15v324l-207 343
c-6 10 -2 18 10 18h51c8 0 14 -3 18 -10l167 -278l167 278c4 7 10 10 18 10h51z" />
    <glyph glyph-name="Ydieresis" unicode="&#x178;" horiz-adv-x="568" 
d="M193 828c-24 0 -44 20 -44 44c0 23 20 43 44 43s44 -20 44 -43c0 -24 -20 -44 -44 -44zM376 828c-24 0 -44 20 -44 44c0 23 20 43 44 43s44 -20 44 -43c0 -24 -20 -44 -44 -44zM520 700c12 0 16 -8 10 -18l-207 -343v-324c0 -9 -6 -15 -15 -15h-48c-9 0 -15 6 -15 15v324
l-207 343c-6 10 -2 18 10 18h51c8 0 14 -3 18 -10l167 -278l167 278c4 7 10 10 18 10h51z" />
    <glyph glyph-name="Ygrave" unicode="&#x1ef2;" horiz-adv-x="568" 
d="M241 765l-60 126c-5 11 1 17 12 17h33c8 0 13 -3 17 -12l60 -126c5 -11 -1 -17 -12 -17h-33c-8 0 -13 3 -17 12zM520 700c12 0 16 -8 10 -18l-207 -343v-324c0 -9 -6 -15 -15 -15h-48c-9 0 -15 6 -15 15v324l-207 343c-6 10 -2 18 10 18h51c8 0 14 -3 18 -10l167 -278
l167 278c4 7 10 10 18 10h51z" />
    <glyph glyph-name="Z" unicode="Z" horiz-adv-x="552" 
d="M492 72c9 0 15 -6 15 -15v-42c0 -9 -6 -15 -15 -15h-432c-9 0 -15 6 -15 15v47c0 7 2 12 6 18l365 548h-346c-9 0 -15 6 -15 15v42c0 9 6 15 15 15h412c9 0 15 -6 15 -15v-47c0 -7 -2 -12 -6 -18l-365 -548h366z" />
    <glyph glyph-name="Zacute" unicode="&#x179;" horiz-adv-x="552" 
d="M360 908c11 0 17 -6 12 -17l-60 -126c-4 -9 -9 -12 -17 -12h-33c-11 0 -17 6 -12 17l60 126c4 9 9 12 17 12h33zM492 72c9 0 15 -6 15 -15v-42c0 -9 -6 -15 -15 -15h-432c-9 0 -15 6 -15 15v47c0 7 2 12 6 18l365 548h-346c-9 0 -15 6 -15 15v42c0 9 6 15 15 15h412
c9 0 15 -6 15 -15v-47c0 -7 -2 -12 -6 -18l-365 -548h366z" />
    <glyph glyph-name="Zcaron" unicode="&#x17d;" horiz-adv-x="552" 
d="M299 782h-46c-7 0 -13 2 -18 8l-87 100c-8 10 -5 18 8 18h30c7 0 13 -2 18 -8l72 -83l72 83c5 6 11 8 18 8h30c13 0 16 -8 8 -18l-87 -100c-5 -6 -11 -8 -18 -8zM492 72c9 0 15 -6 15 -15v-42c0 -9 -6 -15 -15 -15h-432c-9 0 -15 6 -15 15v47c0 7 2 12 6 18l365 548h-346
c-9 0 -15 6 -15 15v42c0 9 6 15 15 15h412c9 0 15 -6 15 -15v-47c0 -7 -2 -12 -6 -18l-365 -548h366z" />
    <glyph glyph-name="Zdotaccent" unicode="&#x17b;" horiz-adv-x="552" 
d="M276 828c-24 0 -44 20 -44 44c0 23 20 43 44 43s44 -20 44 -43c0 -24 -20 -44 -44 -44zM492 72c9 0 15 -6 15 -15v-42c0 -9 -6 -15 -15 -15h-432c-9 0 -15 6 -15 15v47c0 7 2 12 6 18l365 548h-346c-9 0 -15 6 -15 15v42c0 9 6 15 15 15h412c9 0 15 -6 15 -15v-47
c0 -7 -2 -12 -6 -18l-365 -548h366z" />
    <glyph glyph-name="a" unicode="a" 
d="M508 490c9 0 15 -6 15 -15v-460c0 -9 -6 -15 -15 -15h-41c-9 0 -14 6 -15 15l-4 60c-39 -52 -97 -87 -173 -87c-140 0 -240 113 -240 256s100 256 240 256c76 0 135 -35 173 -88l4 63c1 9 6 15 15 15h41zM281 56c100 0 173 86 173 189c0 102 -73 187 -173 187
s-174 -80 -174 -187c0 -108 74 -189 174 -189z" />
    <glyph glyph-name="aacute" unicode="&#xe1;" 
d="M269 543c-11 0 -17 6 -12 17l60 126c4 9 9 12 17 12h33c11 0 17 -6 12 -17l-60 -126c-4 -9 -9 -12 -17 -12h-33zM508 490c9 0 15 -6 15 -15v-460c0 -9 -6 -15 -15 -15h-41c-9 0 -14 6 -15 15l-4 60c-39 -52 -97 -87 -173 -87c-140 0 -240 113 -240 256s100 256 240 256
c76 0 135 -35 173 -88l4 63c1 9 6 15 15 15h41zM281 56c100 0 173 86 173 189c0 102 -73 187 -173 187s-174 -80 -174 -187c0 -108 74 -189 174 -189z" />
    <glyph glyph-name="abreve" unicode="&#x103;" 
d="M283 566c-79 0 -130 52 -137 118c-1 10 4 15 14 15h22c9 0 14 -5 16 -14c8 -38 38 -67 85 -67s77 29 85 67c2 9 7 14 16 14h22c10 0 15 -5 14 -15c-7 -66 -58 -118 -137 -118zM508 490c9 0 15 -6 15 -15v-460c0 -9 -6 -15 -15 -15h-41c-9 0 -14 6 -15 15l-4 60
c-39 -52 -97 -87 -173 -87c-140 0 -240 113 -240 256s100 256 240 256c76 0 135 -35 173 -88l4 63c1 9 6 15 15 15h41zM281 56c100 0 173 86 173 189c0 102 -73 187 -173 187s-174 -80 -174 -187c0 -108 74 -189 174 -189z" />
    <glyph glyph-name="uni01CE" unicode="&#x1ce;" 
d="M242 580l-87 100c-8 10 -5 18 8 18h30c7 0 13 -2 18 -8l72 -83l72 83c5 6 11 8 18 8h30c13 0 16 -8 8 -18l-87 -100c-5 -6 -11 -8 -18 -8h-46c-7 0 -13 2 -18 8zM508 490c9 0 15 -6 15 -15v-460c0 -9 -6 -15 -15 -15h-41c-9 0 -14 6 -15 15l-4 60
c-39 -52 -97 -87 -173 -87c-140 0 -240 113 -240 256s100 256 240 256c76 0 135 -35 173 -88l4 63c1 9 6 15 15 15h41zM281 56c100 0 173 86 173 189c0 102 -73 187 -173 187s-174 -80 -174 -187c0 -108 74 -189 174 -189z" />
    <glyph glyph-name="acircumflex" unicode="&#xe2;" 
d="M163 572c-13 0 -16 8 -8 18l87 100c5 6 11 8 18 8h46c7 0 13 -2 18 -8l87 -100c8 -10 5 -18 -8 -18h-30c-7 0 -13 2 -18 8l-72 83l-72 -83c-5 -6 -11 -8 -18 -8h-30zM508 490c9 0 15 -6 15 -15v-460c0 -9 -6 -15 -15 -15h-41c-9 0 -14 6 -15 15l-4 60
c-39 -52 -97 -87 -173 -87c-140 0 -240 113 -240 256s100 256 240 256c76 0 135 -35 173 -88l4 63c1 9 6 15 15 15h41zM281 56c100 0 173 86 173 189c0 102 -73 187 -173 187s-174 -80 -174 -187c0 -108 74 -189 174 -189z" />
    <glyph glyph-name="adieresis" unicode="&#xe4;" 
d="M192 618c-24 0 -44 20 -44 44c0 23 20 43 44 43s44 -20 44 -43c0 -24 -20 -44 -44 -44zM375 618c-24 0 -44 20 -44 44c0 23 20 43 44 43s44 -20 44 -43c0 -24 -20 -44 -44 -44zM508 490c9 0 15 -6 15 -15v-460c0 -9 -6 -15 -15 -15h-41c-9 0 -14 6 -15 15l-4 60
c-39 -52 -97 -87 -173 -87c-140 0 -240 113 -240 256s100 256 240 256c76 0 135 -35 173 -88l4 63c1 9 6 15 15 15h41zM281 56c100 0 173 86 173 189c0 102 -73 187 -173 187s-174 -80 -174 -187c0 -108 74 -189 174 -189z" />
    <glyph glyph-name="agrave" unicode="&#xe0;" 
d="M240 555l-60 126c-5 11 1 17 12 17h33c8 0 13 -3 17 -12l60 -126c5 -11 -1 -17 -12 -17h-33c-8 0 -13 3 -17 12zM508 490c9 0 15 -6 15 -15v-460c0 -9 -6 -15 -15 -15h-41c-9 0 -14 6 -15 15l-4 60c-39 -52 -97 -87 -173 -87c-140 0 -240 113 -240 256s100 256 240 256
c76 0 135 -35 173 -88l4 63c1 9 6 15 15 15h41zM281 56c100 0 173 86 173 189c0 102 -73 187 -173 187s-174 -80 -174 -187c0 -108 74 -189 174 -189z" />
    <glyph glyph-name="amacron" unicode="&#x101;" 
d="M147 636c-9 0 -15 6 -15 15v32c0 9 6 15 15 15h272c9 0 15 -6 15 -15v-32c0 -9 -6 -15 -15 -15h-272zM508 490c9 0 15 -6 15 -15v-460c0 -9 -6 -15 -15 -15h-41c-9 0 -14 6 -15 15l-4 60c-39 -52 -97 -87 -173 -87c-140 0 -240 113 -240 256s100 256 240 256
c76 0 135 -35 173 -88l4 63c1 9 6 15 15 15h41zM281 56c100 0 173 86 173 189c0 102 -73 187 -173 187s-174 -80 -174 -187c0 -108 74 -189 174 -189z" />
    <glyph glyph-name="aogonek" unicode="&#x105;" horiz-adv-x="575" 
d="M525 43l-2 -9v-19c0 -6 -3 -11 -8 -13v-2c-75 0 -114 -50 -114 -91c0 -45 32 -65 86 -53v-54c-46 -21 -153 -10 -153 91c0 70 57 116 117 137l-3 45c-39 -52 -97 -87 -173 -87c-140 0 -240 113 -240 256s100 256 240 256c76 0 135 -35 173 -88l4 63c1 9 6 15 15 15h41
c9 0 15 -6 15 -15v-432h2zM281 56c100 0 173 86 173 189c0 102 -73 187 -173 187s-174 -80 -174 -187c0 -108 74 -189 174 -189z" />
    <glyph glyph-name="aring" unicode="&#xe5;" 
d="M284 561c-46 0 -81 36 -81 79s35 79 81 79c43 0 79 -36 79 -79s-36 -79 -79 -79zM284 667c-16 0 -28 -12 -28 -27s12 -27 28 -27c15 0 27 12 27 27s-12 27 -27 27zM508 490c9 0 15 -6 15 -15v-460c0 -9 -6 -15 -15 -15h-41c-9 0 -14 6 -15 15l-4 60
c-39 -52 -97 -87 -173 -87c-140 0 -240 113 -240 256s100 256 240 256c76 0 135 -35 173 -88l4 63c1 9 6 15 15 15h41zM281 56c100 0 173 86 173 189c0 102 -73 187 -173 187s-174 -80 -174 -187c0 -108 74 -189 174 -189z" />
    <glyph glyph-name="atilde" unicode="&#xe3;" 
d="M142 630c-6 0 -10 4 -9 12c5 49 40 74 84 74c69 0 88 -66 140 -66c25 0 37 17 42 31c2 6 5 9 11 9h16c6 0 10 -4 10 -10c-5 -51 -42 -76 -81 -76c-72 0 -91 66 -143 66c-26 0 -38 -17 -43 -31c-2 -6 -5 -9 -11 -9h-16zM508 490c9 0 15 -6 15 -15v-460
c0 -9 -6 -15 -15 -15h-41c-9 0 -14 6 -15 15l-4 60c-39 -52 -97 -87 -173 -87c-140 0 -240 113 -240 256s100 256 240 256c76 0 135 -35 173 -88l4 63c1 9 6 15 15 15h41zM281 56c100 0 173 86 173 189c0 102 -73 187 -173 187s-174 -80 -174 -187c0 -108 74 -189 174 -189z
" />
    <glyph glyph-name="ae" unicode="&#xe6;" horiz-adv-x="959" 
d="M694 501c141 0 230 -113 230 -238c0 -34 -4 -50 -29 -50h-367c11 -93 78 -161 182 -161c61 0 102 22 134 49c7 6 13 9 21 2l19 -18c8 -8 9 -15 1 -23c-46 -48 -110 -75 -183 -75s-135 28 -179 75v-47c0 -9 -6 -15 -15 -15h-41c-9 0 -14 6 -15 15l-4 60
c-39 -52 -97 -87 -173 -87c-140 0 -240 113 -240 256s100 256 240 256c76 0 135 -35 173 -88l4 63c1 9 6 15 15 15h41c9 0 15 -6 15 -15v-46c42 45 102 72 171 72zM694 435c-92 0 -157 -69 -167 -164h331c-4 92 -71 164 -164 164zM281 56c100 0 173 86 173 189
c0 102 -73 187 -173 187s-174 -80 -174 -187c0 -108 74 -189 174 -189z" />
    <glyph glyph-name="b" unicode="b" 
d="M298 500c140 0 240 -113 240 -256s-100 -256 -240 -256c-76 0 -134 35 -173 87l-4 -60c-1 -9 -6 -15 -15 -15h-41c-9 0 -15 6 -15 15v700c0 9 6 15 15 15h45c9 0 15 -6 15 -15v-303c38 53 97 88 173 88zM292 56c100 0 174 81 174 189c0 107 -74 187 -174 187
s-173 -85 -173 -187c0 -103 73 -189 173 -189z" />
    <glyph glyph-name="c" unicode="c" horiz-adv-x="505" 
d="M281 55c79 0 114 35 142 63c8 8 15 7 22 0l25 -23c6 -6 7 -14 1 -21c-46 -53 -111 -87 -190 -87c-141 0 -246 113 -246 257s105 257 246 257c77 0 141 -34 187 -87c6 -7 5 -15 -1 -21l-25 -23c-7 -7 -14 -7 -22 0c-29 26 -62 63 -139 63c-102 0 -174 -81 -174 -189
s72 -189 174 -189z" />
    <glyph glyph-name="cacute" unicode="&#x107;" horiz-adv-x="546" 
d="M375 728c11 0 17 -6 12 -17l-60 -126c-4 -9 -9 -12 -17 -12h-33c-11 0 -17 6 -12 17l60 126c4 9 9 12 17 12h33zM281 55c79 0 114 35 142 63c8 8 15 7 22 0l25 -23c6 -6 7 -14 1 -21c-46 -53 -111 -87 -190 -87c-141 0 -246 113 -246 257s105 257 246 257
c77 0 141 -34 187 -87c6 -7 5 -15 -1 -21l-25 -23c-7 -7 -14 -7 -22 0c-29 26 -62 63 -139 63c-102 0 -174 -81 -174 -189s72 -189 174 -189z" />
    <glyph glyph-name="ccaron" unicode="&#x10d;" horiz-adv-x="546" 
d="M294 574h-46c-7 0 -13 2 -18 8l-87 100c-8 10 -5 18 8 18h30c7 0 13 -2 18 -8l72 -83l72 83c5 6 11 8 18 8h30c13 0 16 -8 8 -18l-87 -100c-5 -6 -11 -8 -18 -8zM281 55c79 0 114 35 142 63c8 8 15 7 22 0l25 -23c6 -6 7 -14 1 -21c-46 -53 -111 -87 -190 -87
c-141 0 -246 113 -246 257s105 257 246 257c77 0 141 -34 187 -87c6 -7 5 -15 -1 -21l-25 -23c-7 -7 -14 -7 -22 0c-29 26 -62 63 -139 63c-102 0 -174 -81 -174 -189s72 -189 174 -189z" />
    <glyph glyph-name="ccedilla" unicode="&#xe7;" horiz-adv-x="546" 
d="M470 95c6 -6 7 -14 1 -21c-39 -45 -91 -76 -153 -84l-28 -29c43 -3 81 -31 81 -77c0 -82 -80 -105 -151 -95c-6 1 -9 5 -9 11v28c0 6 4 10 11 10c55 -6 89 9 89 41c0 29 -40 46 -88 29c-7 -3 -12 0 -12 7v26c0 5 2 8 5 12l34 36c-125 15 -215 122 -215 255
c0 144 105 257 246 257c77 0 141 -34 187 -87c6 -7 5 -15 -1 -21l-25 -23c-7 -7 -14 -7 -22 0c-29 26 -62 63 -139 63c-102 0 -174 -81 -174 -189s72 -189 174 -189c79 0 114 35 142 63c8 8 15 7 22 0z" />
    <glyph glyph-name="cdotaccent" unicode="&#x10b;" horiz-adv-x="546" 
d="M289 618c-24 0 -44 20 -44 44c0 23 20 43 44 43s44 -20 44 -43c0 -24 -20 -44 -44 -44zM281 55c79 0 114 35 142 63c8 8 15 7 22 0l25 -23c6 -6 7 -14 1 -21c-46 -53 -111 -87 -190 -87c-141 0 -246 113 -246 257s105 257 246 257c77 0 141 -34 187 -87
c6 -7 5 -15 -1 -21l-25 -23c-7 -7 -14 -7 -22 0c-29 26 -62 63 -139 63c-102 0 -174 -81 -174 -189s72 -189 174 -189z" />
    <glyph glyph-name="d" unicode="d" 
d="M508 730c9 0 15 -6 15 -15v-700c0 -9 -6 -15 -15 -15h-41c-9 0 -14 6 -15 15l-4 60c-39 -52 -97 -87 -173 -87c-140 0 -240 113 -240 256s100 256 240 256c76 0 135 -35 173 -88v303c0 9 6 15 15 15h45zM281 56c100 0 173 86 173 189c0 102 -73 187 -173 187
s-174 -80 -174 -187c0 -108 74 -189 174 -189z" />
    <glyph glyph-name="eth" unicode="&#xf0;" horiz-adv-x="571" 
d="M550 629c10 1 16 -4 16 -14v-29c0 -9 -5 -15 -14 -16l-29 -4v-551c0 -9 -6 -15 -15 -15h-41c-9 0 -14 6 -15 15l-4 60c-39 -52 -97 -87 -173 -87c-140 0 -240 113 -240 256s100 256 240 256c76 0 135 -35 173 -88v143l-87 -12c-10 -1 -16 4 -16 14v29c0 9 5 15 14 16
l89 13v100c0 9 6 15 15 15h45c9 0 15 -6 15 -15v-90zM281 56c100 0 173 86 173 189c0 102 -73 187 -173 187s-174 -80 -174 -187c0 -108 74 -189 174 -189z" />
    <glyph glyph-name="dcaron" unicode="&#x10f;" horiz-adv-x="681" 
d="M508 730c9 0 15 -6 15 -15v-700c0 -9 -6 -15 -15 -15h-41c-9 0 -14 6 -15 15l-4 60c-39 -52 -97 -87 -173 -87c-140 0 -240 113 -240 256s100 256 240 256c76 0 135 -35 173 -88v303c0 9 6 15 15 15h45zM678 730c11 0 17 -6 12 -17l-60 -126c-4 -9 -9 -12 -17 -12h-33
c-11 0 -17 6 -12 17l60 126c4 9 9 12 17 12h33zM281 56c100 0 173 86 173 189c0 102 -73 187 -173 187s-174 -80 -174 -187c0 -108 74 -189 174 -189z" />
    <glyph glyph-name="dcroat" unicode="&#x111;" horiz-adv-x="600" 
d="M580 636c9 0 15 -6 15 -15v-32c0 -9 -6 -15 -15 -15h-57v-559c0 -9 -6 -15 -15 -15h-41c-9 0 -14 6 -15 15l-4 60c-39 -52 -97 -87 -173 -87c-140 0 -240 113 -240 256s100 256 240 256c76 0 135 -35 173 -88v162h-140c-9 0 -15 6 -15 15v32c0 9 6 15 15 15h140v79
c0 9 6 15 15 15h45c9 0 15 -6 15 -15v-79h57zM281 56c100 0 173 86 173 189c0 102 -73 187 -173 187s-174 -80 -174 -187c0 -108 74 -189 174 -189z" />
    <glyph glyph-name="e" unicode="e" horiz-adv-x="540" 
d="M275 501c141 0 230 -113 230 -238c0 -34 -4 -50 -29 -50h-367c11 -93 78 -161 182 -161c61 0 102 22 134 49c7 6 13 9 21 2l19 -18c8 -8 9 -15 1 -23c-46 -48 -110 -75 -183 -75c-146 0 -248 113 -248 257s99 257 240 257zM275 435c-92 0 -157 -69 -167 -164h331
c-4 92 -71 164 -164 164z" />
    <glyph glyph-name="eacute" unicode="&#xe9;" horiz-adv-x="540" 
d="M256 543c-11 0 -17 6 -12 17l60 126c4 9 9 12 17 12h33c11 0 17 -6 12 -17l-60 -126c-4 -9 -9 -12 -17 -12h-33zM275 501c141 0 230 -113 230 -238c0 -34 -4 -50 -29 -50h-367c11 -93 78 -161 182 -161c61 0 102 22 134 49c7 6 13 9 21 2l19 -18c8 -8 9 -15 1 -23
c-46 -48 -110 -75 -183 -75c-146 0 -248 113 -248 257s99 257 240 257zM275 435c-92 0 -157 -69 -167 -164h331c-4 92 -71 164 -164 164z" />
    <glyph glyph-name="ecaron" unicode="&#x11b;" horiz-adv-x="540" 
d="M229 580l-87 100c-8 10 -5 18 8 18h30c7 0 13 -2 18 -8l72 -83l72 83c5 6 11 8 18 8h30c13 0 16 -8 8 -18l-87 -100c-5 -6 -11 -8 -18 -8h-46c-7 0 -13 2 -18 8zM275 501c141 0 230 -113 230 -238c0 -34 -4 -50 -29 -50h-367c11 -93 78 -161 182 -161c61 0 102 22 134 49
c7 6 13 9 21 2l19 -18c8 -8 9 -15 1 -23c-46 -48 -110 -75 -183 -75c-146 0 -248 113 -248 257s99 257 240 257zM275 435c-92 0 -157 -69 -167 -164h331c-4 92 -71 164 -164 164z" />
    <glyph glyph-name="ecircumflex" unicode="&#xea;" horiz-adv-x="540" 
d="M150 572c-13 0 -16 8 -8 18l87 100c5 6 11 8 18 8h46c7 0 13 -2 18 -8l87 -100c8 -10 5 -18 -8 -18h-30c-7 0 -13 2 -18 8l-72 83l-72 -83c-5 -6 -11 -8 -18 -8h-30zM275 501c141 0 230 -113 230 -238c0 -34 -4 -50 -29 -50h-367c11 -93 78 -161 182 -161
c61 0 102 22 134 49c7 6 13 9 21 2l19 -18c8 -8 9 -15 1 -23c-46 -48 -110 -75 -183 -75c-146 0 -248 113 -248 257s99 257 240 257zM275 435c-92 0 -157 -69 -167 -164h331c-4 92 -71 164 -164 164z" />
    <glyph glyph-name="edieresis" unicode="&#xeb;" horiz-adv-x="540" 
d="M179 618c-24 0 -44 20 -44 44c0 23 20 43 44 43s44 -20 44 -43c0 -24 -20 -44 -44 -44zM362 618c-24 0 -44 20 -44 44c0 23 20 43 44 43s44 -20 44 -43c0 -24 -20 -44 -44 -44zM275 501c141 0 230 -113 230 -238c0 -34 -4 -50 -29 -50h-367c11 -93 78 -161 182 -161
c61 0 102 22 134 49c7 6 13 9 21 2l19 -18c8 -8 9 -15 1 -23c-46 -48 -110 -75 -183 -75c-146 0 -248 113 -248 257s99 257 240 257zM275 435c-92 0 -157 -69 -167 -164h331c-4 92 -71 164 -164 164z" />
    <glyph glyph-name="edotaccent" unicode="&#x117;" horiz-adv-x="540" 
d="M270 618c-24 0 -44 20 -44 44c0 23 20 43 44 43s44 -20 44 -43c0 -24 -20 -44 -44 -44zM275 501c141 0 230 -113 230 -238c0 -34 -4 -50 -29 -50h-367c11 -93 78 -161 182 -161c61 0 102 22 134 49c7 6 13 9 21 2l19 -18c8 -8 9 -15 1 -23c-46 -48 -110 -75 -183 -75
c-146 0 -248 113 -248 257s99 257 240 257zM275 435c-92 0 -157 -69 -167 -164h331c-4 92 -71 164 -164 164z" />
    <glyph glyph-name="egrave" unicode="&#xe8;" horiz-adv-x="540" 
d="M227 555l-60 126c-5 11 1 17 12 17h33c8 0 13 -3 17 -12l60 -126c5 -11 -1 -17 -12 -17h-33c-8 0 -13 3 -17 12zM275 501c141 0 230 -113 230 -238c0 -34 -4 -50 -29 -50h-367c11 -93 78 -161 182 -161c61 0 102 22 134 49c7 6 13 9 21 2l19 -18c8 -8 9 -15 1 -23
c-46 -48 -110 -75 -183 -75c-146 0 -248 113 -248 257s99 257 240 257zM275 435c-92 0 -157 -69 -167 -164h331c-4 92 -71 164 -164 164z" />
    <glyph glyph-name="emacron" unicode="&#x113;" horiz-adv-x="540" 
d="M134 636c-9 0 -15 6 -15 15v32c0 9 6 15 15 15h272c9 0 15 -6 15 -15v-32c0 -9 -6 -15 -15 -15h-272zM275 501c141 0 230 -113 230 -238c0 -34 -4 -50 -29 -50h-367c11 -93 78 -161 182 -161c61 0 102 22 134 49c7 6 13 9 21 2l19 -18c8 -8 9 -15 1 -23
c-46 -48 -110 -75 -183 -75c-146 0 -248 113 -248 257s99 257 240 257zM275 435c-92 0 -157 -69 -167 -164h331c-4 92 -71 164 -164 164z" />
    <glyph glyph-name="eogonek" unicode="&#x119;" horiz-adv-x="540" 
d="M275 501c141 0 230 -113 230 -238c0 -34 -4 -50 -29 -50h-367c11 -93 78 -161 182 -161c61 0 102 22 134 49c7 6 13 9 21 2l19 -18c8 -8 9 -15 1 -23c-31 -33 -71 -55 -116 -67c-52 -18 -88 -54 -88 -94c0 -42 32 -62 86 -50v-54c-46 -21 -153 -10 -153 91
c0 45 24 77 55 101c-128 16 -215 122 -215 255c0 144 99 257 240 257zM275 435c-92 0 -157 -69 -167 -164h331c-4 92 -71 164 -164 164z" />
    <glyph glyph-name="f" unicode="f" horiz-adv-x="342" 
d="M359 682c4 -5 3 -8 -1 -12l-26 -26c-6 -6 -8 -5 -13 -2c-25 15 -43 28 -73 28c-53 0 -68 -26 -68 -71v-109h98c9 0 15 -6 15 -15v-34c0 -9 -6 -15 -15 -15h-98v-411c0 -9 -6 -15 -15 -15h-45c-9 0 -15 6 -15 15v411h-58c-9 0 -15 6 -15 15v34c0 9 6 15 15 15h58v113
c0 86 44 133 140 133c50 0 91 -23 116 -54z" />
    <glyph glyph-name="g" unicode="g" 
d="M508 490c9 0 15 -6 15 -15v-465c0 -152 -135 -208 -248 -208c-76 0 -141 19 -187 48c-8 5 -9 13 -5 21l14 26c4 8 12 10 20 6c41 -20 86 -35 153 -35c86 0 180 38 180 140v80c-38 -54 -98 -90 -175 -90c-140 0 -240 113 -240 251s100 251 240 251c76 0 135 -35 173 -88
l4 63c1 9 6 15 15 15h41zM281 66c100 0 173 86 173 184c0 97 -73 182 -173 182s-174 -80 -174 -182c0 -103 74 -184 174 -184z" />
    <glyph glyph-name="gbreve" unicode="&#x11f;" 
d="M287 566c-79 0 -130 52 -137 118c-1 10 4 15 14 15h22c9 0 14 -5 16 -14c8 -38 38 -67 85 -67s77 29 85 67c2 9 7 14 16 14h22c10 0 15 -5 14 -15c-7 -66 -58 -118 -137 -118zM508 490c9 0 15 -6 15 -15v-465c0 -152 -135 -208 -248 -208c-76 0 -141 19 -187 48
c-8 5 -9 13 -5 21l14 26c4 8 12 10 20 6c41 -20 86 -35 153 -35c86 0 180 38 180 140v80c-38 -54 -98 -90 -175 -90c-140 0 -240 113 -240 251s100 251 240 251c76 0 135 -35 173 -88l4 63c1 9 6 15 15 15h41zM281 66c100 0 173 86 173 184c0 97 -73 182 -173 182
s-174 -80 -174 -182c0 -103 74 -184 174 -184z" />
    <glyph glyph-name="gcommaaccent" unicode="&#x123;" 
d="M289 555c-27 0 -49 21 -49 58c0 53 26 93 46 118c2 2 4 3 7 3h11c4 0 6 -3 4 -7c-11 -23 -19 -46 -19 -76c27 0 48 -21 48 -48s-21 -48 -48 -48zM508 490c9 0 15 -6 15 -15v-465c0 -152 -135 -208 -248 -208c-76 0 -141 19 -187 48c-8 5 -9 13 -5 21l14 26
c4 8 12 10 20 6c41 -20 86 -35 153 -35c86 0 180 38 180 140v80c-38 -54 -98 -90 -175 -90c-140 0 -240 113 -240 251s100 251 240 251c76 0 135 -35 173 -88l4 63c1 9 6 15 15 15h41zM281 66c100 0 173 86 173 184c0 97 -73 182 -173 182s-174 -80 -174 -182
c0 -103 74 -184 174 -184z" />
    <glyph glyph-name="gdotaccent" unicode="&#x121;" 
d="M287 618c-24 0 -44 20 -44 44c0 23 20 43 44 43s44 -20 44 -43c0 -24 -20 -44 -44 -44zM508 490c9 0 15 -6 15 -15v-465c0 -152 -135 -208 -248 -208c-76 0 -141 19 -187 48c-8 5 -9 13 -5 21l14 26c4 8 12 10 20 6c41 -20 86 -35 153 -35c86 0 180 38 180 140v80
c-38 -54 -98 -90 -175 -90c-140 0 -240 113 -240 251s100 251 240 251c76 0 135 -35 173 -88l4 63c1 9 6 15 15 15h41zM281 66c100 0 173 86 173 184c0 97 -73 182 -173 182s-174 -80 -174 -182c0 -103 74 -184 174 -184z" />
    <glyph glyph-name="h" unicode="h" horiz-adv-x="513" 
d="M291 501c103 0 172 -64 172 -195v-291c0 -9 -6 -15 -15 -15h-45c-9 0 -15 6 -15 15v286c0 87 -43 133 -113 133c-97 0 -150 -96 -150 -116v-303c0 -9 -6 -15 -15 -15h-45c-9 0 -15 6 -15 15v700c0 9 6 15 15 15h45c9 0 15 -6 15 -15v-309c36 53 91 95 166 95z" />
    <glyph glyph-name="hbar" unicode="&#x127;" horiz-adv-x="518" 
d="M296 501c103 0 172 -64 172 -195v-291c0 -9 -6 -15 -15 -15h-45c-9 0 -15 6 -15 15v286c0 87 -43 133 -113 133c-97 0 -150 -96 -150 -116v-303c0 -9 -6 -15 -15 -15h-45c-9 0 -15 6 -15 15v558h-35c-9 0 -15 6 -15 15v32c0 9 6 15 15 15h35v80c0 9 6 15 15 15h45
c9 0 15 -6 15 -15v-80h162c9 0 15 -6 15 -15v-32c0 -9 -6 -15 -15 -15h-162v-167c36 53 91 95 166 95z" />
    <glyph glyph-name="i" unicode="i" horiz-adv-x="174" 
d="M87 607c-27 0 -48 21 -48 48s21 48 48 48s48 -21 48 -48s-21 -48 -48 -48zM50 475c0 9 6 15 15 15h45c9 0 15 -6 15 -15v-460c0 -9 -6 -15 -15 -15h-45c-9 0 -15 6 -15 15v460z" />
    <glyph glyph-name="dotlessi" unicode="&#x131;" horiz-adv-x="175" 
d="M50 475c0 9 6 15 15 15h45c9 0 15 -6 15 -15v-460c0 -9 -6 -15 -15 -15h-45c-9 0 -15 6 -15 15v460z" />
    <glyph glyph-name="iacute" unicode="&#xed;" horiz-adv-x="175" 
d="M172 698c11 0 17 -6 12 -17l-60 -126c-4 -9 -9 -12 -17 -12h-33c-11 0 -17 6 -12 17l60 126c4 9 9 12 17 12h33zM50 475c0 9 6 15 15 15h45c9 0 15 -6 15 -15v-460c0 -9 -6 -15 -15 -15h-45c-9 0 -15 6 -15 15v460z" />
    <glyph glyph-name="uni01D0" unicode="&#x1d0;" horiz-adv-x="175" 
d="M111 572h-46c-7 0 -13 2 -18 8l-87 100c-8 10 -5 18 8 18h30c7 0 13 -2 18 -8l72 -83l72 83c5 6 11 8 18 8h30c13 0 16 -8 8 -18l-87 -100c-5 -6 -11 -8 -18 -8zM50 475c0 9 6 15 15 15h45c9 0 15 -6 15 -15v-460c0 -9 -6 -15 -15 -15h-45c-9 0 -15 6 -15 15v460z" />
    <glyph glyph-name="icircumflex" unicode="&#xee;" horiz-adv-x="175" 
d="M111 698c7 0 13 -2 18 -8l87 -100c8 -10 5 -18 -8 -18h-30c-7 0 -13 2 -18 8l-72 83l-72 -83c-5 -6 -11 -8 -18 -8h-30c-13 0 -16 8 -8 18l87 100c5 6 11 8 18 8h46zM50 475c0 9 6 15 15 15h45c9 0 15 -6 15 -15v-460c0 -9 -6 -15 -15 -15h-45c-9 0 -15 6 -15 15v460z
" />
    <glyph glyph-name="idieresis" unicode="&#xef;" horiz-adv-x="175" 
d="M-3 618c-24 0 -44 20 -44 44c0 23 20 43 44 43s44 -20 44 -43c0 -24 -20 -44 -44 -44zM180 618c-24 0 -44 20 -44 44c0 23 20 43 44 43s44 -20 44 -43c0 -24 -20 -44 -44 -44zM50 475c0 9 6 15 15 15h45c9 0 15 -6 15 -15v-460c0 -9 -6 -15 -15 -15h-45
c-9 0 -15 6 -15 15v460z" />
    <glyph glyph-name="i.loclTRK" horiz-adv-x="175" 
d="M88 618c-24 0 -44 20 -44 44c0 23 20 43 44 43s44 -20 44 -43c0 -24 -20 -44 -44 -44zM50 475c0 9 6 15 15 15h45c9 0 15 -6 15 -15v-460c0 -9 -6 -15 -15 -15h-45c-9 0 -15 6 -15 15v460z" />
    <glyph glyph-name="igrave" unicode="&#xec;" horiz-adv-x="175" 
d="M-3 698h33c8 0 13 -3 17 -12l60 -126c5 -11 -1 -17 -12 -17h-33c-8 0 -13 3 -17 12l-60 126c-5 11 1 17 12 17zM50 475c0 9 6 15 15 15h45c9 0 15 -6 15 -15v-460c0 -9 -6 -15 -15 -15h-45c-9 0 -15 6 -15 15v460z" />
    <glyph glyph-name="ij" unicode="&#x133;" horiz-adv-x="395" 
d="M87 607c-27 0 -48 21 -48 48s21 48 48 48s48 -21 48 -48s-21 -48 -48 -48zM308 607c-27 0 -48 21 -48 48s21 48 48 48s48 -21 48 -48s-21 -48 -48 -48zM50 475c0 9 6 15 15 15h45c9 0 15 -6 15 -15v-460c0 -9 -6 -15 -15 -15h-45c-9 0 -15 6 -15 15v460zM286 490h45
c9 0 15 -6 15 -15v-470c0 -137 -62 -199 -162 -203c-6 0 -10 4 -11 9l-13 47c-2 6 1 11 8 11c71 5 103 48 103 141v465c0 9 6 15 15 15z" />
    <glyph glyph-name="imacron" unicode="&#x12b;" horiz-adv-x="175" 
d="M224 698c9 0 15 -6 15 -15v-32c0 -9 -6 -15 -15 -15h-272c-9 0 -15 6 -15 15v32c0 9 6 15 15 15h272zM50 475c0 9 6 15 15 15h45c9 0 15 -6 15 -15v-460c0 -9 -6 -15 -15 -15h-45c-9 0 -15 6 -15 15v460z" />
    <glyph glyph-name="iogonek" unicode="&#x12f;" horiz-adv-x="175" 
d="M88 618c-24 0 -44 20 -44 44c0 23 20 43 44 43s44 -20 44 -43c0 -24 -20 -44 -44 -44zM110 490c9 0 15 -6 15 -15v-460c0 -9 -6 -15 -15 -15c-70 0 -114 -50 -114 -91c0 -45 32 -65 86 -53v-54c-46 -21 -153 -10 -153 91c0 74 62 120 121 139v443c0 9 6 15 15 15h45z" />
    <glyph glyph-name="j" unicode="j" horiz-adv-x="241" 
d="M154 607c-27 0 -48 21 -48 48s21 48 48 48s48 -21 48 -48s-21 -48 -48 -48zM132 490h45c9 0 15 -6 15 -15v-470c0 -137 -62 -199 -162 -203c-6 0 -10 4 -11 9l-13 47c-2 6 1 11 8 11c71 5 103 48 103 141v465c0 9 6 15 15 15z" />
    <glyph glyph-name="uni0237" unicode="&#x237;" horiz-adv-x="231" 
d="M132 490h45c9 0 15 -6 15 -15v-470c0 -137 -62 -199 -162 -203c-6 0 -10 4 -11 9l-13 47c-2 6 1 11 8 11c71 5 103 48 103 141v465c0 9 6 15 15 15z" />
    <glyph glyph-name="k" unicode="k" horiz-adv-x="491" 
d="M472 18c8 -10 3 -18 -9 -18h-50c-8 0 -13 2 -18 9l-178 227l-92 -96v-125c0 -9 -6 -15 -15 -15h-45c-9 0 -15 6 -15 15v700c0 9 6 15 15 15h45c9 0 15 -6 15 -15v-487l241 254c5 6 12 8 19 8h51c13 0 17 -8 8 -18l-181 -189z" />
    <glyph glyph-name="kcommaaccent" unicode="&#x137;" horiz-adv-x="491" 
d="M472 18c8 -10 3 -18 -9 -18h-50c-8 0 -13 2 -18 9l-178 227l-92 -96v-125c0 -9 -6 -15 -15 -15h-45c-9 0 -15 6 -15 15v700c0 9 6 15 15 15h45c9 0 15 -6 15 -15v-487l241 254c5 6 12 8 19 8h51c13 0 17 -8 8 -18l-181 -189zM255 -38c27 0 49 -21 49 -58
c0 -53 -26 -93 -46 -118c-2 -2 -4 -3 -7 -3h-11c-4 0 -6 3 -4 7c11 23 19 46 19 76c-27 0 -48 21 -48 48s21 48 48 48z" />
    <glyph glyph-name="l" unicode="l" horiz-adv-x="175" 
d="M50 715c0 9 6 15 15 15h45c9 0 15 -6 15 -15v-700c0 -9 -6 -15 -15 -15h-45c-9 0 -15 6 -15 15v700z" />
    <glyph glyph-name="lacute" unicode="&#x13a;" horiz-adv-x="175" 
d="M172 938c11 0 17 -6 12 -17l-60 -126c-4 -9 -9 -12 -17 -12h-33c-11 0 -17 6 -12 17l60 126c4 9 9 12 17 12h33zM50 715c0 9 6 15 15 15h45c9 0 15 -6 15 -15v-700c0 -9 -6 -15 -15 -15h-45c-9 0 -15 6 -15 15v700z" />
    <glyph glyph-name="lcaron" unicode="&#x13e;" horiz-adv-x="293" 
d="M50 715c0 9 6 15 15 15h45c9 0 15 -6 15 -15v-700c0 -9 -6 -15 -15 -15h-45c-9 0 -15 6 -15 15v700zM229 729c27 0 49 -21 49 -58c0 -53 -26 -93 -46 -118c-2 -2 -4 -3 -7 -3h-11c-4 0 -6 3 -4 7c11 23 19 46 19 76c-27 0 -48 21 -48 48s21 48 48 48z" />
    <glyph glyph-name="lcommaaccent" unicode="&#x13c;" horiz-adv-x="175" 
d="M50 715c0 9 6 15 15 15h45c9 0 15 -6 15 -15v-700c0 -9 -6 -15 -15 -15h-45c-9 0 -15 6 -15 15v700zM89 -38c27 0 49 -21 49 -58c0 -53 -26 -93 -46 -118c-2 -2 -4 -3 -7 -3h-11c-4 0 -6 3 -4 7c11 23 19 46 19 76c-27 0 -48 21 -48 48s21 48 48 48z" />
    <glyph glyph-name="ldot" unicode="&#x140;" horiz-adv-x="295" 
d="M50 715c0 9 6 15 15 15h45c9 0 15 -6 15 -15v-700c0 -9 -6 -15 -15 -15h-45c-9 0 -15 6 -15 15v700zM217 321c-27 0 -48 21 -48 48s21 48 48 48s48 -21 48 -48s-21 -48 -48 -48z" />
    <glyph glyph-name="lslash" unicode="&#x142;" horiz-adv-x="331" 
d="M296 520v-65l-105 -111v-329c0 -9 -6 -15 -15 -15h-45c-9 0 -15 6 -15 15v250l-81 -85v66l81 85v384c0 9 6 15 15 15h45c9 0 15 -6 15 -15v-305l104 110h1z" />
    <glyph glyph-name="m" unicode="m" horiz-adv-x="851" 
d="M628 501c104 0 173 -64 173 -195v-291c0 -9 -6 -15 -15 -15h-45c-9 0 -15 6 -15 15v286c0 87 -43 133 -113 133c-107 0 -150 -85 -150 -131v-288c0 -9 -6 -15 -15 -15h-45c-9 0 -15 6 -15 15v286c0 87 -43 133 -113 133c-97 0 -150 -96 -150 -116v-303
c0 -9 -6 -15 -15 -15h-45c-9 0 -15 6 -15 15v460c0 9 6 15 15 15h41c9 0 14 -6 15 -15l4 -69c36 53 91 95 166 95c74 0 130 -33 156 -100c34 56 93 100 181 100z" />
    <glyph glyph-name="n" unicode="n" horiz-adv-x="513" 
d="M291 501c103 0 172 -64 172 -195v-291c0 -9 -6 -15 -15 -15h-45c-9 0 -15 6 -15 15v286c0 87 -43 133 -113 133c-97 0 -150 -96 -150 -116v-303c0 -9 -6 -15 -15 -15h-45c-9 0 -15 6 -15 15v460c0 9 6 15 15 15h41c9 0 14 -6 15 -15l4 -69c36 53 91 95 166 95z" />
    <glyph glyph-name="nacute" unicode="&#x144;" horiz-adv-x="513" 
d="M243 543c-11 0 -17 6 -12 17l60 126c4 9 9 12 17 12h33c11 0 17 -6 12 -17l-60 -126c-4 -9 -9 -12 -17 -12h-33zM291 501c103 0 172 -64 172 -195v-291c0 -9 -6 -15 -15 -15h-45c-9 0 -15 6 -15 15v286c0 87 -43 133 -113 133c-97 0 -150 -96 -150 -116v-303
c0 -9 -6 -15 -15 -15h-45c-9 0 -15 6 -15 15v460c0 9 6 15 15 15h41c9 0 14 -6 15 -15l4 -69c36 53 91 95 166 95z" />
    <glyph glyph-name="ncaron" unicode="&#x148;" horiz-adv-x="513" 
d="M216 580l-87 100c-8 10 -5 18 8 18h30c7 0 13 -2 18 -8l72 -83l72 83c5 6 11 8 18 8h30c13 0 16 -8 8 -18l-87 -100c-5 -6 -11 -8 -18 -8h-46c-7 0 -13 2 -18 8zM291 501c103 0 172 -64 172 -195v-291c0 -9 -6 -15 -15 -15h-45c-9 0 -15 6 -15 15v286
c0 87 -43 133 -113 133c-97 0 -150 -96 -150 -116v-303c0 -9 -6 -15 -15 -15h-45c-9 0 -15 6 -15 15v460c0 9 6 15 15 15h41c9 0 14 -6 15 -15l4 -69c36 53 91 95 166 95z" />
    <glyph glyph-name="ncommaaccent" unicode="&#x146;" horiz-adv-x="513" 
d="M291 501c103 0 172 -64 172 -195v-291c0 -9 -6 -15 -15 -15h-45c-9 0 -15 6 -15 15v286c0 87 -43 133 -113 133c-97 0 -150 -96 -150 -116v-303c0 -9 -6 -15 -15 -15h-45c-9 0 -15 6 -15 15v460c0 9 6 15 15 15h41c9 0 14 -6 15 -15l4 -69c36 53 91 95 166 95zM258 -38
c27 0 49 -21 49 -58c0 -53 -26 -93 -46 -118c-2 -2 -4 -3 -7 -3h-11c-4 0 -6 3 -4 7c11 23 19 46 19 76c-27 0 -48 21 -48 48s21 48 48 48z" />
    <glyph glyph-name="eng" unicode="&#x14b;" horiz-adv-x="513" 
d="M291 501c103 0 172 -64 172 -195v-301c0 -137 -62 -203 -162 -203c-6 0 -10 4 -11 9l-13 47c-2 6 1 11 8 11c71 0 103 48 103 141v291c0 87 -43 133 -113 133c-97 0 -150 -96 -150 -116v-303c0 -9 -6 -15 -15 -15h-45c-9 0 -15 6 -15 15v460c0 9 6 15 15 15h41
c9 0 14 -6 15 -15l4 -69c36 53 91 95 166 95z" />
    <glyph glyph-name="ntilde" unicode="&#xf1;" horiz-adv-x="513" 
d="M116 630c-6 0 -10 4 -9 12c5 49 40 74 84 74c69 0 88 -66 140 -66c25 0 37 17 42 31c2 6 5 9 11 9h16c6 0 10 -4 10 -10c-5 -51 -42 -76 -81 -76c-72 0 -91 66 -143 66c-26 0 -38 -17 -43 -31c-2 -6 -5 -9 -11 -9h-16zM291 501c103 0 172 -64 172 -195v-291
c0 -9 -6 -15 -15 -15h-45c-9 0 -15 6 -15 15v286c0 87 -43 133 -113 133c-97 0 -150 -96 -150 -116v-303c0 -9 -6 -15 -15 -15h-45c-9 0 -15 6 -15 15v460c0 9 6 15 15 15h41c9 0 14 -6 15 -15l4 -69c36 53 91 95 166 95z" />
    <glyph glyph-name="o" unicode="o" horiz-adv-x="566" 
d="M283 -13c-140 0 -248 112 -248 257s108 257 248 257s248 -112 248 -257s-108 -257 -248 -257zM283 55c99 0 176 79 176 189s-77 189 -176 189s-176 -79 -176 -189s77 -189 176 -189z" />
    <glyph glyph-name="oacute" unicode="&#xf3;" horiz-adv-x="566" 
d="M367 698c11 0 17 -6 12 -17l-60 -126c-4 -9 -9 -12 -17 -12h-33c-11 0 -17 6 -12 17l60 126c4 9 9 12 17 12h33zM283 -13c-140 0 -248 112 -248 257s108 257 248 257s248 -112 248 -257s-108 -257 -248 -257zM283 55c99 0 176 79 176 189s-77 189 -176 189
s-176 -79 -176 -189s77 -189 176 -189z" />
    <glyph glyph-name="uni01D2" unicode="&#x1d2;" horiz-adv-x="566" 
d="M306 572h-46c-7 0 -13 2 -18 8l-87 100c-8 10 -5 18 8 18h30c7 0 13 -2 18 -8l72 -83l72 83c5 6 11 8 18 8h30c13 0 16 -8 8 -18l-87 -100c-5 -6 -11 -8 -18 -8zM283 -13c-140 0 -248 112 -248 257s108 257 248 257s248 -112 248 -257s-108 -257 -248 -257zM283 55
c99 0 176 79 176 189s-77 189 -176 189s-176 -79 -176 -189s77 -189 176 -189z" />
    <glyph glyph-name="ocircumflex" unicode="&#xf4;" horiz-adv-x="566" 
d="M306 698c7 0 13 -2 18 -8l87 -100c8 -10 5 -18 -8 -18h-30c-7 0 -13 2 -18 8l-72 83l-72 -83c-5 -6 -11 -8 -18 -8h-30c-13 0 -16 8 -8 18l87 100c5 6 11 8 18 8h46zM283 -13c-140 0 -248 112 -248 257s108 257 248 257s248 -112 248 -257s-108 -257 -248 -257zM283 55
c99 0 176 79 176 189s-77 189 -176 189s-176 -79 -176 -189s77 -189 176 -189z" />
    <glyph glyph-name="odieresis" unicode="&#xf6;" horiz-adv-x="566" 
d="M192 618c-24 0 -44 20 -44 44c0 23 20 43 44 43s44 -20 44 -43c0 -24 -20 -44 -44 -44zM375 618c-24 0 -44 20 -44 44c0 23 20 43 44 43s44 -20 44 -43c0 -24 -20 -44 -44 -44zM283 -13c-140 0 -248 112 -248 257s108 257 248 257s248 -112 248 -257s-108 -257 -248 -257
zM283 55c99 0 176 79 176 189s-77 189 -176 189s-176 -79 -176 -189s77 -189 176 -189z" />
    <glyph glyph-name="ograve" unicode="&#xf2;" horiz-adv-x="566" 
d="M192 698h33c8 0 13 -3 17 -12l60 -126c5 -11 -1 -17 -12 -17h-33c-8 0 -13 3 -17 12l-60 126c-5 11 1 17 12 17zM283 -13c-140 0 -248 112 -248 257s108 257 248 257s248 -112 248 -257s-108 -257 -248 -257zM283 55c99 0 176 79 176 189s-77 189 -176 189
s-176 -79 -176 -189s77 -189 176 -189z" />
    <glyph glyph-name="ohungarumlaut" unicode="&#x151;" horiz-adv-x="566" 
d="M268 698c11 0 17 -6 12 -17l-60 -126c-4 -9 -9 -12 -17 -12h-33c-11 0 -17 6 -12 17l60 126c4 9 9 12 17 12h33zM413 698c11 0 17 -6 12 -17l-60 -126c-4 -9 -9 -12 -17 -12h-33c-11 0 -17 6 -12 17l60 126c4 9 9 12 17 12h33zM283 -13c-140 0 -248 112 -248 257
s108 257 248 257s248 -112 248 -257s-108 -257 -248 -257zM283 55c99 0 176 79 176 189s-77 189 -176 189s-176 -79 -176 -189s77 -189 176 -189z" />
    <glyph glyph-name="omacron" unicode="&#x14d;" horiz-adv-x="566" 
d="M419 698c9 0 15 -6 15 -15v-32c0 -9 -6 -15 -15 -15h-272c-9 0 -15 6 -15 15v32c0 9 6 15 15 15h272zM283 -13c-140 0 -248 112 -248 257s108 257 248 257s248 -112 248 -257s-108 -257 -248 -257zM283 55c99 0 176 79 176 189s-77 189 -176 189s-176 -79 -176 -189
s77 -189 176 -189z" />
    <glyph glyph-name="uni01EB" unicode="&#x1eb;" horiz-adv-x="566" 
d="M324 -10c-39 -19 -65 -50 -65 -84c0 -42 32 -62 86 -50v-54c-46 -21 -153 -10 -153 91c0 42 21 74 50 97c-120 20 -207 124 -207 254c0 145 108 257 248 257s248 -112 248 -257c0 -130 -87 -234 -207 -254zM107 244c0 -110 77 -189 176 -189s176 79 176 189
s-77 189 -176 189s-176 -79 -176 -189z" />
    <glyph glyph-name="oslash" unicode="&#xf8;" horiz-adv-x="566" 
d="M417 462c69 -45 114 -124 114 -218c0 -145 -108 -257 -248 -257c-27 0 -53 4 -78 12l-26 -58c-3 -7 -9 -11 -17 -11h-36c-11 0 -16 7 -11 18l35 77c-70 45 -115 125 -115 219c0 145 108 257 248 257c27 0 53 -4 78 -12l26 58c3 7 9 11 17 11h37c11 0 16 -7 11 -18z
M107 244c0 -66 28 -122 72 -155l153 337c-15 5 -32 7 -49 7c-99 0 -176 -79 -176 -189zM283 55c99 0 176 79 176 189c0 66 -28 121 -72 154l-153 -336c16 -5 32 -7 49 -7z" />
    <glyph glyph-name="otilde" unicode="&#xf5;" horiz-adv-x="566" 
d="M217 716c69 0 88 -66 140 -66c25 0 37 17 42 31c2 6 5 9 11 9h16c6 0 10 -4 10 -10c-5 -51 -42 -76 -81 -76c-72 0 -91 66 -143 66c-26 0 -38 -17 -43 -31c-2 -6 -5 -9 -11 -9h-16c-6 0 -10 4 -9 12c5 49 40 74 84 74zM283 -13c-140 0 -248 112 -248 257s108 257 248 257
s248 -112 248 -257s-108 -257 -248 -257zM283 55c99 0 176 79 176 189s-77 189 -176 189s-176 -79 -176 -189s77 -189 176 -189z" />
    <glyph glyph-name="oe" unicode="&#x153;" horiz-adv-x="964" 
d="M699 501c141 0 230 -113 230 -238c0 -34 -4 -50 -29 -50h-367c11 -93 78 -161 182 -161c61 0 102 22 134 49c7 6 13 9 21 2l19 -18c8 -8 9 -15 1 -23c-46 -48 -110 -75 -183 -75c-95 0 -171 47 -213 120c-43 -73 -120 -120 -211 -120c-140 0 -248 112 -248 257
s108 257 248 257c91 0 168 -47 211 -119c41 72 114 119 205 119zM699 435c-92 0 -157 -69 -167 -164h331c-4 92 -71 164 -164 164zM283 55c99 0 176 79 176 189s-77 189 -176 189s-176 -79 -176 -189s77 -189 176 -189z" />
    <glyph glyph-name="p" unicode="p" 
d="M298 500c140 0 240 -113 240 -256s-100 -256 -240 -256c-76 0 -134 35 -173 87v-250c0 -9 -6 -15 -15 -15h-45c-9 0 -15 6 -15 15v650c0 9 6 15 15 15h41c9 0 14 -6 15 -15l4 -63c38 53 97 88 173 88zM292 56c100 0 174 81 174 189c0 107 -74 187 -174 187
s-173 -85 -173 -187c0 -103 73 -189 173 -189z" />
    <glyph glyph-name="thorn" unicode="&#xfe;" horiz-adv-x="580" 
d="M305 500c140 0 240 -113 240 -256s-100 -256 -240 -256h-3h-4c-71 0 -128 31 -166 79v-242c0 -9 -6 -15 -15 -15h-45c-9 0 -15 6 -15 15v177c-4 2 -7 7 -7 13v700c0 9 6 15 15 15h45c9 0 15 -6 15 -15v-231c2 -2 3 -5 3 -9l3 -55c38 49 95 80 167 80h4h3zM126 245
c0 -102 71 -187 170 -189c98 2 170 82 170 189c0 106 -72 185 -170 187c-99 -2 -170 -86 -170 -187z" />
    <glyph glyph-name="q" unicode="q" 
d="M508 490c9 0 15 -6 15 -15v-650c0 -9 -6 -15 -15 -15h-45c-9 0 -15 6 -15 15v250c-39 -52 -97 -87 -173 -87c-140 0 -240 113 -240 256s100 256 240 256c76 0 135 -35 173 -88l4 63c1 9 6 15 15 15h41zM281 56c100 0 173 86 173 189c0 102 -73 187 -173 187
s-174 -80 -174 -187c0 -108 74 -189 174 -189z" />
    <glyph glyph-name="r" unicode="r" horiz-adv-x="314" 
d="M304 485c6 -4 7 -8 3 -16l-16 -35c-4 -8 -9 -9 -18 -7s-19 5 -39 5c-61 0 -109 -46 -109 -109v-308c0 -9 -6 -15 -15 -15h-45c-9 0 -15 6 -15 15v460c0 9 6 15 15 15h40c9 0 14 -6 15 -15l4 -43c27 41 68 69 121 69c24 0 45 -6 59 -16z" />
    <glyph glyph-name="racute" unicode="&#x155;" horiz-adv-x="314" 
d="M138 543c-11 0 -17 6 -12 17l60 126c4 9 9 12 17 12h33c11 0 17 -6 12 -17l-60 -126c-4 -9 -9 -12 -17 -12h-33zM304 485c6 -4 7 -8 3 -16l-16 -35c-4 -8 -9 -9 -18 -7s-19 5 -39 5c-61 0 -109 -46 -109 -109v-308c0 -9 -6 -15 -15 -15h-45c-9 0 -15 6 -15 15v460
c0 9 6 15 15 15h40c9 0 14 -6 15 -15l4 -43c27 41 68 69 121 69c24 0 45 -6 59 -16z" />
    <glyph glyph-name="rcaron" unicode="&#x159;" horiz-adv-x="314" 
d="M129 572c-7 0 -13 2 -18 8l-87 100c-8 10 -5 18 8 18h30c7 0 13 -2 18 -8l72 -83l72 83c5 6 11 8 18 8h30c13 0 16 -8 8 -18l-87 -100c-5 -6 -11 -8 -18 -8h-46zM304 485c6 -4 7 -8 3 -16l-16 -35c-4 -8 -9 -9 -18 -7s-19 5 -39 5c-61 0 -109 -46 -109 -109v-308
c0 -9 -6 -15 -15 -15h-45c-9 0 -15 6 -15 15v460c0 9 6 15 15 15h40c9 0 14 -6 15 -15l4 -43c27 41 68 69 121 69c24 0 45 -6 59 -16z" />
    <glyph glyph-name="rcommaaccent" unicode="&#x157;" horiz-adv-x="314" 
d="M304 485c6 -4 7 -8 3 -16l-16 -35c-4 -8 -9 -9 -18 -7s-19 5 -39 5c-61 0 -109 -46 -109 -109v-308c0 -9 -6 -15 -15 -15h-45c-9 0 -15 6 -15 15v460c0 9 6 15 15 15h40c9 0 14 -6 15 -15l4 -43c27 41 68 69 121 69c24 0 45 -6 59 -16zM89 -38c27 0 49 -21 49 -58
c0 -53 -26 -93 -46 -118c-2 -2 -4 -3 -7 -3h-11c-4 0 -6 3 -4 7c11 23 19 46 19 76c-27 0 -48 21 -48 48s21 48 48 48z" />
    <glyph glyph-name="s" unicode="s" horiz-adv-x="415" 
d="M115 367c0 -111 270 -69 270 -243c0 -83 -84 -137 -169 -137c-82 0 -147 41 -182 82c-6 7 -6 13 -1 19l22 27c7 9 12 7 21 -1c25 -23 76 -61 138 -61c58 0 98 26 98 72c0 117 -269 78 -269 242c0 79 70 134 158 134c52 0 116 -26 157 -74c6 -7 4 -14 -1 -21l-17 -22
c-6 -8 -14 -6 -22 1c-39 34 -70 52 -117 52c-36 0 -86 -17 -86 -70z" />
    <glyph glyph-name="sacute" unicode="&#x15b;" horiz-adv-x="415" 
d="M292 698c11 0 17 -6 12 -17l-60 -126c-4 -9 -9 -12 -17 -12h-33c-11 0 -17 6 -12 17l60 126c4 9 9 12 17 12h33zM115 367c0 -111 270 -69 270 -243c0 -83 -84 -137 -169 -137c-82 0 -147 41 -182 82c-6 7 -6 13 -1 19l22 27c7 9 12 7 21 -1c25 -23 76 -61 138 -61
c58 0 98 26 98 72c0 117 -269 78 -269 242c0 79 70 134 158 134c52 0 116 -26 157 -74c6 -7 4 -14 -1 -21l-17 -22c-6 -8 -14 -6 -22 1c-39 34 -70 52 -117 52c-36 0 -86 -17 -86 -70z" />
    <glyph glyph-name="scaron" unicode="&#x161;" horiz-adv-x="415" 
d="M231 572h-46c-7 0 -13 2 -18 8l-87 100c-8 10 -5 18 8 18h30c7 0 13 -2 18 -8l72 -83l72 83c5 6 11 8 18 8h30c13 0 16 -8 8 -18l-87 -100c-5 -6 -11 -8 -18 -8zM115 367c0 -111 270 -69 270 -243c0 -83 -84 -137 -169 -137c-82 0 -147 41 -182 82c-6 7 -6 13 -1 19
l22 27c7 9 12 7 21 -1c25 -23 76 -61 138 -61c58 0 98 26 98 72c0 117 -269 78 -269 242c0 79 70 134 158 134c52 0 116 -26 157 -74c6 -7 4 -14 -1 -21l-17 -22c-6 -8 -14 -6 -22 1c-39 34 -70 52 -117 52c-36 0 -86 -17 -86 -70z" />
    <glyph glyph-name="scedilla" unicode="&#x15f;" horiz-adv-x="415" 
d="M385 124c0 -77 -72 -129 -150 -136l-26 -27c43 -3 81 -31 81 -77c0 -82 -80 -105 -151 -95c-6 1 -9 5 -9 11v28c0 6 4 10 11 10c55 -6 89 9 89 41c0 29 -40 46 -88 29c-7 -3 -12 0 -12 7v26c0 5 2 8 5 12l36 38c-61 12 -109 45 -137 78c-6 7 -6 13 -1 19l22 27
c7 9 12 7 21 -1c25 -23 76 -61 138 -61c58 0 98 26 98 72c0 117 -269 78 -269 242c0 79 70 134 158 134c52 0 116 -26 157 -74c6 -7 4 -14 -1 -21l-17 -22c-6 -8 -14 -6 -22 1c-39 34 -70 52 -117 52c-36 0 -86 -17 -86 -70c0 -111 270 -69 270 -243z" />
    <glyph glyph-name="scommaaccent" unicode="&#x219;" horiz-adv-x="415" 
d="M115 367c0 -111 270 -69 270 -243c0 -83 -84 -137 -169 -137c-82 0 -147 41 -182 82c-6 7 -6 13 -1 19l22 27c7 9 12 7 21 -1c25 -23 76 -61 138 -61c58 0 98 26 98 72c0 117 -269 78 -269 242c0 79 70 134 158 134c52 0 116 -26 157 -74c6 -7 4 -14 -1 -21l-17 -22
c-6 -8 -14 -6 -22 1c-39 34 -70 52 -117 52c-36 0 -86 -17 -86 -70zM209 -38c27 0 49 -21 49 -58c0 -53 -26 -93 -46 -118c-2 -2 -4 -3 -7 -3h-11c-4 0 -6 3 -4 7c11 23 19 46 19 76c-27 0 -48 21 -48 48s21 48 48 48z" />
    <glyph glyph-name="germandbls" unicode="&#xdf;" horiz-adv-x="570" 
d="M380 379c103 -20 160 -86 160 -179c0 -140 -90 -200 -277 -200h-61c-9 0 -15 6 -15 15v34c0 9 6 15 15 15h61c136 0 205 33 205 138c0 94 -77 139 -204 139h-62c-9 0 -15 6 -15 15v34c0 9 6 15 15 15h62c102 0 164 43 164 126c0 67 -54 104 -153 104
c-110 0 -140 -49 -140 -115v-505c0 -9 -6 -15 -15 -15h-45c-9 0 -15 6 -15 15v505c0 107 73 180 215 180c138 0 225 -65 225 -169c0 -75 -43 -130 -120 -152z" />
    <glyph glyph-name="t" unicode="t" horiz-adv-x="305" 
d="M260 490c9 0 15 -6 15 -15v-34c0 -9 -6 -15 -15 -15h-70v-411c0 -9 -6 -15 -15 -15h-45c-9 0 -15 6 -15 15v411h-70c-9 0 -15 6 -15 15v34c0 9 6 15 15 15h70v135c0 9 6 15 15 15h45c9 0 15 -6 15 -15v-135h70z" />
    <glyph glyph-name="tbar" unicode="&#x167;" horiz-adv-x="305" 
d="M260 426h-70v-71h70c9 0 15 -6 15 -15v-34c0 -9 -6 -15 -15 -15h-70v-276c0 -9 -6 -15 -15 -15h-45c-9 0 -15 6 -15 15v276h-70c-9 0 -15 6 -15 15v34c0 9 6 15 15 15h70v71h-70c-9 0 -15 6 -15 15v34c0 9 6 15 15 15h70v135c0 9 6 15 15 15h45c9 0 15 -6 15 -15v-135h70
c9 0 15 -6 15 -15v-34c0 -9 -6 -15 -15 -15z" />
    <glyph glyph-name="tcaron" unicode="&#x165;" horiz-adv-x="354" 
d="M335 701c11 0 17 -6 12 -17l-60 -126c-4 -9 -9 -12 -17 -12h-33c-11 0 -17 6 -12 17l60 126c4 9 9 12 17 12h33zM260 490c9 0 15 -6 15 -15v-34c0 -9 -6 -15 -15 -15h-70v-411c0 -9 -6 -15 -15 -15h-45c-9 0 -15 6 -15 15v411h-70c-9 0 -15 6 -15 15v34c0 9 6 15 15 15
h70v135c0 9 6 15 15 15h45c9 0 15 -6 15 -15v-135h70z" />
    <glyph glyph-name="uni0163" unicode="&#x163;" horiz-adv-x="305" 
d="M260 490c9 0 15 -6 15 -15v-34c0 -9 -6 -15 -15 -15h-70v-411c0 -8 -4 -13 -11 -15l-30 -30c43 -3 81 -31 81 -77c0 -82 -80 -105 -151 -95c-6 1 -9 5 -9 11v28c0 6 4 10 11 10c55 -6 89 9 89 41c0 29 -40 46 -88 29c-7 -3 -12 0 -12 7v26c0 5 2 8 5 12l42 45
c-1 2 -2 5 -2 8v411h-70c-9 0 -15 6 -15 15v34c0 9 6 15 15 15h70v135c0 9 6 15 15 15h45c9 0 15 -6 15 -15v-135h70z" />
    <glyph glyph-name="uni021B" unicode="&#x21b;" horiz-adv-x="305" 
d="M260 490c9 0 15 -6 15 -15v-34c0 -9 -6 -15 -15 -15h-70v-411c0 -9 -6 -15 -15 -15h-45c-9 0 -15 6 -15 15v411h-70c-9 0 -15 6 -15 15v34c0 9 6 15 15 15h70v135c0 9 6 15 15 15h45c9 0 15 -6 15 -15v-135h70zM149 -29c27 0 49 -21 49 -58c0 -53 -26 -93 -46 -118
c-2 -2 -4 -3 -7 -3h-11c-4 0 -6 3 -4 7c11 23 19 46 19 76c-27 0 -48 21 -48 48s21 48 48 48z" />
    <glyph glyph-name="u" unicode="u" horiz-adv-x="508" 
d="M443 490c9 0 15 -6 15 -15v-460c0 -9 -6 -15 -15 -15h-41c-9 0 -14 6 -15 15l-4 60c-34 -50 -86 -88 -157 -88c-112 0 -181 66 -181 197v291c0 9 6 15 15 15h45c9 0 15 -6 15 -15v-286c0 -88 44 -136 117 -136c94 0 146 90 146 121v301c0 9 6 15 15 15h45z" />
    <glyph glyph-name="uacute" unicode="&#xfa;" horiz-adv-x="508" 
d="M238 543c-11 0 -17 6 -12 17l60 126c4 9 9 12 17 12h33c11 0 17 -6 12 -17l-60 -126c-4 -9 -9 -12 -17 -12h-33zM443 490c9 0 15 -6 15 -15v-460c0 -9 -6 -15 -15 -15h-41c-9 0 -14 6 -15 15l-4 60c-34 -50 -86 -88 -157 -88c-112 0 -181 66 -181 197v291c0 9 6 15 15 15
h45c9 0 15 -6 15 -15v-286c0 -88 44 -136 117 -136c94 0 146 90 146 121v301c0 9 6 15 15 15h45z" />
    <glyph glyph-name="ubreve" unicode="&#x16d;" horiz-adv-x="508" 
d="M252 566c-79 0 -130 52 -137 118c-1 10 4 15 14 15h22c9 0 14 -5 16 -14c8 -38 38 -67 85 -67s77 29 85 67c2 9 7 14 16 14h22c10 0 15 -5 14 -15c-7 -66 -58 -118 -137 -118zM443 490c9 0 15 -6 15 -15v-460c0 -9 -6 -15 -15 -15h-41c-9 0 -14 6 -15 15l-4 60
c-34 -50 -86 -88 -157 -88c-112 0 -181 66 -181 197v291c0 9 6 15 15 15h45c9 0 15 -6 15 -15v-286c0 -88 44 -136 117 -136c94 0 146 90 146 121v301c0 9 6 15 15 15h45z" />
    <glyph glyph-name="uni01D4" unicode="&#x1d4;" horiz-adv-x="508" 
d="M211 580l-87 100c-8 10 -5 18 8 18h30c7 0 13 -2 18 -8l72 -83l72 83c5 6 11 8 18 8h30c13 0 16 -8 8 -18l-87 -100c-5 -6 -11 -8 -18 -8h-46c-7 0 -13 2 -18 8zM443 490c9 0 15 -6 15 -15v-460c0 -9 -6 -15 -15 -15h-41c-9 0 -14 6 -15 15l-4 60
c-34 -50 -86 -88 -157 -88c-112 0 -181 66 -181 197v291c0 9 6 15 15 15h45c9 0 15 -6 15 -15v-286c0 -88 44 -136 117 -136c94 0 146 90 146 121v301c0 9 6 15 15 15h45z" />
    <glyph glyph-name="ucircumflex" unicode="&#xfb;" horiz-adv-x="508" 
d="M132 572c-13 0 -16 8 -8 18l87 100c5 6 11 8 18 8h46c7 0 13 -2 18 -8l87 -100c8 -10 5 -18 -8 -18h-30c-7 0 -13 2 -18 8l-72 83l-72 -83c-5 -6 -11 -8 -18 -8h-30zM443 490c9 0 15 -6 15 -15v-460c0 -9 -6 -15 -15 -15h-41c-9 0 -14 6 -15 15l-4 60
c-34 -50 -86 -88 -157 -88c-112 0 -181 66 -181 197v291c0 9 6 15 15 15h45c9 0 15 -6 15 -15v-286c0 -88 44 -136 117 -136c94 0 146 90 146 121v301c0 9 6 15 15 15h45z" />
    <glyph glyph-name="udieresis" unicode="&#xfc;" horiz-adv-x="508" 
d="M161 618c-24 0 -44 20 -44 44c0 23 20 43 44 43s44 -20 44 -43c0 -24 -20 -44 -44 -44zM344 618c-24 0 -44 20 -44 44c0 23 20 43 44 43s44 -20 44 -43c0 -24 -20 -44 -44 -44zM443 490c9 0 15 -6 15 -15v-460c0 -9 -6 -15 -15 -15h-41c-9 0 -14 6 -15 15l-4 60
c-34 -50 -86 -88 -157 -88c-112 0 -181 66 -181 197v291c0 9 6 15 15 15h45c9 0 15 -6 15 -15v-286c0 -88 44 -136 117 -136c94 0 146 90 146 121v301c0 9 6 15 15 15h45z" />
    <glyph glyph-name="ugrave" unicode="&#xf9;" horiz-adv-x="508" 
d="M209 555l-60 126c-5 11 1 17 12 17h33c8 0 13 -3 17 -12l60 -126c5 -11 -1 -17 -12 -17h-33c-8 0 -13 3 -17 12zM443 490c9 0 15 -6 15 -15v-460c0 -9 -6 -15 -15 -15h-41c-9 0 -14 6 -15 15l-4 60c-34 -50 -86 -88 -157 -88c-112 0 -181 66 -181 197v291c0 9 6 15 15 15
h45c9 0 15 -6 15 -15v-286c0 -88 44 -136 117 -136c94 0 146 90 146 121v301c0 9 6 15 15 15h45z" />
    <glyph glyph-name="uhungarumlaut" unicode="&#x171;" horiz-adv-x="508" 
d="M139 543c-11 0 -17 6 -12 17l60 126c4 9 9 12 17 12h33c11 0 17 -6 12 -17l-60 -126c-4 -9 -9 -12 -17 -12h-33zM284 543c-11 0 -17 6 -12 17l60 126c4 9 9 12 17 12h33c11 0 17 -6 12 -17l-60 -126c-4 -9 -9 -12 -17 -12h-33zM443 490c9 0 15 -6 15 -15v-460
c0 -9 -6 -15 -15 -15h-41c-9 0 -14 6 -15 15l-4 60c-34 -50 -86 -88 -157 -88c-112 0 -181 66 -181 197v291c0 9 6 15 15 15h45c9 0 15 -6 15 -15v-286c0 -88 44 -136 117 -136c94 0 146 90 146 121v301c0 9 6 15 15 15h45z" />
    <glyph glyph-name="umacron" unicode="&#x16b;" horiz-adv-x="508" 
d="M116 636c-9 0 -15 6 -15 15v32c0 9 6 15 15 15h272c9 0 15 -6 15 -15v-32c0 -9 -6 -15 -15 -15h-272zM443 490c9 0 15 -6 15 -15v-460c0 -9 -6 -15 -15 -15h-41c-9 0 -14 6 -15 15l-4 60c-34 -50 -86 -88 -157 -88c-112 0 -181 66 -181 197v291c0 9 6 15 15 15h45
c9 0 15 -6 15 -15v-286c0 -88 44 -136 117 -136c94 0 146 90 146 121v301c0 9 6 15 15 15h45z" />
    <glyph glyph-name="uogonek" unicode="&#x173;" horiz-adv-x="508" 
d="M443 490c9 0 15 -6 15 -15v-460c0 -7 -4 -12 -10 -14v-1c-75 0 -114 -50 -114 -91c0 -45 32 -65 86 -53v-54c-46 -21 -153 -10 -153 91c0 71 58 117 119 137l-3 45c-34 -50 -86 -88 -157 -88c-112 0 -181 66 -181 197v291c0 9 6 15 15 15h45c9 0 15 -6 15 -15v-286
c0 -88 44 -136 117 -136c94 0 146 90 146 121v301c0 9 6 15 15 15h45z" />
    <glyph glyph-name="uring" unicode="&#x16f;" horiz-adv-x="508" 
d="M253 561c-46 0 -81 36 -81 79s35 79 81 79c43 0 79 -36 79 -79s-36 -79 -79 -79zM253 667c-16 0 -28 -12 -28 -27s12 -27 28 -27c15 0 27 12 27 27s-12 27 -27 27zM443 490c9 0 15 -6 15 -15v-460c0 -9 -6 -15 -15 -15h-41c-9 0 -14 6 -15 15l-4 60
c-34 -50 -86 -88 -157 -88c-112 0 -181 66 -181 197v291c0 9 6 15 15 15h45c9 0 15 -6 15 -15v-286c0 -88 44 -136 117 -136c94 0 146 90 146 121v301c0 9 6 15 15 15h45z" />
    <glyph glyph-name="v" unicode="v" horiz-adv-x="506" 
d="M403 478c3 8 10 12 18 12h46c11 0 16 -6 12 -17l-183 -461c-3 -8 -10 -12 -18 -12h-50c-8 0 -15 4 -18 12l-183 461c-4 11 1 17 12 17h46c8 0 15 -4 18 -12l150 -393z" />
    <glyph glyph-name="w" unicode="w" horiz-adv-x="863" 
d="M824 490c11 0 16 -6 12 -17l-174 -461c-3 -8 -10 -12 -18 -12h-49c-8 0 -15 4 -18 12l-145 379l-146 -379c-3 -8 -10 -12 -18 -12h-49c-8 0 -15 4 -18 12l-174 461c-4 11 1 17 12 17h44c8 0 15 -4 18 -12l144 -395l149 395c2 5 5 9 10 10c2 1 5 2 8 2h39c3 0 6 -1 8 -2
c5 -1 8 -5 10 -10l149 -395l144 395c3 8 10 12 18 12h44z" />
    <glyph glyph-name="wacute" unicode="&#x1e83;" horiz-adv-x="863" 
d="M418 543c-11 0 -17 6 -12 17l60 126c4 9 9 12 17 12h33c11 0 17 -6 12 -17l-60 -126c-4 -9 -9 -12 -17 -12h-33zM824 490c11 0 16 -6 12 -17l-174 -461c-3 -8 -10 -12 -18 -12h-49c-8 0 -15 4 -18 12l-145 379l-146 -379c-3 -8 -10 -12 -18 -12h-49c-8 0 -15 4 -18 12
l-174 461c-4 11 1 17 12 17h44c8 0 15 -4 18 -12l144 -395l149 395c2 5 5 9 10 10c2 1 5 2 8 2h39c3 0 6 -1 8 -2c5 -1 8 -5 10 -10l149 -395l144 395c3 8 10 12 18 12h44z" />
    <glyph glyph-name="wcircumflex" unicode="&#x175;" horiz-adv-x="863" 
d="M312 572c-13 0 -16 8 -8 18l87 100c5 6 11 8 18 8h46c7 0 13 -2 18 -8l87 -100c8 -10 5 -18 -8 -18h-30c-7 0 -13 2 -18 8l-72 83l-72 -83c-5 -6 -11 -8 -18 -8h-30zM824 490c11 0 16 -6 12 -17l-174 -461c-3 -8 -10 -12 -18 -12h-49c-8 0 -15 4 -18 12l-145 379
l-146 -379c-3 -8 -10 -12 -18 -12h-49c-8 0 -15 4 -18 12l-174 461c-4 11 1 17 12 17h44c8 0 15 -4 18 -12l144 -395l149 395c2 5 5 9 10 10c2 1 5 2 8 2h39c3 0 6 -1 8 -2c5 -1 8 -5 10 -10l149 -395l144 395c3 8 10 12 18 12h44z" />
    <glyph glyph-name="wdieresis" unicode="&#x1e85;" horiz-adv-x="863" 
d="M341 618c-24 0 -44 20 -44 44c0 23 20 43 44 43s44 -20 44 -43c0 -24 -20 -44 -44 -44zM524 618c-24 0 -44 20 -44 44c0 23 20 43 44 43s44 -20 44 -43c0 -24 -20 -44 -44 -44zM824 490c11 0 16 -6 12 -17l-174 -461c-3 -8 -10 -12 -18 -12h-49c-8 0 -15 4 -18 12
l-145 379l-146 -379c-3 -8 -10 -12 -18 -12h-49c-8 0 -15 4 -18 12l-174 461c-4 11 1 17 12 17h44c8 0 15 -4 18 -12l144 -395l149 395c2 5 5 9 10 10c2 1 5 2 8 2h39c3 0 6 -1 8 -2c5 -1 8 -5 10 -10l149 -395l144 395c3 8 10 12 18 12h44z" />
    <glyph glyph-name="wgrave" unicode="&#x1e81;" horiz-adv-x="863" 
d="M389 555l-60 126c-5 11 1 17 12 17h33c8 0 13 -3 17 -12l60 -126c5 -11 -1 -17 -12 -17h-33c-8 0 -13 3 -17 12zM824 490c11 0 16 -6 12 -17l-174 -461c-3 -8 -10 -12 -18 -12h-49c-8 0 -15 4 -18 12l-145 379l-146 -379c-3 -8 -10 -12 -18 -12h-49c-8 0 -15 4 -18 12
l-174 461c-4 11 1 17 12 17h44c8 0 15 -4 18 -12l144 -395l149 395c2 5 5 9 10 10c2 1 5 2 8 2h39c3 0 6 -1 8 -2c5 -1 8 -5 10 -10l149 -395l144 395c3 8 10 12 18 12h44z" />
    <glyph glyph-name="x" unicode="x" horiz-adv-x="458" 
d="M424 18c7 -10 2 -18 -10 -18h-51c-8 0 -14 3 -18 10l-116 181l-116 -181c-5 -7 -10 -10 -18 -10h-51c-12 0 -17 8 -10 18l156 232l-149 222c-6 10 -2 18 10 18h51c8 0 13 -3 18 -10l109 -170l109 170c4 7 10 10 18 10h51c12 0 17 -8 10 -18l-150 -222z" />
    <glyph glyph-name="y" unicode="y" horiz-adv-x="507" 
d="M468 490c11 0 16 -6 12 -17l-258 -651c-3 -8 -10 -12 -18 -12h-46c-11 0 -16 6 -12 17l69 171l-188 475c-4 11 1 17 12 17h46c8 0 15 -4 18 -12l150 -393l150 393c3 8 10 12 18 12h47z" />
    <glyph glyph-name="yacute" unicode="&#xfd;" horiz-adv-x="507" 
d="M337 698c11 0 17 -6 12 -17l-60 -126c-4 -9 -9 -12 -17 -12h-33c-11 0 -17 6 -12 17l60 126c4 9 9 12 17 12h33zM468 490c11 0 16 -6 12 -17l-258 -651c-3 -8 -10 -12 -18 -12h-46c-11 0 -16 6 -12 17l69 171l-188 475c-4 11 1 17 12 17h46c8 0 15 -4 18 -12l150 -393
l150 393c3 8 10 12 18 12h47z" />
    <glyph glyph-name="ycircumflex" unicode="&#x177;" horiz-adv-x="507" 
d="M276 698c7 0 13 -2 18 -8l87 -100c8 -10 5 -18 -8 -18h-30c-7 0 -13 2 -18 8l-72 83l-72 -83c-5 -6 -11 -8 -18 -8h-30c-13 0 -16 8 -8 18l87 100c5 6 11 8 18 8h46zM468 490c11 0 16 -6 12 -17l-258 -651c-3 -8 -10 -12 -18 -12h-46c-11 0 -16 6 -12 17l69 171l-188 475
c-4 11 1 17 12 17h46c8 0 15 -4 18 -12l150 -393l150 393c3 8 10 12 18 12h47z" />
    <glyph glyph-name="ydieresis" unicode="&#xff;" horiz-adv-x="507" 
d="M162 618c-24 0 -44 20 -44 44c0 23 20 43 44 43s44 -20 44 -43c0 -24 -20 -44 -44 -44zM345 618c-24 0 -44 20 -44 44c0 23 20 43 44 43s44 -20 44 -43c0 -24 -20 -44 -44 -44zM468 490c11 0 16 -6 12 -17l-258 -651c-3 -8 -10 -12 -18 -12h-46c-11 0 -16 6 -12 17
l69 171l-188 475c-4 11 1 17 12 17h46c8 0 15 -4 18 -12l150 -393l150 393c3 8 10 12 18 12h47z" />
    <glyph glyph-name="ygrave" unicode="&#x1ef3;" horiz-adv-x="507" 
d="M162 698h33c8 0 13 -3 17 -12l60 -126c5 -11 -1 -17 -12 -17h-33c-8 0 -13 3 -17 12l-60 126c-5 11 1 17 12 17zM468 490c11 0 16 -6 12 -17l-258 -651c-3 -8 -10 -12 -18 -12h-46c-11 0 -16 6 -12 17l69 171l-188 475c-4 11 1 17 12 17h46c8 0 15 -4 18 -12l150 -393
l150 393c3 8 10 12 18 12h47z" />
    <glyph glyph-name="z" unicode="z" horiz-adv-x="455" 
d="M425 475v-38c0 -7 -2 -14 -7 -19l-300 -354h292c9 0 15 -6 15 -15v-34c0 -9 -6 -15 -15 -15h-365c-9 0 -15 6 -15 15v38c0 7 2 14 7 19l300 354h-292c-9 0 -15 6 -15 15v34c0 9 6 15 15 15h365c9 0 15 -6 15 -15z" />
    <glyph glyph-name="zacute" unicode="&#x17a;" horiz-adv-x="455" 
d="M312 698c11 0 17 -6 12 -17l-60 -126c-4 -9 -9 -12 -17 -12h-33c-11 0 -17 6 -12 17l60 126c4 9 9 12 17 12h33zM425 475v-38c0 -7 -2 -14 -7 -19l-300 -354h292c9 0 15 -6 15 -15v-34c0 -9 -6 -15 -15 -15h-365c-9 0 -15 6 -15 15v38c0 7 2 14 7 19l300 354h-292
c-9 0 -15 6 -15 15v34c0 9 6 15 15 15h365c9 0 15 -6 15 -15z" />
    <glyph glyph-name="zcaron" unicode="&#x17e;" horiz-adv-x="455" 
d="M251 572h-46c-7 0 -13 2 -18 8l-87 100c-8 10 -5 18 8 18h30c7 0 13 -2 18 -8l72 -83l72 83c5 6 11 8 18 8h30c13 0 16 -8 8 -18l-87 -100c-5 -6 -11 -8 -18 -8zM425 475v-38c0 -7 -2 -14 -7 -19l-300 -354h292c9 0 15 -6 15 -15v-34c0 -9 -6 -15 -15 -15h-365
c-9 0 -15 6 -15 15v38c0 7 2 14 7 19l300 354h-292c-9 0 -15 6 -15 15v34c0 9 6 15 15 15h365c9 0 15 -6 15 -15z" />
    <glyph glyph-name="zdotaccent" unicode="&#x17c;" horiz-adv-x="455" 
d="M228 618c-24 0 -44 20 -44 44c0 23 20 43 44 43s44 -20 44 -43c0 -24 -20 -44 -44 -44zM425 475v-38c0 -7 -2 -14 -7 -19l-300 -354h292c9 0 15 -6 15 -15v-34c0 -9 -6 -15 -15 -15h-365c-9 0 -15 6 -15 15v38c0 7 2 14 7 19l300 354h-292c-9 0 -15 6 -15 15v34
c0 9 6 15 15 15h365c9 0 15 -6 15 -15z" />
    <glyph glyph-name="f.alt" horiz-adv-x="342" 
d="M307 720c7 -4 10 -10 10 -18v-38c0 -12 -7 -16 -18 -10c-17 9 -33 16 -55 16c-53 0 -66 -26 -66 -71v-109h104c9 0 15 -6 15 -15v-34c0 -9 -6 -15 -15 -15h-104v-411c0 -9 -6 -15 -15 -15h-45c-9 0 -15 6 -15 15v411h-58c-9 0 -15 6 -15 15v34c0 9 6 15 15 15h58v113
c0 86 42 133 138 133c26 0 50 -7 66 -16z" />
    <glyph glyph-name="t.ss01" horiz-adv-x="322" 
d="M272 426h-82v-322c0 -29 15 -43 39 -43c10 0 26 0 38 2c11 2 18 -4 18 -14v-30c0 -20 -42 -26 -71 -26c-62 0 -99 31 -99 106v327h-70c-9 0 -15 6 -15 15v34c0 9 6 15 15 15h70v95c0 9 6 15 15 15h45c9 0 15 -6 15 -15v-95h82c9 0 15 -6 15 -15v-34c0 -9 -6 -15 -15 -15z
" />
    <glyph glyph-name="ordfeminine" unicode="&#xaa;" horiz-adv-x="430" 
d="M347 700h48v-359h-48l-10 49c-29 -31 -70 -49 -120 -49c-101 0 -182 81 -182 182s81 182 182 182c50 0 91 -18 120 -50zM217 397c70 0 126 56 126 126s-56 126 -126 126s-126 -56 -126 -126s56 -126 126 -126z" />
    <glyph glyph-name="ordmasculine" unicode="&#xba;" horiz-adv-x="434" 
d="M217 341c-101 0 -182 81 -182 182s81 182 182 182s182 -81 182 -182s-81 -182 -182 -182zM217 397c70 0 126 56 126 126s-56 126 -126 126s-126 -56 -126 -126s56 -126 126 -126z" />
    <glyph glyph-name="uni0410" unicode="&#x410;" horiz-adv-x="632" 
d="M605 17c4 -10 -1 -17 -12 -17h-48c-8 0 -14 3 -17 12l-55 153h-314l-55 -153c-3 -9 -9 -12 -17 -12h-48c-11 0 -16 7 -12 17l246 671c3 8 10 12 18 12h50c8 0 15 -4 18 -12zM183 234h266l-133 371z" />
    <glyph glyph-name="uni0411" unicode="&#x411;" horiz-adv-x="527" 
d="M263 434c152 0 234 -93 234 -217s-82 -217 -234 -217h-188c-9 0 -15 6 -15 15v670c0 9 6 15 15 15h346c9 0 15 -6 15 -15v-42c0 -9 -6 -15 -15 -15h-283v-194h125zM259 72c90 0 162 40 162 145s-72 145 -162 145h-121v-290h121z" />
    <glyph glyph-name="uni0412" unicode="&#x412;" horiz-adv-x="565" 
d="M389 379c92 -21 146 -90 146 -175c0 -131 -82 -204 -249 -204h-211c-9 0 -15 6 -15 15v670c0 9 6 15 15 15h213c149 0 203 -86 203 -167c0 -71 -33 -130 -102 -154zM415 528c0 69 -52 100 -134 100h-143v-220h143c83 0 134 43 134 120zM283 72c112 0 172 39 172 135
c0 79 -49 133 -172 133h-145v-268h145z" />
    <glyph glyph-name="uni0413" unicode="&#x413;" horiz-adv-x="466" 
d="M421 700c9 0 15 -6 15 -15v-42c0 -9 -6 -15 -15 -15h-283v-613c0 -9 -6 -15 -15 -15h-48c-9 0 -15 6 -15 15v670c0 9 6 15 15 15h346z" />
    <glyph glyph-name="uni0403" unicode="&#x403;" horiz-adv-x="466" 
d="M219 753c-11 0 -17 6 -12 17l60 126c4 9 9 12 17 12h33c11 0 17 -6 12 -17l-60 -126c-4 -9 -9 -12 -17 -12h-33zM421 700c9 0 15 -6 15 -15v-42c0 -9 -6 -15 -15 -15h-283v-613c0 -9 -6 -15 -15 -15h-48c-9 0 -15 6 -15 15v670c0 9 6 15 15 15h346z" />
    <glyph glyph-name="uni0490" unicode="&#x490;" horiz-adv-x="466" 
d="M421 751c9 0 15 -6 15 -15v-93c0 -9 -6 -15 -15 -15h-283v-613c0 -9 -6 -15 -15 -15h-48c-9 0 -15 6 -15 15v670c0 9 6 15 15 15h289v36c0 9 6 15 15 15h42z" />
    <glyph glyph-name="uni0414" unicode="&#x414;" horiz-adv-x="714" 
d="M669 72c9 0 15 -6 15 -15v-111c0 -9 -6 -15 -15 -15h-48c-9 0 -15 6 -15 15v54h-498v-54c0 -9 -6 -15 -15 -15h-48c-9 0 -15 6 -15 15v111c0 9 6 15 15 15h42c38 19 55 63 55 131v482c0 9 6 15 15 15h453c9 0 15 -6 15 -15v-613h44zM220 198c0 -52 -9 -94 -27 -126h354
v556h-327v-430z" />
    <glyph glyph-name="uni0415" unicode="&#x415;" horiz-adv-x="485" 
d="M420 72c9 0 15 -6 15 -15v-42c0 -9 -6 -15 -15 -15h-345c-9 0 -15 6 -15 15v670c0 9 6 15 15 15h344c9 0 15 -6 15 -15v-42c0 -9 -6 -15 -15 -15h-281v-221h264c9 0 15 -6 15 -15v-42c0 -9 -6 -15 -15 -15h-264v-263h282z" />
    <glyph glyph-name="uni0401" unicode="&#x401;" horiz-adv-x="485" 
d="M157 828c-24 0 -44 20 -44 44c0 23 20 43 44 43s44 -20 44 -43c0 -24 -20 -44 -44 -44zM340 828c-24 0 -44 20 -44 44c0 23 20 43 44 43s44 -20 44 -43c0 -24 -20 -44 -44 -44zM420 72c9 0 15 -6 15 -15v-42c0 -9 -6 -15 -15 -15h-345c-9 0 -15 6 -15 15v670
c0 9 6 15 15 15h344c9 0 15 -6 15 -15v-42c0 -9 -6 -15 -15 -15h-281v-221h264c9 0 15 -6 15 -15v-42c0 -9 -6 -15 -15 -15h-264v-263h282z" />
    <glyph glyph-name="uni0416" unicode="&#x416;" horiz-adv-x="953" 
d="M924 18c7 -10 3 -18 -9 -18h-59c-8 0 -13 2 -18 9l-255 341l-68 -75v-260c0 -9 -6 -15 -15 -15h-48c-9 0 -15 6 -15 15v260l-68 75l-255 -341c-5 -7 -10 -9 -18 -9h-59c-12 0 -16 8 -9 18l291 387l-251 277c-9 9 -5 18 8 18h63c7 0 13 -2 18 -8l280 -312v305
c0 9 6 15 15 15h48c9 0 15 -6 15 -15v-305l280 312c5 6 11 8 18 8h63c13 0 17 -9 8 -18l-251 -277z" />
    <glyph glyph-name="uni0417" unicode="&#x417;" horiz-adv-x="510" 
d="M346 378c69 -26 129 -88 129 -177c0 -121 -100 -209 -234 -209c-88 0 -156 34 -202 87c-6 7 -5 15 1 21l30 29c7 7 14 8 22 0c28 -28 69 -61 149 -61c88 0 155 50 155 133c0 86 -75 136 -177 138c-10 0 -15 6 -15 15v42c0 9 5 16 15 16c100 2 151 57 151 115
c0 67 -62 105 -126 105c-61 0 -102 -29 -133 -58c-8 -7 -15 -7 -22 0l-28 27c-6 6 -7 14 -1 21c45 53 109 86 185 86c106 0 202 -76 202 -179c0 -65 -44 -121 -101 -151z" />
    <glyph glyph-name="uni0418" unicode="&#x418;" horiz-adv-x="636" 
d="M564 700c7 -1 12 -7 12 -15v-670c0 -9 -6 -15 -15 -15h-48c-9 0 -15 6 -15 15v573l-341 -578c-4 -7 -10 -10 -18 -10h-67c-7 1 -12 7 -12 15v670c0 9 6 15 15 15h48c9 0 15 -6 15 -15v-573l341 578c4 7 10 10 18 10h67z" />
    <glyph glyph-name="uni0419" unicode="&#x419;" horiz-adv-x="636" 
d="M318 776c-79 0 -130 52 -137 118c-1 10 4 15 14 15h22c9 0 14 -5 16 -14c8 -38 38 -67 85 -67s77 29 85 67c2 9 7 14 16 14h22c10 0 15 -5 14 -15c-7 -66 -58 -118 -137 -118zM564 700c7 -1 12 -7 12 -15v-670c0 -9 -6 -15 -15 -15h-48c-9 0 -15 6 -15 15v573l-341 -578
c-4 -7 -10 -10 -18 -10h-67c-7 1 -12 7 -12 15v670c0 9 6 15 15 15h48c9 0 15 -6 15 -15v-573l341 578c4 7 10 10 18 10h67z" />
    <glyph glyph-name="uni041A" unicode="&#x41a;" horiz-adv-x="576" 
d="M547 18c7 -10 3 -18 -9 -18h-59c-8 0 -13 2 -18 9l-255 341l-68 -75v-260c0 -9 -6 -15 -15 -15h-48c-9 0 -15 6 -15 15v670c0 9 6 15 15 15h48c9 0 15 -6 15 -15v-305l280 312c5 6 11 8 18 8h63c13 0 17 -9 8 -18l-251 -277z" />
    <glyph glyph-name="uni041B" unicode="&#x41b;" horiz-adv-x="665" 
d="M590 700c9 0 15 -6 15 -15v-670c0 -9 -6 -15 -15 -15h-48c-9 0 -15 6 -15 15v613h-327v-430c0 -137 -65 -203 -165 -203c-6 0 -9 4 -11 9l-13 47c-1 6 1 11 8 11c71 0 103 48 103 141v482c0 9 6 15 15 15h453z" />
    <glyph glyph-name="uni041C" unicode="&#x41c;" horiz-adv-x="823" 
d="M748 700c9 0 15 -6 15 -15v-670c0 -9 -6 -15 -15 -15h-48c-9 0 -15 6 -15 15v544l-233 -548c-3 -8 -9 -11 -17 -11h-49c-8 0 -14 3 -17 11l-231 543v-539c0 -9 -6 -15 -15 -15h-48c-9 0 -15 6 -15 15v670c0 9 6 15 15 15h64c8 0 15 -3 18 -10l254 -603l253 603
c3 7 10 10 18 10h66z" />
    <glyph glyph-name="uni041D" unicode="&#x41d;" horiz-adv-x="603" 
d="M528 700c9 0 15 -6 15 -15v-670c0 -9 -6 -15 -15 -15h-48c-9 0 -15 6 -15 15v297h-327v-297c0 -9 -6 -15 -15 -15h-48c-9 0 -15 6 -15 15v670c0 9 6 15 15 15h48c9 0 15 -6 15 -15v-301h327v301c0 9 6 15 15 15h48z" />
    <glyph glyph-name="uni041E" unicode="&#x41e;" horiz-adv-x="795" 
d="M398 -13c-198 0 -358 160 -358 360c0 201 160 361 358 361c197 0 357 -160 357 -361c0 -200 -160 -360 -357 -360zM398 60c157 0 281 127 281 287c0 161 -124 288 -281 288c-158 0 -282 -127 -282 -288c0 -160 124 -287 282 -287z" />
    <glyph glyph-name="uni041F" unicode="&#x41f;" horiz-adv-x="603" 
d="M528 700c9 0 15 -6 15 -15v-670c0 -9 -6 -15 -15 -15h-48c-9 0 -15 6 -15 15v613h-327v-613c0 -9 -6 -15 -15 -15h-48c-9 0 -15 6 -15 15v670c0 9 6 15 15 15h453z" />
    <glyph glyph-name="uni0420" unicode="&#x420;" horiz-adv-x="527" 
d="M263 700c152 0 234 -93 234 -217s-82 -217 -234 -217h-125v-251c0 -9 -6 -15 -15 -15h-48c-9 0 -15 6 -15 15v670c0 9 6 15 15 15h188zM259 338c90 0 162 40 162 145s-72 145 -162 145h-121v-290h121z" />
    <glyph glyph-name="uni0421" unicode="&#x421;" horiz-adv-x="669" 
d="M598 134l31 -31c7 -7 6 -15 -1 -21c-64 -55 -143 -95 -236 -95c-198 0 -352 160 -352 360c0 201 154 361 352 361c93 0 172 -40 236 -95c7 -6 8 -14 1 -21l-31 -31c-7 -7 -14 -6 -21 0c-51 43 -111 71 -185 71c-150 0 -273 -122 -273 -285c0 -162 123 -284 273 -284
c74 0 134 28 185 71c7 6 14 7 21 0z" />
    <glyph glyph-name="uni0422" unicode="&#x422;" horiz-adv-x="506" 
d="M451 700c9 0 15 -6 15 -15v-42c0 -9 -6 -15 -15 -15h-159v-613c0 -9 -6 -15 -15 -15h-48c-9 0 -15 6 -15 15v613h-159c-9 0 -15 6 -15 15v42c0 9 6 15 15 15h396z" />
    <glyph glyph-name="uni0423" unicode="&#x423;" horiz-adv-x="621" 
d="M573 700c12 0 16 -8 10 -18l-406 -672c-4 -7 -10 -10 -18 -10h-51c-12 0 -16 7 -10 18l170 282l-230 382c-6 10 -2 18 10 18h51c8 0 14 -3 18 -10l193 -321l194 321c4 7 10 10 18 10h51z" />
    <glyph glyph-name="uni0424" unicode="&#x424;" horiz-adv-x="826" 
d="M455 640c223 0 336 -142 336 -290s-113 -290 -336 -290h-3v-45c0 -9 -6 -15 -15 -15h-48c-9 0 -15 6 -15 15v45h-3c-223 0 -336 142 -336 290s113 290 336 290h3v45c0 9 6 15 15 15h48c9 0 15 -6 15 -15v-45h3zM371 132h3v436h-3c-172 0 -257 -96 -257 -218
s85 -218 257 -218zM455 132c172 0 257 96 257 218s-85 218 -257 218h-3v-436h3z" />
    <glyph glyph-name="uni0425" unicode="&#x425;" horiz-adv-x="588" 
d="M550 18c6 -10 2 -18 -10 -18h-51c-8 0 -14 3 -18 10l-177 281l-177 -281c-4 -7 -10 -10 -18 -10h-51c-12 0 -16 8 -10 18l214 340l-204 324c-6 10 -2 18 10 18h51c8 0 14 -3 18 -10l167 -265l167 265c4 7 10 10 18 10h51c12 0 16 -8 10 -18l-204 -324z" />
    <glyph glyph-name="uni0427" unicode="&#x427;" horiz-adv-x="565" 
d="M490 700c9 0 15 -6 15 -15v-670c0 -9 -6 -15 -15 -15h-48c-9 0 -15 6 -15 15v292c-41 -55 -108 -99 -204 -99c-108 0 -193 73 -193 204v273c0 9 6 15 15 15h48c9 0 15 -6 15 -15v-268c0 -87 55 -136 138 -136c115 0 181 86 181 106v298c0 9 6 15 15 15h48z" />
    <glyph glyph-name="uni0426" unicode="&#x426;" horiz-adv-x="631" 
d="M586 72c9 0 15 -6 15 -15v-111c0 -9 -6 -15 -15 -15h-48c-9 0 -15 6 -15 15v54h-448c-9 0 -15 6 -15 15v670c0 9 6 15 15 15h48c9 0 15 -6 15 -15v-613h327v613c0 9 6 15 15 15h48c9 0 15 -6 15 -15v-613h43z" />
    <glyph glyph-name="uni0428" unicode="&#x428;" horiz-adv-x="1008" 
d="M933 700c9 0 15 -6 15 -15v-670c0 -9 -6 -15 -15 -15h-858c-9 0 -15 6 -15 15v670c0 9 6 15 15 15h48c9 0 15 -6 15 -15v-613h327v613c0 9 6 15 15 15h48c9 0 15 -6 15 -15v-613h327v613c0 9 6 15 15 15h48z" />
    <glyph glyph-name="uni0429" unicode="&#x429;" horiz-adv-x="1036" 
d="M991 72c9 0 15 -6 15 -15v-111c0 -9 -6 -15 -15 -15h-48c-9 0 -15 6 -15 15v54h-853c-9 0 -15 6 -15 15v670c0 9 6 15 15 15h48c9 0 15 -6 15 -15v-613h327v613c0 9 6 15 15 15h48c9 0 15 -6 15 -15v-613h327v613c0 9 6 15 15 15h48c9 0 15 -6 15 -15v-613h43z" />
    <glyph glyph-name="uni042C" unicode="&#x42c;" horiz-adv-x="527" 
d="M263 0h-188c-9 0 -15 6 -15 15v670c0 9 6 15 15 15h48c9 0 15 -6 15 -15v-251h125c152 0 234 -93 234 -217s-82 -217 -234 -217zM259 362h-121v-290h121c90 0 162 40 162 145s-72 145 -162 145z" />
    <glyph glyph-name="uni042A" unicode="&#x42a;" horiz-adv-x="598" 
d="M334 434c152 0 234 -93 234 -217s-82 -217 -234 -217h-188c-9 0 -15 6 -15 15v613h-101c-9 0 -15 6 -15 15v42c0 9 6 15 15 15h164c9 0 15 -6 15 -15v-251h125zM330 72c90 0 162 40 162 145s-72 145 -162 145h-121v-290h121z" />
    <glyph glyph-name="uni042B" unicode="&#x42b;" horiz-adv-x="766" 
d="M263 0h-188c-9 0 -15 6 -15 15v670c0 9 6 15 15 15h48c9 0 15 -6 15 -15v-251h125c152 0 234 -93 234 -217s-82 -217 -234 -217zM628 685c0 9 6 15 15 15h48c9 0 15 -6 15 -15v-670c0 -9 -6 -15 -15 -15h-48c-9 0 -15 6 -15 15v670zM259 362h-121v-290h121
c90 0 162 40 162 145s-72 145 -162 145z" />
    <glyph glyph-name="uni0404" unicode="&#x404;" horiz-adv-x="669" 
d="M598 134l31 -31c7 -7 6 -15 -1 -21c-64 -55 -143 -95 -236 -95c-198 0 -352 160 -352 360c0 201 154 361 352 361c93 0 172 -40 236 -95c7 -6 8 -14 1 -21l-31 -31c-7 -7 -14 -6 -21 0c-51 43 -111 71 -185 71c-138 0 -253 -103 -271 -246h272c9 0 15 -6 15 -15v-42
c0 -9 -6 -15 -15 -15h-272c15 -145 131 -251 271 -251c74 0 134 28 185 71c7 6 14 7 21 0z" />
    <glyph glyph-name="uni042D" unicode="&#x42d;" horiz-adv-x="669" 
d="M282 708c198 0 352 -160 352 -361c0 -200 -154 -360 -352 -360c-93 0 -172 40 -236 95c-7 6 -8 14 -1 21l31 31c7 7 14 6 21 0c51 -43 111 -71 185 -71c140 0 256 106 271 251h-272c-9 0 -15 6 -15 15v42c0 9 6 15 15 15h272c-18 143 -133 246 -271 246
c-74 0 -134 -28 -185 -71c-7 -6 -14 -7 -21 0l-31 31c-7 7 -6 15 1 21c64 55 143 95 236 95z" />
    <glyph glyph-name="uni0406" unicode="&#x406;" horiz-adv-x="198" 
d="M60 685c0 9 6 15 15 15h48c9 0 15 -6 15 -15v-670c0 -9 -6 -15 -15 -15h-48c-9 0 -15 6 -15 15v670z" />
    <glyph glyph-name="uni0407" unicode="&#x407;" horiz-adv-x="198" 
d="M8 828c-24 0 -44 20 -44 44c0 23 20 43 44 43s44 -20 44 -43c0 -24 -20 -44 -44 -44zM191 828c-24 0 -44 20 -44 44c0 23 20 43 44 43s44 -20 44 -43c0 -24 -20 -44 -44 -44zM60 685c0 9 6 15 15 15h48c9 0 15 -6 15 -15v-670c0 -9 -6 -15 -15 -15h-48c-9 0 -15 6 -15 15
v670z" />
    <glyph glyph-name="uni042E" unicode="&#x42e;" horiz-adv-x="981" 
d="M584 708c197 0 357 -160 357 -361c0 -200 -160 -360 -357 -360c-187 0 -340 143 -357 327h-89v-299c0 -9 -6 -15 -15 -15h-48c-9 0 -15 6 -15 15v670c0 9 6 15 15 15h48c9 0 15 -6 15 -15v-299h90c19 182 171 322 356 322zM584 60c157 0 281 127 281 287
c0 161 -124 288 -281 288c-158 0 -282 -127 -282 -288c0 -160 124 -287 282 -287z" />
    <glyph glyph-name="uni042F" unicode="&#x42f;" horiz-adv-x="543" 
d="M468 700c9 0 15 -6 15 -15v-670c0 -9 -6 -15 -15 -15h-48c-9 0 -15 6 -15 15v251h-111l-170 -256c-4 -7 -10 -10 -18 -10h-53c-12 0 -17 7 -10 18l172 254c-110 23 -169 106 -169 211c0 124 82 217 234 217h188zM405 338v290h-121c-90 0 -162 -40 -162 -145
s72 -145 162 -145h121z" />
    <glyph glyph-name="uni0430" unicode="&#x430;" 
d="M508 490c9 0 15 -6 15 -15v-460c0 -9 -6 -15 -15 -15h-41c-9 0 -14 6 -15 15l-4 60c-39 -52 -97 -87 -173 -87c-140 0 -240 113 -240 256s100 256 240 256c76 0 135 -35 173 -88l4 63c1 9 6 15 15 15h41zM281 56c100 0 173 86 173 189c0 102 -73 187 -173 187
s-174 -80 -174 -187c0 -108 74 -189 174 -189z" />
    <glyph glyph-name="uni0431" unicode="&#x431;" 
d="M298 500c140 0 240 -113 240 -256s-100 -256 -240 -256c-76 0 -134 35 -173 87l-4 -60c-1 -9 -6 -15 -15 -15h-41c-9 0 -15 6 -15 15v510c0 120 44 175 162 175h129c46 0 60 9 73 20h71c-13 -74 -64 -88 -143 -88h-117c-70 0 -97 -30 -97 -100v-116c38 51 96 84 170 84z
M292 56c100 0 174 81 174 189c0 107 -74 187 -174 187s-173 -85 -173 -187c0 -103 73 -189 173 -189z" />
    <glyph glyph-name="uni0432" unicode="&#x432;" horiz-adv-x="515" 
d="M366 265c78 -12 119 -67 119 -124c0 -84 -60 -141 -210 -141h-210c-9 0 -15 6 -15 15v460c0 9 6 15 15 15h210c114 0 170 -51 170 -119c0 -53 -30 -90 -79 -106zM375 361c0 34 -14 65 -100 65h-150v-133h140c86 0 110 29 110 68zM275 64c113 0 139 40 139 81
c0 42 -26 88 -149 88h-140v-169h150z" />
    <glyph glyph-name="uni0433" unicode="&#x433;" horiz-adv-x="400" 
d="M355 490c9 0 15 -6 15 -15v-34c0 -9 -6 -15 -15 -15h-230v-411c0 -9 -6 -15 -15 -15h-45c-9 0 -15 6 -15 15v460c0 9 6 15 15 15h290z" />
    <glyph glyph-name="uni0453" unicode="&#x453;" horiz-adv-x="400" 
d="M184 543c-11 0 -17 6 -12 17l60 126c4 9 9 12 17 12h33c11 0 17 -6 12 -17l-60 -126c-4 -9 -9 -12 -17 -12h-33zM355 490c9 0 15 -6 15 -15v-34c0 -9 -6 -15 -15 -15h-230v-411c0 -9 -6 -15 -15 -15h-45c-9 0 -15 6 -15 15v460c0 9 6 15 15 15h290z" />
    <glyph glyph-name="uni0491" unicode="&#x491;" horiz-adv-x="400" 
d="M355 552c9 0 15 -6 15 -15v-96c0 -9 -6 -15 -15 -15h-230v-411c0 -9 -6 -15 -15 -15h-45c-9 0 -15 6 -15 15v460c0 9 6 15 15 15h230v47c0 9 6 15 15 15h45z" />
    <glyph glyph-name="uni0434" unicode="&#x434;" horiz-adv-x="658" 
d="M613 64c9 0 15 -6 15 -15v-103c0 -9 -6 -15 -15 -15h-45c-9 0 -15 6 -15 15v54h-448v-54c0 -9 -6 -15 -15 -15h-45c-9 0 -15 6 -15 15v106c0 9 3 12 12 12h21c54 10 79 57 79 139v272c0 9 6 15 15 15h395c9 0 15 -6 15 -15v-411h46zM217 426v-228
c0 -57 -11 -101 -30 -134h305v362h-275z" />
    <glyph glyph-name="uni0435" unicode="&#x435;" horiz-adv-x="540" 
d="M275 501c141 0 230 -113 230 -238c0 -34 -4 -50 -29 -50h-367c11 -93 78 -161 182 -161c61 0 102 22 134 49c7 6 13 9 21 2l19 -18c8 -8 9 -15 1 -23c-46 -48 -110 -75 -183 -75c-146 0 -248 113 -248 257s99 257 240 257zM275 435c-92 0 -157 -69 -167 -164h331
c-4 92 -71 164 -164 164z" />
    <glyph glyph-name="uni0451" unicode="&#x451;" horiz-adv-x="540" 
d="M207 648c-24 0 -44 20 -44 44c0 23 20 43 44 43s44 -20 44 -43c0 -24 -20 -44 -44 -44zM390 648c-24 0 -44 20 -44 44c0 23 20 43 44 43s44 -20 44 -43c0 -24 -20 -44 -44 -44zM275 501c141 0 230 -113 230 -238c0 -34 -4 -50 -29 -50h-367c11 -93 78 -161 182 -161
c61 0 102 22 134 49c7 6 13 9 21 2l19 -18c8 -8 9 -15 1 -23c-46 -48 -110 -75 -183 -75c-146 0 -248 113 -248 257s99 257 240 257zM275 435c-92 0 -157 -69 -167 -164h331c-4 92 -71 164 -164 164z" />
    <glyph glyph-name="uni0436" unicode="&#x436;" horiz-adv-x="832" 
d="M802 18c8 -10 5 -18 -8 -18h-59c-7 0 -13 2 -18 8l-193 225l-71 -71v-147c0 -9 -6 -15 -15 -15h-45c-9 0 -15 6 -15 15v147l-71 71l-193 -225c-5 -6 -11 -8 -18 -8h-59c-13 0 -16 8 -8 18l228 265l-190 189c-10 10 -6 18 7 18h59c7 0 13 -2 19 -8l226 -225v218
c0 9 6 15 15 15h45c9 0 15 -6 15 -15v-218l226 225c6 6 12 8 19 8h59c13 0 17 -8 7 -18l-190 -189z" />
    <glyph glyph-name="uni0437" unicode="&#x437;" horiz-adv-x="399" 
d="M281 264c51 -25 83 -69 83 -121c0 -86 -70 -151 -174 -151c-61 0 -116 22 -149 63c-8 10 -9 18 2 28l19 18c8 8 17 6 27 -4c18 -18 49 -40 101 -40c62 0 104 38 104 87c0 51 -49 86 -119 86c-14 0 -24 9 -24 21v17c0 14 10 23 24 23c58 0 100 31 100 74
c0 39 -36 66 -83 66c-35 0 -66 -14 -92 -37c-9 -8 -20 -11 -30 -1l-15 15c-9 9 -9 17 0 27c35 39 81 61 137 61c89 0 153 -57 153 -131c0 -40 -25 -76 -64 -101z" />
    <glyph glyph-name="uni0438" unicode="&#x438;" horiz-adv-x="550" 
d="M485 490c9 0 15 -6 15 -15v-460c0 -9 -6 -15 -15 -15h-45c-9 0 -15 6 -15 15v387l-268 -392c-4 -6 -11 -10 -19 -10h-73c-9 0 -15 6 -15 15v460c0 9 6 15 15 15h45c9 0 15 -6 15 -15v-395l273 400c4 6 11 10 19 10h68z" />
    <glyph glyph-name="uni0439" unicode="&#x439;" horiz-adv-x="550" 
d="M278 566c-79 0 -130 52 -137 118c-1 10 4 15 14 15h22c9 0 14 -5 16 -14c8 -38 38 -67 85 -67s77 29 85 67c2 9 7 14 16 14h22c10 0 15 -5 14 -15c-7 -66 -58 -118 -137 -118zM485 490c9 0 15 -6 15 -15v-460c0 -9 -6 -15 -15 -15h-45c-9 0 -15 6 -15 15v387l-268 -392
c-4 -6 -11 -10 -19 -10h-73c-9 0 -15 6 -15 15v460c0 9 6 15 15 15h45c9 0 15 -6 15 -15v-395l273 400c4 6 11 10 19 10h68z" />
    <glyph glyph-name="uni043A" unicode="&#x43a;" horiz-adv-x="504" 
d="M474 18c8 -10 5 -18 -8 -18h-59c-7 0 -13 2 -18 8l-193 225l-71 -71v-147c0 -9 -6 -15 -15 -15h-45c-9 0 -15 6 -15 15v460c0 9 6 15 15 15h45c9 0 15 -6 15 -15v-218l226 225c6 6 12 8 19 8h59c13 0 17 -8 7 -18l-190 -189z" />
    <glyph glyph-name="uni043B" unicode="&#x43b;" horiz-adv-x="592" 
d="M527 490c9 0 15 -6 15 -15v-460c0 -9 -6 -15 -15 -15h-45c-9 0 -15 6 -15 15v411h-275v-228c0 -137 -62 -203 -162 -203c-6 0 -10 4 -11 9l-13 47c-2 6 1 11 8 11c71 0 103 48 103 141v272c0 9 6 15 15 15h395z" />
    <glyph glyph-name="uni043C" unicode="&#x43c;" horiz-adv-x="689" 
d="M624 490c9 0 15 -6 15 -15v-460c0 -9 -6 -15 -15 -15h-45c-9 0 -15 6 -15 15v353l-175 -357c-4 -7 -9 -11 -17 -11h-56c-8 0 -13 4 -17 11l-174 356v-352c0 -9 -6 -15 -15 -15h-45c-9 0 -15 6 -15 15v460c0 9 6 15 15 15h68c8 0 13 -4 17 -11l194 -397l195 397
c4 7 9 11 17 11h68z" />
    <glyph glyph-name="uni043D" unicode="&#x43d;" horiz-adv-x="545" 
d="M480 490c9 0 15 -6 15 -15v-460c0 -9 -6 -15 -15 -15h-45c-9 0 -15 6 -15 15v198h-295v-198c0 -9 -6 -15 -15 -15h-45c-9 0 -15 6 -15 15v460c0 9 6 15 15 15h45c9 0 15 -6 15 -15v-198h295v198c0 9 6 15 15 15h45z" />
    <glyph glyph-name="uni043E" unicode="&#x43e;" horiz-adv-x="566" 
d="M283 -13c-140 0 -248 112 -248 257s108 257 248 257s248 -112 248 -257s-108 -257 -248 -257zM283 55c99 0 176 79 176 189s-77 189 -176 189s-176 -79 -176 -189s77 -189 176 -189z" />
    <glyph glyph-name="uni043F" unicode="&#x43f;" horiz-adv-x="545" 
d="M480 490c9 0 15 -6 15 -15v-460c0 -9 -6 -15 -15 -15h-45c-9 0 -15 6 -15 15v411h-295v-411c0 -9 -6 -15 -15 -15h-45c-9 0 -15 6 -15 15v460c0 9 6 15 15 15h415z" />
    <glyph glyph-name="uni0440" unicode="&#x440;" 
d="M298 500c140 0 240 -113 240 -256s-100 -256 -240 -256c-76 0 -134 35 -173 87v-250c0 -9 -6 -15 -15 -15h-45c-9 0 -15 6 -15 15v650c0 9 6 15 15 15h41c9 0 14 -6 15 -15l4 -63c38 53 97 88 173 88zM292 56c100 0 174 81 174 189c0 107 -74 187 -174 187
s-173 -85 -173 -187c0 -103 73 -189 173 -189z" />
    <glyph glyph-name="uni0441" unicode="&#x441;" horiz-adv-x="505" 
d="M281 55c79 0 114 35 142 63c8 8 15 7 22 0l25 -23c6 -6 7 -14 1 -21c-46 -53 -111 -87 -190 -87c-141 0 -246 113 -246 257s105 257 246 257c77 0 141 -34 187 -87c6 -7 5 -15 -1 -21l-25 -23c-7 -7 -14 -7 -22 0c-29 26 -62 63 -139 63c-102 0 -174 -81 -174 -189
s72 -189 174 -189z" />
    <glyph glyph-name="uni0442" unicode="&#x442;" horiz-adv-x="433" 
d="M383 490c9 0 15 -6 15 -15v-34c0 -9 -6 -15 -15 -15h-129v-411c0 -9 -6 -15 -15 -15h-45c-9 0 -15 6 -15 15v411h-129c-9 0 -15 6 -15 15v34c0 9 6 15 15 15h333z" />
    <glyph glyph-name="uni0443" unicode="&#x443;" horiz-adv-x="507" 
d="M468 490c11 0 16 -6 12 -17l-258 -651c-3 -8 -10 -12 -18 -12h-46c-11 0 -16 6 -12 17l69 171l-188 475c-4 11 1 17 12 17h46c8 0 15 -4 18 -12l150 -393l150 393c3 8 10 12 18 12h47z" />
    <glyph glyph-name="uni0444" unicode="&#x444;" horiz-adv-x="971" 
d="M696 500c140 0 240 -113 240 -256s-100 -256 -240 -256c-76 0 -134 35 -173 87v-250c0 -9 -6 -15 -15 -15h-45c-9 0 -15 6 -15 15v251c-38 -53 -97 -88 -173 -88c-140 0 -240 113 -240 256s100 256 240 256c76 0 134 -35 173 -87v250c0 9 6 15 15 15h45c9 0 15 -6 15 -15
v-251c38 53 97 88 173 88zM281 56c83 0 148 59 167 137v100c-19 80 -84 139 -167 139c-100 0 -174 -81 -174 -189c0 -107 74 -187 174 -187zM690 56c100 0 174 81 174 189c0 107 -74 187 -174 187c-83 0 -148 -59 -167 -137v-100c19 -80 84 -139 167 -139z" />
    <glyph glyph-name="uni0445" unicode="&#x445;" horiz-adv-x="458" 
d="M424 18c7 -10 2 -18 -10 -18h-51c-8 0 -14 3 -18 10l-116 181l-116 -181c-5 -7 -10 -10 -18 -10h-51c-12 0 -17 8 -10 18l156 232l-149 222c-6 10 -2 18 10 18h51c8 0 13 -3 18 -10l109 -170l109 170c4 7 10 10 18 10h51c12 0 17 -8 10 -18l-150 -222z" />
    <glyph glyph-name="uni0447" unicode="&#x447;" horiz-adv-x="530" 
d="M465 490c9 0 15 -6 15 -15v-460c0 -9 -6 -15 -15 -15h-45c-9 0 -15 6 -15 15v200c-30 -38 -95 -88 -187 -88c-79 0 -183 37 -183 185v163c0 9 6 15 15 15h45c9 0 15 -6 15 -15v-159c0 -91 50 -122 123 -122c81 0 140 51 172 97v184c0 9 6 15 15 15h45z" />
    <glyph glyph-name="uni0446" unicode="&#x446;" horiz-adv-x="569" 
d="M524 64c9 0 15 -6 15 -15v-103c0 -9 -6 -15 -15 -15h-45c-9 0 -15 6 -15 15v54h-399c-9 0 -15 6 -15 15v460c0 9 6 15 15 15h45c9 0 15 -6 15 -15v-411h295v411c0 9 6 15 15 15h45c9 0 15 -6 15 -15v-411h29z" />
    <glyph glyph-name="uni0448" unicode="&#x448;" horiz-adv-x="665" 
d="M600 490c9 0 15 -6 15 -15v-460c0 -9 -6 -15 -15 -15h-535c-9 0 -15 6 -15 15v460c0 9 6 15 15 15h45c9 0 15 -6 15 -15v-411h170v411c0 9 6 15 15 15h45c9 0 15 -6 15 -15v-411h170v411c0 9 6 15 15 15h45z" />
    <glyph glyph-name="uni0449" unicode="&#x449;" horiz-adv-x="694" 
d="M649 64c9 0 15 -6 15 -15v-103c0 -9 -6 -15 -15 -15h-45c-9 0 -15 6 -15 15v54h-524c-9 0 -15 6 -15 15v460c0 9 6 15 15 15h45c9 0 15 -6 15 -15v-411h170v411c0 9 6 15 15 15h45c9 0 15 -6 15 -15v-411h170v411c0 9 6 15 15 15h45c9 0 15 -6 15 -15v-411h34z" />
    <glyph glyph-name="uni044C" unicode="&#x44c;" horiz-adv-x="525" 
d="M288 326c137 0 207 -64 207 -163s-70 -163 -207 -163h-223c-9 0 -15 6 -15 15v460c0 9 6 15 15 15h45c9 0 15 -6 15 -15v-149h163zM290 65c93 0 133 36 133 98s-40 98 -133 98h-165v-196h165z" />
    <glyph glyph-name="uni044A" unicode="&#x44a;" horiz-adv-x="549" 
d="M312 326c137 0 207 -64 207 -163s-70 -163 -207 -163h-223c-9 0 -15 6 -15 15v411h-39c-9 0 -15 6 -15 15v34c0 9 6 15 15 15h99c9 0 15 -6 15 -15v-149h163zM314 65c93 0 133 36 133 98s-40 98 -133 98h-165v-196h165z" />
    <glyph glyph-name="uni044B" unicode="&#x44b;" horiz-adv-x="716" 
d="M288 326c137 0 207 -64 207 -163s-70 -163 -207 -163h-223c-9 0 -15 6 -15 15v460c0 9 6 15 15 15h45c9 0 15 -6 15 -15v-149h163zM651 490c9 0 15 -6 15 -15v-460c0 -9 -6 -15 -15 -15h-45c-9 0 -15 6 -15 15v460c0 9 6 15 15 15h45zM290 65c93 0 133 36 133 98
s-40 98 -133 98h-165v-196h165z" />
    <glyph glyph-name="uni0454" unicode="&#x454;" horiz-adv-x="505" 
d="M470 95c6 -6 7 -14 1 -21c-46 -53 -111 -87 -190 -87c-141 0 -246 113 -246 257s105 257 246 257c77 0 141 -34 187 -87c6 -7 5 -15 -1 -21l-25 -23c-7 -7 -14 -7 -22 0c-29 26 -62 63 -139 63c-92 0 -160 -66 -172 -159h192c9 0 15 -6 15 -15v-30c0 -9 -6 -15 -15 -15
h-192c12 -93 80 -159 172 -159c79 0 114 35 142 63c8 8 15 7 22 0z" />
    <glyph glyph-name="uni044D" unicode="&#x44d;" horiz-adv-x="505" 
d="M229 501c141 0 246 -113 246 -257s-105 -257 -246 -257c-79 0 -144 34 -190 87c-6 7 -5 15 1 21l25 23c7 7 14 8 22 0c28 -28 63 -63 142 -63c92 0 160 66 172 159h-192c-9 0 -15 6 -15 15v30c0 9 6 15 15 15h192c-12 93 -80 159 -172 159c-77 0 -110 -37 -139 -63
c-8 -7 -15 -7 -22 0l-25 23c-6 6 -7 14 -1 21c46 53 110 87 187 87z" />
    <glyph glyph-name="uni0457" unicode="&#x457;" horiz-adv-x="175" 
d="M-3 618c-24 0 -44 20 -44 44c0 23 20 43 44 43s44 -20 44 -43c0 -24 -20 -44 -44 -44zM180 618c-24 0 -44 20 -44 44c0 23 20 43 44 43s44 -20 44 -43c0 -24 -20 -44 -44 -44zM50 475c0 9 6 15 15 15h45c9 0 15 -6 15 -15v-460c0 -9 -6 -15 -15 -15h-45
c-9 0 -15 6 -15 15v460z" />
    <glyph glyph-name="uni044E" unicode="&#x44e;" horiz-adv-x="730" 
d="M447 501c140 0 248 -112 248 -257s-108 -257 -248 -257c-130 0 -232 96 -246 226h-76v-199c0 -9 -6 -15 -15 -15h-45c-9 0 -15 6 -15 15v460c0 9 6 15 15 15h45c9 0 15 -6 15 -15v-198h76c14 129 116 225 246 225zM447 55c99 0 176 79 176 189s-77 189 -176 189
s-176 -79 -176 -189s77 -189 176 -189z" />
    <glyph glyph-name="uni044F" unicode="&#x44f;" horiz-adv-x="518" 
d="M453 490c9 0 15 -6 15 -15v-460c0 -9 -6 -15 -15 -15h-45c-9 0 -15 6 -15 15v149h-132l-140 -156c-5 -6 -11 -8 -18 -8h-51c-13 0 -17 9 -8 18l137 151c-97 16 -146 75 -146 158c0 99 69 163 207 163h211zM240 229h153v196h-153c-92 0 -133 -35 -133 -98s41 -98 133 -98z
" />
    <glyph glyph-name="uni0394" unicode="&#x394;" horiz-adv-x="632" 
d="M605 17c4 -10 -1 -17 -12 -17h-554c-11 0 -16 7 -12 17l246 671c3 8 10 12 18 12h50c8 0 15 -4 18 -12zM316 605l-193 -541h386z" />
    <glyph glyph-name="uni03A9" unicode="&#x3a9;" horiz-adv-x="796" 
d="M643 93v-29h113v-64h-191v119c71 52 115 126 115 236c0 158 -124 280 -282 280s-282 -122 -282 -280c0 -110 44 -184 115 -236v-119h-191v64h113v29c-77 64 -113 159 -113 262c0 198 160 353 358 353s358 -155 358 -353c0 -103 -36 -198 -113 -262z" />
    <glyph glyph-name="uni03BC" unicode="&#x3bc;" horiz-adv-x="508" 
d="M443 490c9 0 15 -6 15 -15v-460c0 -9 -6 -15 -15 -15h-41c-9 0 -14 6 -15 15l-4 60c-34 -50 -86 -88 -157 -88c-42 0 -78 9 -106 27v-189c0 -9 -6 -15 -15 -15h-45c-9 0 -15 6 -15 15v650c0 9 6 15 15 15h45c9 0 15 -6 15 -15v-286c0 -88 44 -136 117 -136
c94 0 146 90 146 121v301c0 9 6 15 15 15h45z" />
    <glyph glyph-name="pi" unicode="&#x3c0;" horiz-adv-x="612" 
d="M567 426h-84v-322c0 -29 15 -43 39 -43c10 0 26 0 38 2c11 2 18 -4 18 -14v-30c0 -20 -42 -26 -71 -26c-62 0 -99 31 -99 106v327h-188v-411c0 -9 -6 -15 -15 -15h-45c-9 0 -15 6 -15 15v411h-85c-9 0 -15 6 -15 15v34c0 9 6 15 15 15h507c9 0 15 -6 15 -15v-34
c0 -9 -6 -15 -15 -15z" />
    <glyph glyph-name="zero" unicode="0" horiz-adv-x="594" 
d="M297 708c157 0 262 -131 262 -361c0 -229 -105 -360 -262 -360s-262 131 -262 360c0 230 105 361 262 361zM297 640c-117 0 -190 -109 -190 -293c0 -183 73 -292 190 -292s190 109 190 292c0 184 -73 293 -190 293z" />
    <glyph glyph-name="one" unicode="1" horiz-adv-x="250" 
d="M185 700c9 0 15 -6 15 -15v-670c0 -9 -6 -15 -15 -15h-45c-9 0 -15 6 -15 15v620h-75c-9 0 -15 6 -15 15v35c0 9 6 15 15 15h135z" />
    <glyph glyph-name="two" unicode="2" horiz-adv-x="503" 
d="M448 65c9 0 15 -6 15 -15v-35c0 -9 -6 -15 -15 -15h-393c-9 0 -15 6 -15 15v50l170 174c124 127 181 184 181 262c0 79 -49 139 -146 139c-76 0 -119 -39 -148 -65c-8 -7 -15 -7 -22 0l-25 23c-6 6 -7 14 -1 21c46 53 119 89 196 89c138 0 218 -92 218 -207
c0 -89 -63 -164 -182 -285l-148 -151h315z" />
    <glyph glyph-name="three" unicode="3" horiz-adv-x="506" 
d="M345 375c70 -29 126 -92 126 -175c0 -125 -101 -213 -230 -213c-88 0 -156 34 -202 87c-6 7 -5 15 1 21l25 23c7 7 14 8 22 0c28 -28 69 -63 154 -63c88 0 158 58 158 145c0 88 -77 138 -180 141c-10 0 -15 6 -15 15v32c0 9 5 16 15 16c101 3 155 59 155 123
c0 69 -66 114 -132 114s-106 -35 -134 -64c-8 -8 -15 -7 -22 0l-25 24c-6 6 -7 14 -1 21c45 53 111 86 182 86c105 0 201 -76 201 -181c0 -64 -40 -120 -98 -152z" />
    <glyph glyph-name="four" unicode="4" horiz-adv-x="495" 
d="M445 249c9 0 15 -6 15 -15v-35c0 -9 -6 -15 -15 -15h-70v-169c0 -9 -6 -15 -15 -15h-45c-9 0 -15 6 -15 15v169h-255c-9 0 -15 6 -15 15v40c0 7 2 13 5 19l259 432c4 7 10 10 18 10h48c9 0 15 -6 15 -15v-436h70zM300 249v329l-195 -329h195z" />
    <glyph glyph-name="five" unicode="5" horiz-adv-x="515" 
d="M248 457c118 0 227 -93 227 -231c0 -147 -109 -238 -238 -238c-91 0 -162 47 -193 91c-6 9 -4 16 3 21l29 24c8 6 16 5 22 -3c26 -30 69 -65 140 -65c83 0 165 66 165 170c0 100 -87 164 -162 164c-46 0 -94 -14 -134 -62c-5 -7 -12 -9 -20 -5l-34 15c-8 4 -12 10 -10 19
l86 330c2 8 7 13 16 13h274c9 0 15 -6 15 -15v-34c0 -9 -6 -15 -15 -15h-236l-55 -215c27 21 71 36 120 36z" />
    <glyph glyph-name="six" unicode="6" horiz-adv-x="510" 
d="M255 442c127 0 225 -99 225 -226c0 -126 -98 -229 -225 -229s-225 103 -225 229c0 54 18 106 60 163l244 332c6 8 13 9 21 3l30 -23c7 -5 9 -13 3 -21l-173 -233c14 3 27 5 40 5zM255 55c87 0 153 67 153 161c0 92 -66 159 -153 159s-153 -67 -153 -159
c0 -94 66 -161 153 -161z" />
    <glyph glyph-name="seven" unicode="7" horiz-adv-x="471" 
d="M438 700c9 0 15 -6 12 -15l-259 -670c-3 -9 -9 -15 -18 -15h-43c-9 0 -15 6 -12 15l242 620h-310c-9 0 -15 6 -15 15v35c0 9 6 15 15 15h388z" />
    <glyph glyph-name="eight" unicode="8" horiz-adv-x="524" 
d="M351 388c71 -28 133 -100 133 -192c0 -128 -105 -209 -222 -209s-222 81 -222 209c0 92 62 164 133 192c-62 30 -96 88 -96 148c0 90 73 172 185 172s185 -82 185 -172c0 -60 -34 -118 -96 -148zM144 538c-1 -65 52 -115 118 -115s119 50 118 115c-1 59 -44 109 -118 109
s-117 -50 -118 -109zM262 55c81 0 150 53 150 142c0 86 -68 146 -150 146s-150 -60 -150 -146c0 -88 69 -142 150 -142z" />
    <glyph glyph-name="nine" unicode="9" horiz-adv-x="510" 
d="M255 708c127 0 225 -103 225 -229c0 -54 -18 -106 -60 -163l-244 -332c-6 -8 -13 -9 -21 -3l-30 23c-7 5 -9 13 -3 21l173 233c-14 -3 -27 -5 -40 -5c-127 0 -225 99 -225 226c0 126 98 229 225 229zM255 320c87 0 153 67 153 159c0 94 -66 161 -153 161
s-153 -67 -153 -161c0 -92 66 -159 153 -159z" />
    <glyph glyph-name="zero.tf" horiz-adv-x="710" 
d="M355 708c157 0 262 -131 262 -361c0 -229 -105 -360 -262 -360s-262 131 -262 360c0 230 105 361 262 361zM355 640c-117 0 -190 -109 -190 -293c0 -183 73 -292 190 -292s190 109 190 292c0 184 -73 293 -190 293z" />
    <glyph glyph-name="one.tf" horiz-adv-x="710" 
d="M433 700c9 0 15 -6 15 -15v-670c0 -9 -6 -15 -15 -15h-45c-9 0 -15 6 -15 15v620h-75c-9 0 -15 6 -15 15v35c0 9 6 15 15 15h135z" />
    <glyph glyph-name="two.tf" horiz-adv-x="710" 
d="M547 65c9 0 15 -6 15 -15v-35c0 -9 -6 -15 -15 -15h-393c-9 0 -15 6 -15 15v50l170 174c124 127 181 184 181 262c0 79 -49 139 -146 139c-76 0 -119 -39 -148 -65c-8 -7 -15 -7 -22 0l-25 23c-6 6 -7 14 -1 21c46 53 119 89 196 89c138 0 218 -92 218 -207
c0 -89 -63 -164 -182 -285l-148 -151h315z" />
    <glyph glyph-name="three.tf" horiz-adv-x="710" 
d="M447 375c70 -29 126 -92 126 -175c0 -125 -101 -213 -230 -213c-88 0 -156 34 -202 87c-6 7 -5 15 1 21l25 23c7 7 14 8 22 0c28 -28 69 -63 154 -63c88 0 158 58 158 145c0 88 -77 138 -180 141c-10 0 -15 6 -15 15v32c0 9 5 16 15 16c101 3 155 59 155 123
c0 69 -66 114 -132 114s-106 -35 -134 -64c-8 -8 -15 -7 -22 0l-25 24c-6 6 -7 14 -1 21c45 53 111 86 182 86c105 0 201 -76 201 -181c0 -64 -40 -120 -98 -152z" />
    <glyph glyph-name="four.tf" horiz-adv-x="710" 
d="M555 249c9 0 15 -6 15 -15v-35c0 -9 -6 -15 -15 -15h-70v-169c0 -9 -6 -15 -15 -15h-45c-9 0 -15 6 -15 15v169h-255c-9 0 -15 6 -15 15v40c0 7 2 13 5 19l259 432c4 7 10 10 18 10h48c9 0 15 -6 15 -15v-436h70zM410 249v329l-195 -329h195z" />
    <glyph glyph-name="five.tf" horiz-adv-x="710" 
d="M341 457c118 0 227 -93 227 -231c0 -147 -109 -238 -238 -238c-91 0 -162 47 -193 91c-6 9 -4 16 3 21l29 24c8 6 16 5 22 -3c26 -30 69 -65 140 -65c83 0 165 66 165 170c0 100 -87 164 -162 164c-46 0 -94 -14 -134 -62c-5 -7 -12 -9 -20 -5l-34 15c-8 4 -12 10 -10 19
l86 330c2 8 7 13 16 13h274c9 0 15 -6 15 -15v-34c0 -9 -6 -15 -15 -15h-236l-55 -215c27 21 71 36 120 36z" />
    <glyph glyph-name="six.tf" horiz-adv-x="710" 
d="M350 442c127 0 225 -99 225 -226c0 -126 -98 -229 -225 -229s-225 103 -225 229c0 54 18 106 60 163l244 332c6 8 13 9 21 3l30 -23c7 -5 9 -13 3 -21l-173 -233c14 3 27 5 40 5zM350 55c87 0 153 67 153 161c0 92 -66 159 -153 159s-153 -67 -153 -159
c0 -94 66 -161 153 -161z" />
    <glyph glyph-name="seven.tf" horiz-adv-x="710" 
d="M560 700c9 0 15 -6 12 -15l-259 -670c-3 -9 -9 -15 -18 -15h-43c-9 0 -15 6 -12 15l242 620h-310c-9 0 -15 6 -15 15v35c0 9 6 15 15 15h388z" />
    <glyph glyph-name="eight.tf" horiz-adv-x="710" 
d="M444 388c71 -28 133 -100 133 -192c0 -128 -105 -209 -222 -209s-222 81 -222 209c0 92 62 164 133 192c-62 30 -96 88 -96 148c0 90 73 172 185 172s185 -82 185 -172c0 -60 -34 -118 -96 -148zM237 538c-1 -65 52 -115 118 -115s119 50 118 115c-1 59 -44 109 -118 109
s-117 -50 -118 -109zM355 55c81 0 150 53 150 142c0 86 -68 146 -150 146s-150 -60 -150 -146c0 -88 69 -142 150 -142z" />
    <glyph glyph-name="nine.tf" horiz-adv-x="710" 
d="M350 708c127 0 225 -103 225 -229c0 -54 -18 -106 -60 -163l-244 -332c-6 -8 -13 -9 -21 -3l-30 23c-7 5 -9 13 -3 21l173 233c-14 -3 -27 -5 -40 -5c-127 0 -225 99 -225 226c0 126 98 229 225 229zM350 320c87 0 153 67 153 159c0 94 -66 161 -153 161
s-153 -67 -153 -161c0 -92 66 -159 153 -159z" />
    <glyph glyph-name="asterisk" unicode="*" horiz-adv-x="442" 
d="M243 700l-2 -119h-40l-3 119h45zM86 616l115 -35l-10 -38l-116 31zM356 616l11 -42l-116 -31l-10 38zM191 543l30 -26l-67 -97l-37 25zM251 543l74 -98l-37 -25l-67 97z" />
    <glyph glyph-name="backslash" unicode="\" horiz-adv-x="424" 
d="M24 745h42c8 0 15 -4 18 -12l328 -846c4 -11 -1 -17 -12 -17h-42c-8 0 -15 4 -18 12l-328 846c-4 11 1 17 12 17z" />
    <glyph glyph-name="periodcentered" unicode="&#xb7;" horiz-adv-x="166" 
d="M83 236c-27 0 -48 21 -48 48s21 48 48 48s48 -21 48 -48s-21 -48 -48 -48z" />
    <glyph glyph-name="bullet" unicode="&#x2022;" horiz-adv-x="247" 
d="M124 207c-38 0 -69 30 -69 68s31 68 69 68c37 0 68 -30 68 -68s-31 -68 -68 -68z" />
    <glyph glyph-name="colon" unicode=":" horiz-adv-x="166" 
d="M83 443c-27 0 -48 21 -48 48s21 48 48 48s48 -21 48 -48s-21 -48 -48 -48zM83 -13c-27 0 -48 21 -48 48s21 48 48 48s48 -21 48 -48s-21 -48 -48 -48z" />
    <glyph glyph-name="comma" unicode="," horiz-adv-x="167" 
d="M83 83c27 0 49 -21 49 -58c0 -53 -26 -93 -46 -118c-2 -2 -4 -3 -7 -3h-11c-4 0 -6 3 -4 7c11 23 19 46 19 76c-27 0 -48 21 -48 48s21 48 48 48z" />
    <glyph glyph-name="ellipsis" unicode="&#x2026;" horiz-adv-x="660" 
d="M83 -13c-27 0 -48 21 -48 48s21 48 48 48s48 -21 48 -48s-21 -48 -48 -48zM330 -13c-27 0 -48 21 -48 48s21 48 48 48s48 -21 48 -48s-21 -48 -48 -48zM577 -13c-27 0 -48 21 -48 48s21 48 48 48s48 -21 48 -48s-21 -48 -48 -48z" />
    <glyph glyph-name="exclam" unicode="!" horiz-adv-x="226" 
d="M158 660l-23 -455c0 -10 -7 -15 -16 -15h-12c-9 0 -16 5 -16 15l-23 455c-1 27 21 48 45 48s46 -21 45 -48zM113 -13c-27 0 -48 21 -48 48s21 48 48 48s48 -21 48 -48s-21 -48 -48 -48z" />
    <glyph glyph-name="exclamdown" unicode="&#xa1;" horiz-adv-x="166" 
d="M113 533c27 0 48 -21 48 -48s-21 -48 -48 -48s-48 21 -48 48s21 48 48 48zM158 -140c1 -27 -21 -48 -45 -48s-46 21 -45 48l23 455c0 10 7 15 16 15h12c9 0 16 -5 16 -15z" />
    <glyph glyph-name="numbersign" unicode="#" horiz-adv-x="542" 
d="M469 496h-70v-212h70c9 0 18 -6 18 -15v-34c0 -9 -9 -15 -18 -15h-70v-125c0 -9 -6 -15 -15 -15h-42c-9 0 -15 6 -15 15v125h-115v-125c0 -9 -6 -15 -15 -15h-42c-9 0 -15 6 -15 15v125h-70c-9 0 -15 6 -15 15v34c0 9 6 15 15 15h70v212h-70c-9 0 -15 6 -15 15v34
c0 9 6 15 15 15h70v125c0 9 6 15 15 15h42c9 0 15 -6 15 -15v-125h115v125c0 9 6 15 15 15h42c9 0 15 -6 15 -15v-125h70c9 0 18 -6 18 -15v-34c0 -9 -9 -15 -18 -15zM327 284v212h-115v-212h115z" />
    <glyph glyph-name="period" unicode="." horiz-adv-x="166" 
d="M83 -13c-27 0 -48 21 -48 48s21 48 48 48s48 -21 48 -48s-21 -48 -48 -48z" />
    <glyph glyph-name="question" unicode="?" horiz-adv-x="482" 
d="M237 708c122 0 210 -76 210 -180c0 -97 -71 -159 -186 -208l-4 -116c0 -9 -6 -15 -15 -15h-33c-9 0 -14 6 -14 15l-6 145c0 8 4 14 13 17c127 43 170 91 170 162c0 69 -57 108 -135 108c-63 0 -114 -28 -160 -69c-11 -10 -22 -11 -31 0l-14 17c-8 10 -9 20 -1 30
c44 55 126 94 206 94zM227 83c27 0 48 -21 48 -48s-21 -48 -48 -48s-48 21 -48 48s21 48 48 48z" />
    <glyph glyph-name="questiondown" unicode="&#xbf;" horiz-adv-x="482" 
d="M255 437c-27 0 -48 21 -48 48s21 48 48 48s48 -21 48 -48s-21 -48 -48 -48zM450 -64c8 -10 9 -20 1 -30c-44 -55 -126 -94 -206 -94c-122 0 -210 76 -210 180c0 97 71 159 186 208l4 116c0 9 6 15 15 15h33c9 0 14 -6 14 -15l6 -145c0 -8 -4 -14 -13 -17
c-127 -43 -170 -91 -170 -162c0 -69 57 -108 135 -108c63 0 114 28 160 69c11 10 22 11 31 0z" />
    <glyph glyph-name="quotedbl" unicode="&#x22;" horiz-adv-x="250" 
d="M90 700c9 0 15 -6 15 -15l-6 -190c0 -9 -6 -15 -15 -15h-28c-9 0 -15 6 -15 15l-6 190c0 9 6 15 15 15h40zM200 700c9 0 15 -6 15 -15l-6 -190c0 -9 -6 -15 -15 -15h-28c-9 0 -15 6 -15 15l-6 190c0 9 6 15 15 15h40z" />
    <glyph glyph-name="quotesingle" unicode="'" horiz-adv-x="140" 
d="M90 700c9 0 15 -6 15 -15l-6 -190c0 -9 -6 -15 -15 -15h-28c-9 0 -15 6 -15 15l-6 190c0 9 6 15 15 15h40z" />
    <glyph glyph-name="semicolon" unicode=";" horiz-adv-x="167" 
d="M84 405c-27 0 -48 21 -48 48s21 48 48 48s48 -21 48 -48s-21 -48 -48 -48zM83 83c27 0 49 -21 49 -58c0 -53 -26 -93 -46 -118c-2 -2 -4 -3 -7 -3h-11c-4 0 -6 3 -4 7c11 23 19 46 19 76c-27 0 -48 21 -48 48s21 48 48 48z" />
    <glyph glyph-name="slash" unicode="/" horiz-adv-x="424" 
d="M400 745c11 0 16 -6 12 -17l-328 -846c-3 -8 -10 -12 -18 -12h-42c-11 0 -16 6 -12 17l328 846c3 8 10 12 18 12h42z" />
    <glyph glyph-name="underscore" unicode="_" horiz-adv-x="600" 
d="M535 0c9 0 15 -6 15 -15v-35c0 -9 -6 -15 -15 -15h-470c-9 0 -15 6 -15 15v35c0 9 6 15 15 15h470z" />
    <glyph glyph-name="braceleft" unicode="{" horiz-adv-x="290" 
d="M225 745c9 0 15 -6 15 -15v-35c0 -9 -6 -15 -15 -15h-20c-21 0 -35 -14 -35 -35v-261c0 -7 -2 -13 -5 -19l-29 -49c-4 -8 -4 -13 0 -20l29 -47c4 -7 5 -12 5 -19v-260c0 -21 14 -35 35 -35h20c9 0 15 -6 15 -15v-35c0 -9 -6 -15 -15 -15h-60c-42 0 -73 31 -73 75v280
c0 7 -1 13 -5 19l-33 52c-4 7 -5 13 -1 20l34 54c4 7 5 12 5 19v281c0 44 31 75 73 75h60z" />
    <glyph glyph-name="braceright" unicode="}" horiz-adv-x="265" 
d="M40 745h60c42 0 73 -31 73 -75v-281c0 -7 1 -12 5 -19l34 -54c4 -7 3 -13 -1 -20l-33 -52c-4 -6 -5 -12 -5 -19v-280c0 -44 -31 -75 -73 -75h-60c-9 0 -15 6 -15 15v35c0 9 6 15 15 15h20c21 0 35 14 35 35v260c0 7 1 12 5 19l29 47c4 7 4 12 0 20l-29 49
c-3 6 -5 12 -5 19v261c0 21 -14 35 -35 35h-20c-9 0 -15 6 -15 15v35c0 9 6 15 15 15z" />
    <glyph glyph-name="bracketleft" unicode="[" horiz-adv-x="268" 
d="M203 745c9 0 15 -6 15 -15v-34c0 -9 -6 -15 -15 -15h-75v-747h75c9 0 15 -6 15 -15v-34c0 -9 -6 -15 -15 -15h-138c-9 0 -15 6 -15 15v845c0 9 6 15 15 15h138z" />
    <glyph glyph-name="bracketright" unicode="]" horiz-adv-x="268" 
d="M65 745h138c9 0 15 -6 15 -15v-845c0 -9 -6 -15 -15 -15h-138c-9 0 -15 6 -15 15v34c0 9 6 15 15 15h75v747h-75c-9 0 -15 6 -15 15v34c0 9 6 15 15 15z" />
    <glyph glyph-name="parenleft" unicode="(" horiz-adv-x="273" 
d="M210 745c11 0 16 -7 11 -18c-59 -114 -92 -257 -92 -407c0 -159 33 -311 92 -432c5 -11 0 -18 -11 -18h-44c-8 0 -14 3 -18 10c-69 121 -98 278 -98 440c0 153 32 300 98 415c4 7 10 10 18 10h44z" />
    <glyph glyph-name="parenright" unicode=")" horiz-adv-x="273" 
d="M63 745h44c8 0 14 -3 18 -10c66 -115 98 -262 98 -415c0 -162 -29 -319 -98 -440c-4 -7 -10 -10 -18 -10h-44c-11 0 -16 7 -11 18c59 121 92 273 92 432c0 150 -33 293 -92 407c-5 11 0 18 11 18z" />
    <glyph glyph-name="emdash" unicode="&#x2014;" horiz-adv-x="670" 
d="M605 315c9 0 15 -6 15 -15v-35c0 -9 -6 -15 -15 -15h-540c-9 0 -15 6 -15 15v35c0 9 6 15 15 15h540z" />
    <glyph glyph-name="endash" unicode="&#x2013;" horiz-adv-x="610" 
d="M545 315c9 0 15 -6 15 -15v-35c0 -9 -6 -15 -15 -15h-480c-9 0 -15 6 -15 15v35c0 9 6 15 15 15h480z" />
    <glyph glyph-name="hyphen" unicode="-" horiz-adv-x="390" 
d="M330 315c9 0 15 -6 15 -15v-35c0 -9 -6 -15 -15 -15h-270c-9 0 -15 6 -15 15v35c0 9 6 15 15 15h270z" />
    <glyph glyph-name="uni00AD" unicode="&#xad;" horiz-adv-x="390" 
d="M330 315c9 0 15 -6 15 -15v-35c0 -9 -6 -15 -15 -15h-270c-9 0 -15 6 -15 15v35c0 9 6 15 15 15h270z" />
    <glyph glyph-name="guillemotleft" unicode="&#xab;" horiz-adv-x="344" 
d="M35 315c0 7 2 13 8 18l100 87c10 8 18 5 18 -8v-30c0 -7 -2 -13 -8 -18l-83 -72l83 -72c6 -5 8 -11 8 -18v-30c0 -13 -8 -16 -18 -8l-100 87c-6 5 -8 11 -8 18v46zM183 315c0 7 2 13 8 18l100 87c10 8 18 5 18 -8v-30c0 -7 -2 -13 -8 -18l-83 -72l83 -72
c6 -5 8 -11 8 -18v-30c0 -13 -8 -16 -18 -8l-100 87c-6 5 -8 11 -8 18v46z" />
    <glyph glyph-name="guillemotright" unicode="&#xbb;" horiz-adv-x="344" 
d="M161 315v-46c0 -7 -2 -13 -8 -18l-100 -87c-10 -8 -18 -5 -18 8v30c0 7 2 13 8 18l83 72l-83 72c-6 5 -8 11 -8 18v30c0 13 8 16 18 8l100 -87c6 -5 8 -11 8 -18zM309 315v-46c0 -7 -2 -13 -8 -18l-100 -87c-10 -8 -18 -5 -18 8v30c0 7 2 13 8 18l83 72l-83 72
c-6 5 -8 11 -8 18v30c0 13 8 16 18 8l100 -87c6 -5 8 -11 8 -18z" />
    <glyph glyph-name="guilsinglleft" unicode="&#x2039;" horiz-adv-x="196" 
d="M35 315c0 7 2 13 8 18l100 87c10 8 18 5 18 -8v-30c0 -7 -2 -13 -8 -18l-83 -72l83 -72c6 -5 8 -11 8 -18v-30c0 -13 -8 -16 -18 -8l-100 87c-6 5 -8 11 -8 18v46z" />
    <glyph glyph-name="guilsinglright" unicode="&#x203a;" horiz-adv-x="196" 
d="M161 315v-46c0 -7 -2 -13 -8 -18l-100 -87c-10 -8 -18 -5 -18 8v30c0 7 2 13 8 18l83 72l-83 72c-6 5 -8 11 -8 18v30c0 13 8 16 18 8l100 -87c6 -5 8 -11 8 -18z" />
    <glyph glyph-name="quotedblbase" unicode="&#x201e;" horiz-adv-x="274" 
d="M78 83c27 0 49 -21 49 -58c0 -53 -26 -93 -46 -118c-2 -2 -4 -3 -7 -3h-11c-4 0 -6 3 -4 7c11 23 19 46 19 76c-27 0 -48 21 -48 48s21 48 48 48zM195 83c27 0 49 -21 49 -58c0 -53 -26 -93 -46 -118c-2 -2 -4 -3 -7 -3h-11c-4 0 -6 3 -4 7c11 23 19 46 19 76
c-27 0 -48 21 -48 48s21 48 48 48z" />
    <glyph glyph-name="quotedblleft" unicode="&#x201c;" horiz-adv-x="285" 
d="M79 534c-27 0 -49 21 -49 58c0 53 26 93 46 118c2 2 4 3 7 3h11c4 0 6 -3 4 -7c-11 -23 -19 -46 -19 -76c27 0 48 -21 48 -48s-21 -48 -48 -48zM207 534c-27 0 -49 21 -49 58c0 53 26 93 46 118c2 2 4 3 7 3h11c4 0 6 -3 4 -7c-11 -23 -19 -46 -19 -76
c27 0 48 -21 48 -48s-21 -48 -48 -48z" />
    <glyph glyph-name="quotedblright" unicode="&#x201d;" horiz-adv-x="285" 
d="M78 697c27 0 49 -21 49 -58c0 -53 -26 -93 -46 -118c-2 -2 -4 -3 -7 -3h-11c-4 0 -6 3 -4 7c11 23 19 46 19 76c-27 0 -48 21 -48 48s21 48 48 48zM206 697c27 0 49 -21 49 -58c0 -53 -26 -93 -46 -118c-2 -2 -4 -3 -7 -3h-11c-4 0 -6 3 -4 7c11 23 19 46 19 76
c-27 0 -48 21 -48 48s21 48 48 48z" />
    <glyph glyph-name="quoteleft" unicode="&#x2018;" horiz-adv-x="157" 
d="M79 534c-27 0 -49 21 -49 58c0 53 26 93 46 118c2 2 4 3 7 3h11c4 0 6 -3 4 -7c-11 -23 -19 -46 -19 -76c27 0 48 -21 48 -48s-21 -48 -48 -48z" />
    <glyph glyph-name="quoteright" unicode="&#x2019;" horiz-adv-x="157" 
d="M78 697c27 0 49 -21 49 -58c0 -53 -26 -93 -46 -118c-2 -2 -4 -3 -7 -3h-11c-4 0 -6 3 -4 7c11 23 19 46 19 76c-27 0 -48 21 -48 48s21 48 48 48z" />
    <glyph glyph-name="quotesinglbase" unicode="&#x201a;" horiz-adv-x="157" 
d="M78 83c27 0 49 -21 49 -58c0 -53 -26 -93 -46 -118c-2 -2 -4 -3 -7 -3h-11c-4 0 -6 3 -4 7c11 23 19 46 19 76c-27 0 -48 21 -48 48s21 48 48 48z" />
    <glyph glyph-name="space" unicode=" " horiz-adv-x="260" 
 />
    <glyph glyph-name="cent" unicode="&#xa2;" horiz-adv-x="505" 
d="M470 168c6 -6 7 -14 1 -20c-42 -47 -99 -79 -168 -85v-88c0 -9 -6 -15 -15 -15h-28c-9 0 -15 6 -15 15v89c-123 18 -210 121 -210 250s87 232 210 250v121c0 9 6 15 15 15h28c9 0 15 -6 15 -15v-120c67 -6 123 -37 165 -84c6 -7 5 -15 -1 -21l-25 -22c-7 -7 -14 -7 -22 0
c-26 22 -55 54 -117 60v-368c64 6 95 36 120 61c8 7 15 7 22 0zM107 314c0 -93 55 -165 138 -182v364c-83 -17 -138 -89 -138 -182z" />
    <glyph glyph-name="currency" unicode="&#xa4;" horiz-adv-x="562" 
d="M505 476c0 -51 -17 -97 -45 -135l47 -47l-43 -42l-46 46c-38 -29 -85 -46 -137 -46s-99 17 -137 46l-46 -46l-43 42l47 47c-28 38 -45 84 -45 135s17 98 45 136l-47 47l43 42l47 -47c38 29 85 46 136 46s98 -17 136 -46l47 47l43 -42l-47 -47c28 -38 45 -85 45 -136z
M105 476c0 -96 81 -176 176 -176s177 80 177 176c0 95 -82 176 -177 176s-176 -81 -176 -176z" />
    <glyph glyph-name="dollar" unicode="$" horiz-adv-x="521" 
d="M486 180c0 -98 -84 -177 -193 -191v-64c0 -9 -6 -15 -15 -15h-34c-9 0 -15 6 -15 15v63c-83 9 -150 52 -190 105c-5 8 -4 14 3 20l29 28c7 6 14 5 21 -2c40 -43 92 -80 165 -80c92 0 152 56 152 125c0 169 -358 120 -358 346c0 96 75 167 178 177v68c0 9 6 15 15 15h34
c9 0 15 -6 15 -15v-70c61 -11 118 -43 158 -91c6 -7 6 -13 -1 -21l-25 -26c-7 -7 -14 -8 -21 -1c-45 45 -90 71 -151 71c-72 0 -128 -39 -128 -108c0 -165 361 -112 361 -349z" />
    <glyph glyph-name="Euro" unicode="&#x20ac;" horiz-adv-x="704" 
d="M633 134l31 -31c7 -7 6 -15 -1 -21c-64 -55 -143 -95 -236 -95c-168 0 -304 115 -341 271h-41c-9 0 -15 6 -15 15v34c0 9 6 15 15 15h31c-1 8 -1 17 -1 25v18h-30c-9 0 -15 6 -15 15v34c0 9 6 15 15 15h39c35 161 173 279 343 279c93 0 172 -40 236 -95c7 -6 8 -14 1 -21
l-31 -31c-7 -7 -14 -6 -21 0c-51 43 -111 71 -185 71c-124 0 -229 -83 -262 -203h133c9 0 15 -6 15 -15v-34c0 -9 -6 -15 -15 -15h-143c-1 -6 -1 -12 -1 -18c0 -8 0 -17 1 -25h143c9 0 15 -6 15 -15v-34c0 -9 -6 -15 -15 -15h-131c36 -116 139 -195 260 -195
c74 0 134 28 185 71c7 6 14 7 21 0z" />
    <glyph glyph-name="florin" unicode="&#x192;" horiz-adv-x="313" 
d="M323 700c7 -4 10 -10 10 -18v-38c0 -12 -7 -16 -18 -10c-17 9 -33 16 -55 16c-53 0 -66 -26 -66 -71v-89h104c9 0 15 -6 15 -15v-34c0 -9 -6 -15 -15 -15h-104v-483c0 -86 -42 -133 -138 -133c-26 0 -48 6 -66 16c-7 4 -10 10 -10 18v38c0 12 7 16 18 10
c17 -9 33 -16 55 -16c53 0 66 26 66 71v479h-58c-9 0 -15 6 -15 15v34c0 9 6 15 15 15h58v93c0 86 42 133 138 133c26 0 48 -6 66 -16z" />
    <glyph glyph-name="uni20B4" unicode="&#x20b4;" horiz-adv-x="588" 
d="M538 365h-133c-31 -16 -65 -30 -97 -43h230c10 0 16 -6 15 -15v-34c1 -9 -5 -15 -15 -15h-344c-20 -19 -32 -43 -32 -74c0 -69 60 -125 152 -125c73 0 125 37 165 80c7 7 14 8 21 2l29 -28c7 -6 8 -12 3 -20c-45 -59 -122 -106 -219 -106c-126 0 -228 85 -228 193
c0 30 6 56 16 78h-50c-9 0 -15 6 -15 15v34c0 9 6 15 15 15h103c22 17 47 31 73 43h-176c-9 0 -15 6 -15 15v34c0 9 6 15 15 15h323c42 23 72 53 72 100c0 69 -56 108 -128 108c-61 0 -106 -26 -151 -71c-7 -7 -14 -6 -21 1l-25 26c-7 8 -7 14 -1 21c49 58 123 94 198 94
c115 0 202 -75 202 -178c0 -42 -12 -75 -33 -101h51c10 0 16 -6 15 -15v-34c1 -9 -5 -15 -15 -15z" />
    <glyph glyph-name="sterling" unicode="&#xa3;" horiz-adv-x="529" 
d="M270 632c-64 0 -122 -44 -122 -120c0 -59 28 -95 50 -150h229c9 0 15 -6 15 -15v-42c0 -9 -6 -15 -15 -15h-209c3 -18 5 -39 5 -62c0 -61 -30 -119 -70 -156h304c9 0 15 -6 15 -15v-42c0 -9 -6 -15 -15 -15h-392c-9 0 -15 6 -15 15v57c36 21 101 77 101 158
c0 23 -2 42 -7 60h-79c-9 0 -15 6 -15 15v42c0 9 6 15 15 15h53c-22 44 -45 85 -45 153c0 108 89 193 197 193c79 0 152 -40 203 -104c8 -10 7 -20 -1 -30l-14 -17c-9 -11 -20 -10 -31 0c-56 52 -93 75 -157 75z" />
    <glyph glyph-name="yen" unicode="&#xa5;" horiz-adv-x="568" 
d="M530 682l-207 -343v-10h88c9 0 15 -6 15 -15v-34c0 -9 -6 -15 -15 -15h-88v-43h88c9 0 15 -6 15 -15v-34c0 -9 -6 -15 -15 -15h-88v-143c0 -9 -6 -15 -15 -15h-48c-9 0 -15 6 -15 15v143h-87c-9 0 -15 6 -15 15v34c0 9 6 15 15 15h87v43h-87c-9 0 -15 6 -15 15v34
c0 9 6 15 15 15h87v10l-207 343c-6 10 -2 18 10 18h51c8 0 14 -3 18 -10l167 -278l167 278c4 7 10 10 18 10h51c12 0 16 -8 10 -18z" />
    <glyph glyph-name="plus" unicode="+" horiz-adv-x="413" 
d="M343 316c9 0 15 -6 15 -15v-34c0 -9 -6 -15 -15 -15h-104v-105c0 -9 -6 -15 -15 -15h-34c-9 0 -15 6 -15 15v105h-105c-9 0 -15 6 -15 15v34c0 9 6 15 15 15h105v104c0 9 6 15 15 15h34c9 0 15 -6 15 -15v-104h104z" />
    <glyph glyph-name="minus" unicode="&#x2212;" horiz-adv-x="433" 
d="M363 316c9 0 15 -6 15 -15v-34c0 -9 -6 -15 -15 -15h-293c-9 0 -15 6 -15 15v34c0 9 6 15 15 15h293z" />
    <glyph glyph-name="multiply" unicode="&#xd7;" horiz-adv-x="358" 
d="M225 284l73 -74c6 -6 6 -15 0 -21l-24 -24c-6 -7 -15 -7 -21 0l-73 74l-75 -75c-6 -6 -15 -6 -21 0l-24 24c-7 6 -7 15 0 21l75 75l-75 74c-7 6 -7 15 0 21l24 24c6 6 15 6 21 0l75 -74l73 73c6 7 15 7 21 0l24 -24c6 -6 6 -15 0 -21z" />
    <glyph glyph-name="divide" unicode="&#xf7;" horiz-adv-x="433" 
d="M217 368c-27 0 -48 21 -48 48s21 48 48 48s48 -21 48 -48s-21 -48 -48 -48zM363 316c9 0 15 -6 15 -15v-34c0 -9 -6 -15 -15 -15h-293c-9 0 -15 6 -15 15v34c0 9 6 15 15 15h293zM217 88c-27 0 -48 21 -48 48s21 48 48 48s48 -21 48 -48s-21 -48 -48 -48z" />
    <glyph glyph-name="equal" unicode="=" horiz-adv-x="433" 
d="M363 381c9 0 15 -6 15 -15v-34c0 -9 -6 -15 -15 -15h-293c-9 0 -15 6 -15 15v34c0 9 6 15 15 15h293zM363 252c9 0 15 -6 15 -15v-34c0 -9 -6 -15 -15 -15h-293c-9 0 -15 6 -15 15v34c0 9 6 15 15 15h293z" />
    <glyph glyph-name="notequal" unicode="&#x2260;" horiz-adv-x="433" 
d="M363 317h-101l-25 -65h126c9 0 15 -6 15 -15v-34c0 -9 -6 -15 -15 -15h-151l-68 -176c-3 -8 -10 -12 -18 -12h-31c-11 0 -16 6 -12 17l66 171h-79c-9 0 -15 6 -15 15v34c0 9 6 15 15 15h104l25 65h-129c-9 0 -15 6 -15 15v34c0 9 6 15 15 15h154l65 168c3 8 10 12 18 12
h31c11 0 16 -6 12 -17l-63 -163h76c9 0 15 -6 15 -15v-34c0 -9 -6 -15 -15 -15z" />
    <glyph glyph-name="greater" unicode="&#x3e;" horiz-adv-x="507" 
d="M78 481l368 -196c7 -4 11 -10 11 -18v-35c0 -8 -4 -14 -11 -18l-368 -196c-10 -6 -18 -1 -18 10v36c0 8 4 14 11 18l318 167l-318 167c-7 4 -11 10 -11 18v36c0 11 8 17 18 11z" />
    <glyph glyph-name="less" unicode="&#x3c;" horiz-adv-x="487" 
d="M429 481c10 6 18 0 18 -11v-36c0 -8 -4 -14 -11 -18l-318 -167l318 -167c7 -4 11 -10 11 -18v-36c0 -11 -8 -16 -18 -10l-368 196c-7 4 -11 10 -11 18v35c0 8 4 14 11 18z" />
    <glyph glyph-name="greaterequal" unicode="&#x2265;" horiz-adv-x="437" 
d="M70 593l303 -178c6 -3 9 -9 9 -16v-32c0 -7 -3 -12 -9 -16l-303 -178c-8 -5 -15 -1 -15 9v33c0 7 3 13 9 16l262 152l-262 151c-6 4 -9 9 -9 17v32c0 10 7 16 15 10zM74 54h293c9 0 15 -6 15 -15v-34c0 -9 -6 -15 -15 -15h-293c-9 0 -15 6 -15 15v34c0 9 6 15 15 15z" />
    <glyph glyph-name="lessequal" unicode="&#x2264;" horiz-adv-x="437" 
d="M367 593c8 6 15 0 15 -10v-32c0 -8 -3 -13 -9 -17l-262 -151l262 -152c6 -3 9 -9 9 -16v-33c0 -10 -7 -14 -15 -9l-303 178c-6 4 -9 9 -9 16v32c0 7 3 13 9 16zM363 54c9 0 15 -6 15 -15v-34c0 -9 -6 -15 -15 -15h-293c-9 0 -15 6 -15 15v34c0 9 6 15 15 15h293z" />
    <glyph glyph-name="plusminus" unicode="&#xb1;" horiz-adv-x="433" 
d="M80 242c-9 0 -15 6 -15 15v34c0 9 6 15 15 15h105v104c0 9 6 15 15 15h34c9 0 15 -6 15 -15v-104h104c9 0 15 -6 15 -15v-34c0 -9 -6 -15 -15 -15h-104v-105c0 -9 -6 -15 -15 -15h-34c-9 0 -15 6 -15 15v105h-105zM363 64c9 0 15 -6 15 -15v-34c0 -9 -6 -15 -15 -15h-293
c-9 0 -15 6 -15 15v34c0 9 6 15 15 15h293z" />
    <glyph glyph-name="approxequal" unicode="&#x2248;" horiz-adv-x="433" 
d="M142 418c76 1 97 -72 154 -73c28 1 41 20 47 35c2 7 5 10 12 9h17c7 1 12 -3 11 -11c-9 -55 -46 -83 -89 -83c-79 0 -100 73 -157 72c-29 1 -42 -18 -47 -34c-3 -6 -6 -9 -12 -10h-18c-7 1 -11 5 -10 14c7 54 44 82 92 81zM142 258c76 1 97 -72 154 -73c28 1 41 20 47 35
c2 7 5 10 12 9h17c7 1 12 -3 11 -11c-9 -55 -46 -83 -89 -83c-79 0 -100 73 -157 72c-29 1 -42 -18 -47 -34c-3 -6 -6 -9 -12 -10h-18c-7 1 -11 5 -10 14c7 54 44 82 92 81z" />
    <glyph glyph-name="asciitilde" unicode="~" horiz-adv-x="433" 
d="M142 350c76 1 97 -72 154 -73c28 1 41 20 47 35c2 7 5 10 12 9h17c7 1 12 -3 11 -11c-9 -55 -46 -83 -89 -83c-79 0 -100 73 -157 72c-29 1 -42 -18 -47 -34c-3 -6 -6 -9 -12 -10h-18c-7 1 -11 5 -10 14c7 54 44 82 92 81z" />
    <glyph glyph-name="logicalnot" unicode="&#xac;" horiz-adv-x="485" 
d="M420 302c9 0 15 -6 15 -15v-124c0 -9 -6 -15 -15 -15h-45c-9 0 -15 6 -15 15v75h-295c-9 0 -15 6 -15 15v34c0 9 6 15 15 15h355z" />
    <glyph glyph-name="infinity" unicode="&#x221e;" horiz-adv-x="786" 
d="M583 424c92 0 163 -71 163 -163c0 -93 -71 -164 -163 -164c-76 0 -137 51 -190 121c-53 -70 -114 -121 -189 -121c-93 0 -164 71 -164 164c0 92 71 163 164 163c75 0 136 -51 189 -121c53 70 114 121 190 121zM206 147c61 0 115 53 156 114c-41 62 -95 113 -156 113
c-67 0 -114 -47 -114 -113c0 -65 47 -114 114 -114zM580 147c67 0 114 49 114 114c0 66 -47 113 -114 113c-61 0 -115 -51 -156 -113c41 -61 95 -114 156 -114z" />
    <glyph glyph-name="integral" unicode="&#x222b;" horiz-adv-x="363" 
d="M373 784c7 -4 10 -10 10 -18v-38c0 -12 -7 -16 -18 -10c-17 9 -33 16 -55 16c-53 0 -66 -26 -66 -71v-720c0 -86 -42 -133 -138 -133c-26 0 -48 6 -66 16c-7 4 -10 10 -10 18v38c0 12 7 16 18 10c17 -9 33 -16 55 -16c53 0 66 26 66 71v720c0 86 42 133 138 133
c26 0 48 -6 66 -16z" />
    <glyph glyph-name="product" unicode="&#x220f;" horiz-adv-x="658" 
d="M50 785c0 9 6 15 15 15h528c9 0 15 -6 15 -15v-960c0 -9 -6 -15 -15 -15h-48c-9 0 -15 6 -15 15v903h-402v-903c0 -9 -6 -15 -15 -15h-48c-9 0 -15 6 -15 15v960z" />
    <glyph glyph-name="summation" unicode="&#x2211;" horiz-adv-x="658" 
d="M593 800c9 0 15 -6 15 -15v-42c0 -9 -6 -15 -15 -15h-451l268 -413c4 -7 4 -13 0 -20l-268 -413h451c9 0 15 -6 15 -15v-42c0 -9 -6 -15 -15 -15h-528c-9 0 -15 6 -15 15v47c0 7 2 12 6 18l269 415l-269 415c-4 6 -6 11 -6 18v47c0 9 6 15 15 15h528z" />
    <glyph glyph-name="radical" unicode="&#x221a;" horiz-adv-x="665" 
d="M601 800c10 0 15 -7 13 -17l-225 -960c-2 -8 -7 -13 -16 -13h-71c-8 0 -15 4 -17 13l-127 437h-93c-9 0 -15 6 -15 15v42c0 9 6 15 15 15h132c9 0 15 -4 17 -13l121 -435l210 903c2 8 7 13 16 13h40z" />
    <glyph glyph-name="uni00B5" unicode="&#xb5;" horiz-adv-x="508" 
d="M443 490c9 0 15 -6 15 -15v-460c0 -9 -6 -15 -15 -15h-41c-9 0 -14 6 -15 15l-4 60c-34 -50 -86 -88 -157 -88c-42 0 -78 9 -106 27v-189c0 -9 -6 -15 -15 -15h-45c-9 0 -15 6 -15 15v650c0 9 6 15 15 15h45c9 0 15 -6 15 -15v-286c0 -88 44 -136 117 -136
c94 0 146 90 146 121v301c0 9 6 15 15 15h45z" />
    <glyph glyph-name="partialdiff" unicode="&#x2202;" horiz-adv-x="510" 
d="M420 379c42 -57 60 -109 60 -163c0 -126 -98 -229 -225 -229s-225 103 -225 229c0 127 98 226 225 226c13 0 26 -2 40 -5l-173 233c-6 8 -4 16 3 21l30 23c8 6 15 5 21 -3zM255 55c87 0 153 67 153 161c0 92 -66 159 -153 159s-153 -67 -153 -159c0 -94 66 -161 153 -161
z" />
    <glyph glyph-name="percent" unicode="%" horiz-adv-x="708" 
d="M176 705c75 0 137 -59 137 -135s-62 -136 -137 -136c-74 0 -136 60 -136 136s62 135 136 135zM558 704l46 -32l-454 -676l-46 32zM176 651c-45 0 -82 -34 -82 -81c0 -48 37 -82 82 -82c46 0 83 34 83 82c0 47 -37 81 -83 81zM532 266c74 0 136 -60 136 -136
s-62 -135 -136 -135c-75 0 -137 59 -137 135s62 136 137 136zM532 212c-46 0 -83 -34 -83 -82c0 -47 37 -81 83 -81c45 0 82 34 82 81c0 48 -37 82 -82 82z" />
    <glyph glyph-name="perthousand" unicode="&#x2030;" horiz-adv-x="1058" 
d="M176 705c75 0 137 -59 137 -135s-62 -136 -137 -136c-74 0 -136 60 -136 136s62 135 136 135zM558 704l46 -32l-454 -676l-46 32zM176 651c-45 0 -82 -34 -82 -81c0 -48 37 -82 82 -82c46 0 83 34 83 82c0 47 -37 81 -83 81zM532 266c74 0 136 -60 136 -136
s-62 -135 -136 -135c-75 0 -137 59 -137 135s62 136 137 136zM882 266c74 0 136 -60 136 -136s-62 -135 -136 -135c-75 0 -137 59 -137 135s62 136 137 136zM532 212c-46 0 -83 -34 -83 -82c0 -47 37 -81 83 -81c45 0 82 34 82 81c0 48 -37 82 -82 82zM882 212
c-46 0 -83 -34 -83 -82c0 -47 37 -81 83 -81c45 0 82 34 82 81c0 48 -37 82 -82 82z" />
    <glyph glyph-name="lozenge" unicode="&#x25ca;" horiz-adv-x="512" 
d="M295 700c8 0 14 -3 17 -11l146 -329c3 -8 3 -12 0 -20l-146 -329c-3 -8 -9 -11 -17 -11h-78c-8 0 -14 3 -17 11l-146 329c-3 8 -3 12 0 20l146 329c3 8 9 11 17 11h78zM256 47l134 303l-134 303l-134 -303z" />
    <glyph glyph-name="at" unicode="@" horiz-adv-x="801" 
d="M589 510l-22 -222c-6 -58 21 -71 51 -71c48 0 74 45 74 142c0 185 -137 284 -288 284c-141 0 -295 -99 -295 -294c0 -193 154 -292 295 -292c59 0 113 16 157 46l48 -39c-59 -46 -126 -72 -205 -72c-185 0 -364 137 -364 357c0 225 179 359 364 359
c190 0 357 -137 357 -349c0 -150 -80 -205 -153 -205c-42 0 -76 18 -92 55c-31 -31 -74 -50 -125 -50c-108 0 -185 83 -185 185s77 185 185 185c59 0 107 -25 139 -65l14 46h45zM391 220c73 0 123 56 123 124s-50 124 -123 124c-75 0 -121 -56 -121 -124s46 -124 121 -124z
" />
    <glyph glyph-name="ampersand" unicode="&#x26;" horiz-adv-x="638" 
d="M613 48c6 -7 6 -15 -1 -21l-26 -26c-7 -7 -15 -7 -21 0l-78 84c-60 -54 -132 -94 -221 -94c-122 0 -226 66 -226 193c0 102 78 163 157 215c-46 52 -86 107 -86 164c0 75 60 145 157 145c95 0 161 -70 161 -145c0 -77 -60 -129 -128 -177l188 -203c15 16 30 33 44 50
c6 8 14 8 21 1l27 -26c7 -6 8 -14 2 -21c-15 -18 -31 -37 -48 -55zM183 563c0 -42 35 -86 71 -126c57 38 103 75 103 126c0 44 -40 76 -89 76c-47 0 -85 -32 -85 -76zM266 62c68 0 125 31 174 74l-196 211c-68 -46 -128 -93 -128 -161c0 -79 70 -124 150 -124z" />
    <glyph glyph-name="paragraph" unicode="&#xb6;" horiz-adv-x="682" 
d="M274 700h188c9 0 15 -6 15 -15v-670c0 -9 -6 -15 -15 -15h-48c-9 0 -15 6 -15 15v251h-125c-152 0 -234 93 -234 217s82 217 234 217zM544 685c0 9 6 15 15 15h48c9 0 15 -6 15 -15v-670c0 -9 -6 -15 -15 -15h-48c-9 0 -15 6 -15 15v670zM278 338h121v290h-121
c-90 0 -162 -40 -162 -145s72 -145 162 -145z" />
    <glyph glyph-name="section" unicode="&#xa7;" horiz-adv-x="637" 
d="M602 273c0 -68 -36 -121 -91 -153c-21 -92 -116 -148 -226 -148c-109 0 -194 53 -243 115c-8 10 -8 18 -1 27l19 24c10 12 17 11 30 -2c51 -51 103 -90 198 -90c91 0 151 43 151 120c0 171 -384 110 -384 342c0 65 34 119 90 150c19 84 100 142 211 142
c79 0 160 -34 216 -104c8 -10 7 -20 -1 -30l-14 -17c-9 -11 -20 -10 -31 0c-56 52 -96 79 -170 79c-84 0 -140 -39 -140 -108c0 -168 386 -108 386 -347zM508 216c11 17 17 38 17 62c0 157 -323 119 -376 290c-12 -17 -19 -37 -19 -60c0 -154 323 -117 378 -292z" />
    <glyph glyph-name="copyright" unicode="&#xa9;" horiz-adv-x="652" 
d="M326 136c-158 0 -286 128 -286 286s128 286 286 286s286 -128 286 -286s-128 -286 -286 -286zM326 194c126 0 225 102 225 228s-99 228 -225 228s-226 -102 -226 -228s100 -228 226 -228zM427 312c7 -7 7 -15 0 -21c-26 -22 -58 -34 -97 -34c-90 0 -162 71 -162 165
s72 165 162 165c39 0 71 -12 97 -34c7 -6 7 -14 0 -21l-14 -14c-7 -7 -13 -6 -21 -1c-18 11 -39 18 -61 18c-62 0 -110 -49 -110 -113s48 -113 110 -113c22 0 43 7 61 18c8 5 14 6 21 -1z" />
    <glyph glyph-name="registered" unicode="&#xae;" horiz-adv-x="652" 
d="M326 708c158 0 286 -128 286 -286s-128 -286 -286 -286s-286 128 -286 286s128 286 286 286zM326 194c126 0 225 102 225 228s-99 228 -225 228s-226 -102 -226 -228s100 -228 226 -228zM464 473c0 -50 -31 -85 -89 -93l84 -93c5 -6 3 -12 -6 -12h-42c-5 0 -8 2 -11 6
l-86 97h-61v-94c0 -5 -4 -9 -9 -9h-34c-5 0 -9 4 -9 9v277c0 5 4 9 9 9h136c76 0 118 -37 118 -97zM347 426c46 0 66 22 66 47c0 29 -20 48 -66 48h-94v-95h94z" />
    <glyph glyph-name="trademark" unicode="&#x2122;" horiz-adv-x="527" 
d="M221 700c3 0 5 -2 5 -5v-20c0 -3 -2 -5 -5 -5h-64v-145c0 -3 -2 -5 -5 -5h-23c-3 0 -5 2 -5 5v145h-64c-3 0 -5 2 -5 5v20c0 3 2 5 5 5h161zM467 700c3 0 5 -2 5 -5v-170c0 -3 -2 -5 -5 -5h-23c-3 0 -5 2 -5 5v115l-57 -116c-1 -2 -4 -4 -6 -4h-19c-2 0 -5 2 -6 4
l-57 116v-115c0 -3 -2 -5 -5 -5h-23c-3 0 -5 2 -5 5v170c0 3 2 5 5 5h28c2 0 5 -2 6 -4l66 -137l67 137c1 2 4 4 6 4h28z" />
    <glyph glyph-name="degree" unicode="&#xb0;" horiz-adv-x="392" 
d="M196 719c81 0 146 -65 146 -145c0 -82 -65 -147 -146 -147s-146 65 -146 147c0 80 65 145 146 145zM196 666c-51 0 -92 -39 -92 -92s41 -93 92 -93s92 40 92 93s-41 92 -92 92z" />
    <glyph glyph-name="bar" unicode="|" horiz-adv-x="198" 
d="M60 785c0 9 6 15 15 15h48c9 0 15 -6 15 -15v-960c0 -9 -6 -15 -15 -15h-48c-9 0 -15 6 -15 15v960z" />
    <glyph glyph-name="brokenbar" unicode="&#xa6;" horiz-adv-x="198" 
d="M123 800c9 0 15 -6 15 -15v-280c0 -9 -6 -15 -15 -15h-48c-9 0 -15 6 -15 15v280c0 9 6 15 15 15h48zM123 120c9 0 15 -6 15 -15v-280c0 -9 -6 -15 -15 -15h-48c-9 0 -15 6 -15 15v280c0 9 6 15 15 15h48z" />
    <glyph glyph-name="dagger" unicode="&#x2020;" horiz-adv-x="413" 
d="M343 581c9 0 15 -6 15 -15v-34c0 -9 -6 -15 -15 -15h-104v-105c0 -9 -6 -15 -15 -15h-34c-9 0 -15 6 -15 15v105h-105c-9 0 -15 6 -15 15v34c0 9 6 15 15 15h105v104c0 9 6 15 15 15h34c9 0 15 -6 15 -15v-104h104z" />
    <glyph glyph-name="daggerdbl" unicode="&#x2021;" horiz-adv-x="413" 
d="M343 581c9 0 15 -6 15 -15v-34c0 -9 -6 -15 -15 -15h-104v-105c0 -9 -6 -15 -15 -15h-34c-9 0 -15 6 -15 15v105h-105c-9 0 -15 6 -15 15v34c0 9 6 15 15 15h105v104c0 9 6 15 15 15h34c9 0 15 -6 15 -15v-104h104zM343 230c9 0 15 -6 15 -15v-34c0 -9 -6 -15 -15 -15
h-104v-105c0 -9 -6 -15 -15 -15h-34c-9 0 -15 6 -15 15v105h-105c-9 0 -15 6 -15 15v34c0 9 6 15 15 15h105v104c0 9 6 15 15 15h34c9 0 15 -6 15 -15v-104h104z" />
    <glyph glyph-name="asciicircum" unicode="^" horiz-adv-x="567" 
d="M515 321c6 -10 0 -18 -11 -18h-36c-8 0 -14 4 -18 11l-167 318l-167 -318c-4 -7 -10 -11 -18 -11h-36c-11 0 -16 8 -10 18l196 368c4 7 10 11 18 11h35c8 0 14 -4 18 -11z" />
    <glyph glyph-name="uni0326" unicode="&#x326;" horiz-adv-x="0" 
d="M-54 -38c27 0 49 -21 49 -58c0 -53 -26 -93 -46 -118c-2 -2 -4 -3 -7 -3h-11c-4 0 -6 3 -4 7c11 23 19 46 19 76c-27 0 -48 21 -48 48s21 48 48 48z" />
    <glyph glyph-name="acute" unicode="&#xb4;" horiz-adv-x="136" 
d="M117 728c11 0 17 -6 12 -17l-60 -126c-4 -9 -9 -12 -17 -12h-33c-11 0 -17 6 -12 17l60 126c4 9 9 12 17 12h33z" />
    <glyph glyph-name="breve" unicode="&#x2d8;" horiz-adv-x="286" 
d="M228 686c2 9 7 14 16 14h22c10 0 15 -5 14 -15c-7 -66 -58 -118 -137 -118s-130 52 -137 118c-1 10 4 15 14 15h22c9 0 14 -5 16 -14c8 -38 38 -67 85 -67s77 29 85 67z" />
    <glyph glyph-name="caron" unicode="&#x2c7;" horiz-adv-x="276" 
d="M161 574h-46c-7 0 -13 2 -18 8l-87 100c-8 10 -5 18 8 18h30c7 0 13 -2 18 -8l72 -83l72 83c5 6 11 8 18 8h30c13 0 16 -8 8 -18l-87 -100c-5 -6 -11 -8 -18 -8z" />
    <glyph glyph-name="cedilla" unicode="&#xb8;" horiz-adv-x="170" 
d="M84 -39c43 -3 81 -31 81 -77c0 -82 -80 -105 -151 -95c-6 1 -9 5 -9 11v28c0 6 4 10 11 10c55 -6 89 9 89 41c0 29 -40 46 -88 29c-7 -3 -12 0 -12 7v26c0 5 2 8 5 12l44 47h68z" />
    <glyph glyph-name="circumflex" unicode="&#x2c6;" horiz-adv-x="276" 
d="M161 700c7 0 13 -2 18 -8l87 -100c8 -10 5 -18 -8 -18h-30c-7 0 -13 2 -18 8l-72 83l-72 -83c-5 -6 -11 -8 -18 -8h-30c-13 0 -16 8 -8 18l87 100c5 6 11 8 18 8h46z" />
    <glyph glyph-name="dieresis" unicode="&#xa8;" horiz-adv-x="281" 
d="M49 618c-24 0 -44 20 -44 44c0 23 20 43 44 43s44 -20 44 -43c0 -24 -20 -44 -44 -44zM232 618c-24 0 -44 20 -44 44c0 23 20 43 44 43s44 -20 44 -43c0 -24 -20 -44 -44 -44z" />
    <glyph glyph-name="dotaccent" unicode="&#x2d9;" horiz-adv-x="98" 
d="M49 618c-24 0 -44 20 -44 44c0 23 20 43 44 43s44 -20 44 -43c0 -24 -20 -44 -44 -44z" />
    <glyph glyph-name="grave" unicode="`" horiz-adv-x="159" 
d="M42 728h33c8 0 13 -3 17 -12l60 -126c5 -11 -1 -17 -12 -17h-33c-8 0 -13 3 -17 12l-60 126c-5 11 1 17 12 17z" />
    <glyph glyph-name="hungarumlaut" unicode="&#x2dd;" horiz-adv-x="304" 
d="M117 728c11 0 17 -6 12 -17l-60 -126c-4 -9 -9 -12 -17 -12h-33c-11 0 -17 6 -12 17l60 126c4 9 9 12 17 12h33zM262 728c11 0 17 -6 12 -17l-60 -126c-4 -9 -9 -12 -17 -12h-33c-11 0 -17 6 -12 17l60 126c4 9 9 12 17 12h33z" />
    <glyph glyph-name="macron" unicode="&#xaf;" horiz-adv-x="312" 
d="M292 700c9 0 15 -6 15 -15v-32c0 -9 -6 -15 -15 -15h-272c-9 0 -15 6 -15 15v32c0 9 6 15 15 15h272z" />
    <glyph glyph-name="ogonek" unicode="&#x2db;" horiz-adv-x="191" 
d="M186 0c-70 0 -114 -50 -114 -91c0 -45 32 -65 86 -53v-54c-46 -21 -153 -10 -153 91s117 150 181 150v-43z" />
    <glyph glyph-name="ring" unicode="&#x2da;" horiz-adv-x="170" 
d="M86 719c43 0 79 -36 79 -79s-36 -79 -79 -79c-46 0 -81 36 -81 79s35 79 81 79zM86 613c15 0 27 12 27 27s-12 27 -27 27c-16 0 -28 -12 -28 -27s12 -27 28 -27z" />
    <glyph glyph-name="tilde" unicode="&#x2dc;" horiz-adv-x="314" 
d="M90 718c69 0 88 -66 140 -66c25 0 37 17 42 31c2 6 5 9 11 9h16c6 0 10 -4 10 -10c-5 -51 -42 -76 -81 -76c-72 0 -91 66 -143 66c-26 0 -38 -17 -43 -31c-2 -6 -5 -9 -11 -9h-16c-6 0 -10 4 -9 12c5 49 40 74 84 74z" />
    <glyph glyph-name="fraction" unicode="&#x2044;" horiz-adv-x="128" 
d="M303 700l-430 -700h-48l436 700h42z" />
    <glyph glyph-name="onehalf" unicode="&#xbd;" horiz-adv-x="554" 
d="M97 701v-261h-37v225h-27v36h64zM518 700l-430 -700h-48l436 700h42zM437 264c46 0 84 -36 84 -75c0 -38 -23 -62 -68 -108l-47 -49h118v-32h-168v32l68 69c44 46 59 60 59 88c0 25 -22 44 -46 44c-23 0 -47 -16 -47 -50v-14h-37v14c0 48 39 81 84 81z" />
    <glyph glyph-name="onequarter" unicode="&#xbc;" horiz-adv-x="579" 
d="M97 701v-261h-37v225h-27v36h64zM518 700l-430 -700h-48l436 700h42zM522 261v-154h27v-31h-27v-76h-37v76h-132l132 185h37zM485 207l-70 -100h70v100z" />
    <glyph glyph-name="threequarters" unicode="&#xbe;" horiz-adv-x="597" 
d="M121 703c43 0 80 -32 80 -68c0 -20 -10 -39 -30 -53c23 -10 42 -32 42 -66c0 -46 -43 -80 -92 -80c-55 0 -93 43 -91 91h38c0 -31 20 -59 53 -59c29 0 54 19 54 48c0 38 -30 48 -74 48v29c45 0 63 18 63 42c0 21 -19 37 -43 37c-28 0 -47 -19 -47 -55h-37
c-1 51 35 86 84 86zM546 700l-430 -700h-48l436 700h42zM540 261v-154h27v-31h-27v-76h-37v76h-132l132 185h37zM503 207l-70 -100h70v100z" />
    <glyph glyph-name="oneeighth" unicode="&#x215b;" horiz-adv-x="566" 
d="M97 701v-261h-37v225h-27v36h64zM518 700l-430 -700h-48l436 700h42zM444 263c51 0 79 -34 79 -67c0 -20 -9 -40 -30 -53c28 -14 43 -37 43 -66c0 -46 -42 -79 -92 -79c-48 0 -91 33 -91 79c0 29 16 53 43 66c-20 13 -30 33 -30 53c0 33 29 67 78 67zM444 232
c-28 0 -41 -18 -41 -36c0 -20 20 -39 41 -39c24 0 41 19 41 39c0 18 -10 36 -41 36zM444 126c-28 0 -54 -20 -54 -49c0 -28 26 -48 54 -48c32 0 54 19 54 48s-22 49 -54 49z" />
    <glyph glyph-name="threeeighths" unicode="&#x215c;" horiz-adv-x="584" 
d="M121 703c43 0 80 -32 80 -68c0 -20 -10 -39 -30 -53c23 -10 42 -32 42 -66c0 -46 -43 -80 -92 -80c-55 0 -93 43 -91 91h38c0 -31 20 -59 53 -59c29 0 54 19 54 48c0 38 -30 48 -74 48v29c45 0 63 18 63 42c0 21 -19 37 -43 37c-28 0 -47 -19 -47 -55h-37
c-1 51 35 86 84 86zM538 700l-430 -700h-48l436 700h42zM462 263c51 0 79 -34 79 -67c0 -20 -9 -40 -30 -53c28 -14 43 -37 43 -66c0 -46 -42 -79 -92 -79c-48 0 -91 33 -91 79c0 29 16 53 43 66c-20 13 -30 33 -30 53c0 33 29 67 78 67zM462 232c-28 0 -41 -18 -41 -36
c0 -20 20 -39 41 -39c24 0 41 19 41 39c0 18 -10 36 -41 36zM462 126c-28 0 -54 -20 -54 -49c0 -28 26 -48 54 -48c32 0 54 19 54 48s-22 49 -54 49z" />
    <glyph glyph-name="fiveeighths" unicode="&#x215d;" horiz-adv-x="586" 
d="M191 701v-32h-104l-8 -58c13 6 29 10 45 10c45 0 91 -39 91 -92c0 -52 -43 -93 -95 -93c-46 0 -82 31 -90 62l33 19c2 -26 24 -49 57 -49c30 0 57 25 57 61c0 34 -27 60 -53 60c-22 0 -41 -8 -57 -29l-32 8l18 133h138zM538 700l-430 -700h-48l436 700h42zM464 263
c51 0 79 -34 79 -67c0 -20 -9 -40 -30 -53c28 -14 43 -37 43 -66c0 -46 -42 -79 -92 -79c-48 0 -91 33 -91 79c0 29 16 53 43 66c-20 13 -30 33 -30 53c0 33 29 67 78 67zM464 232c-28 0 -41 -18 -41 -36c0 -20 20 -39 41 -39c24 0 41 19 41 39c0 18 -10 36 -41 36zM464 126
c-28 0 -54 -20 -54 -49c0 -28 26 -48 54 -48c32 0 54 19 54 48s-22 49 -54 49z" />
    <glyph glyph-name="seveneighths" unicode="&#x215e;" horiz-adv-x="566" 
d="M205 701l-102 -261h-39l89 229h-121v32h173zM518 700l-430 -700h-48l436 700h42zM444 263c51 0 79 -34 79 -67c0 -20 -9 -40 -30 -53c28 -14 43 -37 43 -66c0 -46 -42 -79 -92 -79c-48 0 -91 33 -91 79c0 29 16 53 43 66c-20 13 -30 33 -30 53c0 33 29 67 78 67zM444 232
c-28 0 -41 -18 -41 -36c0 -20 20 -39 41 -39c24 0 41 19 41 39c0 18 -10 36 -41 36zM444 126c-28 0 -54 -20 -54 -49c0 -28 26 -48 54 -48c32 0 54 19 54 48s-22 49 -54 49z" />
    <glyph glyph-name="zero.dnom" horiz-adv-x="270" 
d="M135 263c62 0 105 -51 105 -126v-13c0 -75 -43 -126 -105 -126c-60 0 -105 51 -105 126v13c0 75 45 126 105 126zM135 232c-38 0 -68 -35 -68 -95v-13c0 -60 30 -95 68 -95c41 0 68 35 68 95v13c0 60 -27 95 -68 95z" />
    <glyph glyph-name="one.dnom" horiz-adv-x="124" 
d="M94 261v-261h-37v225h-27v36h64z" />
    <glyph glyph-name="two.dnom" horiz-adv-x="231" 
d="M114 264c46 0 84 -36 84 -75c0 -38 -23 -62 -68 -108l-47 -49h118v-32h-168v32l68 69c44 46 59 60 59 88c0 25 -22 44 -46 44c-23 0 -47 -16 -47 -50v-14h-37v14c0 48 39 81 84 81z" />
    <glyph glyph-name="three.dnom" horiz-adv-x="243" 
d="M121 263c43 0 80 -32 80 -68c0 -20 -10 -39 -30 -53c23 -10 42 -32 42 -66c0 -46 -43 -80 -92 -80c-55 0 -93 43 -91 91h38c0 -31 20 -59 53 -59c29 0 54 19 54 48c0 38 -30 48 -74 48v29c45 0 63 18 63 42c0 21 -19 37 -43 37c-28 0 -47 -19 -47 -55h-37
c-1 51 35 86 84 86z" />
    <glyph glyph-name="four.dnom" horiz-adv-x="256" 
d="M199 261v-154h27v-31h-27v-76h-37v76h-132l132 185h37zM162 207l-70 -100h70v100z" />
    <glyph glyph-name="five.dnom" horiz-adv-x="245" 
d="M191 261v-32h-104l-8 -58c13 6 29 10 45 10c45 0 91 -39 91 -92c0 -52 -43 -93 -95 -93c-46 0 -82 31 -90 62l33 19c2 -26 24 -49 57 -49c30 0 57 25 57 61c0 34 -27 60 -53 60c-22 0 -41 -8 -57 -29l-32 8l18 133h138z" />
    <glyph glyph-name="six.dnom" horiz-adv-x="233" 
d="M179 261l-68 -96h6c45 0 86 -39 86 -84c0 -47 -42 -85 -86 -85c-45 0 -87 38 -87 85c0 45 27 69 50 101l57 79h42zM117 133c-29 0 -50 -20 -50 -52s26 -53 50 -53c23 0 49 21 49 53s-26 52 -49 52z" />
    <glyph glyph-name="seven.dnom" horiz-adv-x="233" 
d="M203 261l-102 -261h-39l89 229h-121v32h173z" />
    <glyph glyph-name="eight.dnom" horiz-adv-x="243" 
d="M121 263c51 0 79 -34 79 -67c0 -20 -9 -40 -30 -53c28 -14 43 -37 43 -66c0 -46 -42 -79 -92 -79c-48 0 -91 33 -91 79c0 29 16 53 43 66c-20 13 -30 33 -30 53c0 33 29 67 78 67zM121 232c-28 0 -41 -18 -41 -36c0 -20 20 -39 41 -39c24 0 41 19 41 39
c0 18 -10 36 -41 36zM121 126c-28 0 -54 -20 -54 -49c0 -28 26 -48 54 -48c32 0 54 19 54 48s-22 49 -54 49z" />
    <glyph glyph-name="nine.dnom" horiz-adv-x="234" 
d="M117 264c45 0 87 -37 87 -84c0 -45 -27 -70 -51 -102l-56 -78h-43l68 95h-5c-46 0 -87 40 -87 85c0 47 42 84 87 84zM117 232c-24 0 -50 -21 -50 -52c0 -32 26 -53 50 -53c29 0 49 21 49 53c0 31 -26 52 -49 52z" />
    <glyph glyph-name="zero.numr" horiz-adv-x="270" 
d="M135 703c62 0 105 -51 105 -126v-13c0 -75 -43 -126 -105 -126c-60 0 -105 51 -105 126v13c0 75 45 126 105 126zM135 672c-38 0 -68 -35 -68 -95v-13c0 -60 30 -95 68 -95c41 0 68 35 68 95v13c0 60 -27 95 -68 95z" />
    <glyph glyph-name="one.numr" horiz-adv-x="124" 
d="M94 701v-261h-37v225h-27v36h64z" />
    <glyph glyph-name="two.numr" horiz-adv-x="231" 
d="M114 704c46 0 84 -36 84 -75c0 -38 -23 -62 -68 -108l-47 -49h118v-32h-168v32l68 69c44 46 59 60 59 88c0 25 -22 44 -46 44c-23 0 -47 -16 -47 -50v-14h-37v14c0 48 39 81 84 81z" />
    <glyph glyph-name="three.numr" horiz-adv-x="243" 
d="M121 703c43 0 80 -32 80 -68c0 -20 -10 -39 -30 -53c23 -10 42 -32 42 -66c0 -46 -43 -80 -92 -80c-55 0 -93 43 -91 91h38c0 -31 20 -59 53 -59c29 0 54 19 54 48c0 38 -30 48 -74 48v29c45 0 63 18 63 42c0 21 -19 37 -43 37c-28 0 -47 -19 -47 -55h-37
c-1 51 35 86 84 86z" />
    <glyph glyph-name="four.numr" horiz-adv-x="256" 
d="M199 701v-154h27v-31h-27v-76h-37v76h-132l132 185h37zM162 647l-70 -100h70v100z" />
    <glyph glyph-name="five.numr" horiz-adv-x="245" 
d="M191 701v-32h-104l-8 -58c13 6 29 10 45 10c45 0 91 -39 91 -92c0 -52 -43 -93 -95 -93c-46 0 -82 31 -90 62l33 19c2 -26 24 -49 57 -49c30 0 57 25 57 61c0 34 -27 60 -53 60c-22 0 -41 -8 -57 -29l-32 8l18 133h138z" />
    <glyph glyph-name="six.numr" horiz-adv-x="233" 
d="M179 701l-68 -96h6c45 0 86 -39 86 -84c0 -47 -42 -85 -86 -85c-45 0 -87 38 -87 85c0 45 27 69 50 101l57 79h42zM117 573c-29 0 -50 -20 -50 -52s26 -53 50 -53c23 0 49 21 49 53s-26 52 -49 52z" />
    <glyph glyph-name="seven.numr" horiz-adv-x="233" 
d="M203 701l-102 -261h-39l89 229h-121v32h173z" />
    <glyph glyph-name="eight.numr" horiz-adv-x="243" 
d="M121 703c51 0 79 -34 79 -67c0 -20 -9 -40 -30 -53c28 -14 43 -37 43 -66c0 -46 -42 -79 -92 -79c-48 0 -91 33 -91 79c0 29 16 53 43 66c-20 13 -30 33 -30 53c0 33 29 67 78 67zM121 672c-28 0 -41 -18 -41 -36c0 -20 20 -39 41 -39c24 0 41 19 41 39
c0 18 -10 36 -41 36zM121 566c-28 0 -54 -20 -54 -49c0 -28 26 -48 54 -48c32 0 54 19 54 48s-22 49 -54 49z" />
    <glyph glyph-name="nine.numr" horiz-adv-x="234" 
d="M117 704c45 0 87 -37 87 -84c0 -45 -27 -70 -51 -102l-56 -78h-43l68 95h-5c-46 0 -87 40 -87 85c0 47 42 84 87 84zM117 672c-24 0 -50 -21 -50 -52c0 -32 26 -53 50 -53c29 0 49 21 49 53c0 31 -26 52 -49 52z" />
    <glyph glyph-name="uni00B9" unicode="&#xb9;" horiz-adv-x="149" 
d="M99 701v-261h-37v225h-27v36h64z" />
    <glyph glyph-name="uni00B2" unicode="&#xb2;" horiz-adv-x="251" 
d="M124 704c46 0 84 -36 84 -75c0 -38 -23 -62 -68 -108l-47 -49h118v-32h-168v32l68 69c44 46 59 60 59 88c0 25 -22 44 -46 44c-23 0 -47 -16 -47 -50v-14h-37v14c0 48 39 81 84 81z" />
    <glyph glyph-name="uni00B3" unicode="&#xb3;" horiz-adv-x="253" 
d="M126 703c43 0 80 -32 80 -68c0 -20 -10 -39 -30 -53c23 -10 42 -32 42 -66c0 -46 -43 -80 -92 -80c-55 0 -93 43 -91 91h38c0 -31 20 -59 53 -59c29 0 54 19 54 48c0 38 -30 48 -74 48v29c45 0 63 18 63 42c0 21 -19 37 -43 37c-28 0 -47 -19 -47 -55h-37
c-1 51 35 86 84 86z" />
    </font>
</defs>
</svg>
